{"glyphs":{"0":{"ha":951,"x_min":87,"x_max":864,"o":"m 761 112 q 709 43 761 112 q 475 -25 657 -25 q 190 112 294 -25 q 87 491 87 248 q 190 868 87 733 q 475 1004 294 1004 q 760 868 656 1004 q 864 490 864 732 q 761 112 864 248 m 342 232 q 366 187 342 232 q 475 142 390 142 q 609 232 561 142 q 656 491 656 321 q 609 748 656 659 q 475 836 561 836 q 342 747 391 836 q 294 491 294 659 q 342 232 294 322 z "},"1":{"ha":713,"x_min":83,"x_max":541,"o":"m 336 0 l 336 779 l 323 779 l 83 614 l 83 804 l 336 979 l 541 979 l 541 0 l 336 0 z "},"2":{"ha":894,"x_min":87,"x_max":805,"o":"m 87 686 q 186 916 87 827 q 444 1004 286 1004 q 694 924 597 1004 q 791 718 791 844 q 741 559 791 638 q 564 361 690 480 l 376 182 l 376 170 l 805 170 l 805 0 l 99 0 l 99 143 l 418 456 q 556 606 522 556 q 591 705 591 656 q 548 801 591 764 q 437 839 505 839 q 322 797 366 839 q 277 686 277 754 l 277 682 l 87 682 l 87 686 z "},"3":{"ha":929,"x_min":85,"x_max":845,"o":"m 338 425 l 338 577 l 457 577 q 570 614 527 577 q 613 711 613 652 q 571 805 613 770 q 456 840 528 840 q 341 803 385 840 q 293 702 297 766 l 104 702 q 205 922 109 841 q 462 1004 302 1004 q 710 929 612 1004 q 807 740 807 855 q 758 594 807 655 q 627 516 709 533 l 627 504 q 786 430 728 492 q 845 271 845 367 q 796 118 845 186 q 659 13 747 51 q 460 -25 570 -25 q 195 58 297 -25 q 85 280 92 142 l 281 280 q 335 181 286 218 q 463 145 384 145 q 588 184 539 145 q 636 286 636 224 q 589 388 636 351 q 459 425 541 425 l 338 425 z "},"4":{"ha":956,"x_min":77,"x_max":880,"o":"m 556 0 l 556 171 l 77 171 l 77 352 q 465 979 192 568 l 751 979 l 751 341 l 880 341 l 880 171 l 751 171 l 751 0 l 556 0 m 261 346 l 261 335 l 561 335 l 561 819 l 550 819 q 261 346 393 585 z "},"5":{"ha":922,"x_min":104,"x_max":843,"o":"m 469 -25 q 210 60 311 -25 q 104 278 109 145 l 294 278 q 351 180 302 217 q 470 142 400 142 q 598 191 549 142 q 648 319 648 240 q 598 450 648 400 q 471 499 549 499 q 303 411 357 499 l 120 411 l 169 979 l 784 979 l 784 808 l 328 808 l 306 557 l 318 557 q 526 652 385 652 q 754 560 665 652 q 843 324 843 468 q 740 72 843 168 q 469 -25 637 -25 z "},"6":{"ha":950,"x_min":85,"x_max":864,"o":"m 490 -25 q 300 20 383 -25 q 167 152 217 66 q 85 482 85 278 q 193 865 85 726 q 493 1004 302 1004 q 731 928 633 1004 q 851 730 830 853 l 648 730 q 592 807 634 779 q 492 836 549 836 q 334 746 391 836 q 280 503 277 656 l 292 503 q 391 610 326 572 q 542 648 456 648 q 772 555 681 648 q 864 323 864 463 q 759 73 864 170 q 490 -25 654 -25 m 361 194 q 387 168 361 194 q 488 143 412 143 q 614 193 563 143 q 665 317 665 243 q 615 440 665 391 q 488 490 565 490 q 361 441 412 490 q 311 319 311 392 q 361 194 311 244 z "},"7":{"ha":840,"x_min":66,"x_max":766,"o":"m 142 0 l 559 798 l 559 810 l 66 810 l 66 979 l 766 979 l 766 808 l 357 0 l 142 0 z "},"8":{"ha":964,"x_min":87,"x_max":878,"o":"m 768 55 q 713 15 768 55 q 481 -25 658 -25 q 196 54 305 -25 q 87 261 87 134 q 145 421 87 353 q 302 511 204 490 l 302 524 q 174 600 222 542 q 126 736 126 659 q 226 929 126 854 q 482 1004 326 1004 q 738 929 637 1004 q 838 736 838 854 q 790 601 838 659 q 661 524 742 543 l 661 511 q 818 425 759 493 q 878 263 878 357 q 768 55 878 134 m 350 172 q 376 151 350 172 q 481 130 401 130 q 613 172 562 130 q 664 280 664 214 q 613 389 664 347 q 481 431 562 431 q 350 389 401 431 q 300 280 300 347 q 350 172 300 214 m 371 620 q 392 601 371 620 q 481 583 414 583 q 592 620 549 583 q 635 717 635 658 q 592 814 635 777 q 481 852 549 852 q 371 814 414 852 q 328 717 328 777 q 371 620 328 658 z "},"9":{"ha":950,"x_min":86,"x_max":865,"o":"m 457 -25 q 219 51 318 -25 q 99 248 120 126 l 302 248 q 358 172 316 200 q 458 143 401 143 q 616 233 559 143 q 670 476 673 323 l 664 476 l 659 476 l 658 476 q 559 369 625 407 q 408 332 494 332 q 177 424 269 332 q 86 656 86 515 q 191 906 86 808 q 460 1004 296 1004 q 649 959 566 1004 q 783 827 732 913 q 865 497 865 700 q 757 114 865 253 q 457 -25 648 -25 m 335 538 q 360 514 335 538 q 462 490 385 490 q 589 538 538 490 q 640 661 640 587 q 589 786 640 735 q 463 836 538 836 q 336 786 387 836 q 285 663 285 736 q 335 538 285 587 z "}," ":{"ha":358,"x_min":0,"x_max":0,"o":""},"!":{"ha":495,"x_min":124,"x_max":371,"o":"m 139 979 l 356 979 l 338 322 l 157 322 l 139 979 m 248 -20 q 157 11 191 -20 q 124 95 124 41 q 157 180 124 149 q 248 211 191 211 q 338 180 305 211 q 371 95 371 149 q 338 11 371 41 q 248 -20 305 -20 z "},"\"":{"ha":689,"x_min":103,"x_max":586,"o":"m 273 564 l 103 564 l 103 979 l 273 979 l 273 564 m 586 564 l 416 564 l 416 979 l 586 979 l 586 564 z "},"#":{"ha":922,"x_min":22,"x_max":906,"o":"m 448 0 l 500 256 l 324 256 l 273 0 l 123 0 l 174 256 l 22 256 l 50 407 l 203 407 l 240 585 l 83 585 l 112 734 l 269 734 l 319 979 l 469 979 l 420 734 l 595 734 l 645 979 l 795 979 l 746 734 l 906 734 l 878 585 l 716 585 l 680 407 l 843 407 l 815 256 l 650 256 l 599 0 l 448 0 m 341 393 l 536 393 l 578 597 l 383 597 l 341 393 z "},"$":{"ha":960,"x_min":96,"x_max":864,"o":"m 532 -92 l 437 -92 l 437 -7 q 187 78 277 2 q 96 278 96 154 l 290 278 q 333 193 293 228 q 437 152 374 159 l 437 404 l 366 421 q 179 519 243 450 q 115 694 115 589 q 200 896 115 819 q 437 985 285 972 l 437 1077 l 532 1077 l 532 985 q 758 894 673 971 q 845 700 843 817 l 656 700 q 620 781 654 746 q 532 823 585 815 l 532 581 l 604 566 q 864 292 864 511 q 778 85 864 163 q 532 -5 691 8 l 532 -92 m 671 269 q 532 387 671 361 l 532 151 q 634 186 597 155 q 671 269 671 218 m 312 713 q 344 642 312 671 q 437 601 376 613 l 437 823 q 347 790 382 821 q 312 713 312 759 z "},"%":{"ha":1154,"x_min":44,"x_max":1109,"o":"m 503 753 q 439 573 503 642 q 273 505 376 505 q 107 573 171 505 q 44 753 44 642 q 107 933 44 865 q 273 1001 171 1001 q 439 933 376 1001 q 503 753 503 865 m 216 667 q 227 651 216 667 q 273 635 237 635 q 330 667 309 635 q 351 753 351 699 q 331 841 351 809 q 273 872 310 872 q 216 840 237 872 q 195 753 195 808 q 216 667 195 699 m 343 0 l 152 0 l 522 513 l 816 979 l 1006 979 l 631 462 l 343 0 m 1109 226 q 1046 46 1109 115 q 880 -22 983 -22 q 715 46 778 -22 q 652 226 652 115 q 715 406 652 337 q 880 474 778 474 q 1046 406 983 474 q 1109 226 1109 338 m 823 140 q 834 124 823 140 q 880 108 844 108 q 937 140 916 108 q 958 227 958 172 q 938 313 958 282 q 880 345 917 345 q 823 313 844 345 q 802 227 802 281 q 823 140 802 172 z "},"&":{"ha":1034,"x_min":73,"x_max":1017,"o":"m 795 0 l 720 79 q 585 7 665 33 q 415 -19 505 -19 q 166 56 259 -19 q 73 256 73 130 q 116 402 73 340 q 255 517 160 465 q 277 529 257 517 q 298 541 297 540 q 204 660 232 609 q 177 765 177 711 q 256 929 177 864 q 456 994 335 994 q 652 931 576 994 q 729 769 729 868 q 681 631 729 693 q 530 513 632 568 l 718 318 q 752 496 752 379 l 752 545 l 918 545 l 918 484 q 835 191 918 304 l 1017 0 l 795 0 m 363 419 q 258 273 258 362 q 307 169 258 209 q 435 130 356 130 q 538 148 489 130 q 616 196 587 165 l 391 433 q 363 419 380 429 m 438 608 q 535 676 505 642 q 564 754 564 711 q 534 829 564 800 q 456 858 505 858 q 378 829 408 858 q 347 754 347 800 q 367 689 347 721 q 438 608 387 656 z "},"'":{"ha":375,"x_min":103,"x_max":273,"o":"m 273 564 l 103 564 l 103 979 l 273 979 l 273 564 z "},"(":{"ha":595,"x_min":151,"x_max":534,"o":"m 151 412 q 353 1034 151 791 l 534 1034 q 407 762 458 937 q 355 412 355 587 q 407 63 355 238 q 534 -210 458 -113 l 353 -210 q 151 412 151 34 z "},")":{"ha":595,"x_min":61,"x_max":444,"o":"m 444 412 q 243 -210 444 33 l 61 -210 q 189 62 138 -113 q 240 412 240 237 q 189 762 240 587 q 61 1034 137 937 l 243 1034 q 444 412 444 791 z "},"*":{"ha":700,"x_min":84,"x_max":616,"o":"m 548 531 l 392 652 l 418 457 l 282 457 l 309 652 l 152 531 l 84 652 l 269 726 l 84 799 l 152 921 l 309 795 l 282 994 l 418 994 l 391 795 l 548 921 l 616 799 l 432 726 l 616 652 l 548 531 z "},"+":{"ha":960,"x_min":114,"x_max":846,"o":"m 566 309 l 566 31 l 393 31 l 393 309 l 114 309 l 114 484 l 393 484 l 393 760 l 566 760 l 566 484 l 846 484 l 846 309 l 566 309 z "},",":{"ha":483,"x_min":96,"x_max":351,"o":"m 228 -265 l 96 -265 l 158 159 l 351 159 l 228 -265 z "},"-":{"ha":673,"x_min":114,"x_max":559,"o":"m 559 302 l 114 302 l 114 488 l 559 488 l 559 302 z "},".":{"ha":483,"x_min":121,"x_max":361,"o":"m 329 15 q 312 -2 329 15 q 241 -18 296 -18 q 154 15 187 -18 q 121 100 121 47 q 154 184 121 151 q 241 217 187 217 q 329 184 296 217 q 361 100 361 152 q 329 15 361 47 z "},"/":{"ha":538,"x_min":0,"x_max":538,"o":"m 184 -210 l 0 -210 l 354 1034 l 538 1034 l 184 -210 z "},":":{"ha":483,"x_min":121,"x_max":361,"o":"m 329 15 q 312 -2 329 15 q 241 -18 296 -18 q 154 15 187 -18 q 121 100 121 47 q 154 184 121 151 q 241 217 187 217 q 329 184 296 217 q 361 100 361 152 q 329 15 361 47 m 329 515 q 312 499 329 515 q 241 482 296 482 q 154 515 187 482 q 121 600 121 548 q 154 685 121 652 q 241 718 187 718 q 329 685 296 718 q 361 600 361 652 q 329 515 361 548 z "},";":{"ha":483,"x_min":83,"x_max":361,"o":"m 329 515 q 312 499 329 515 q 241 482 296 482 q 154 515 187 482 q 121 600 121 548 q 154 685 121 652 q 241 718 187 718 q 329 685 296 718 q 361 600 361 652 q 329 515 361 548 m 221 -265 l 83 -265 l 148 159 l 342 159 l 221 -265 z "},"<":{"ha":960,"x_min":157,"x_max":803,"o":"m 803 613 l 357 408 l 357 395 l 803 189 l 803 -15 l 157 321 l 157 481 l 803 817 l 803 613 z "},"=":{"ha":960,"x_min":116,"x_max":844,"o":"m 844 146 l 116 146 l 116 322 l 844 322 l 844 146 m 844 471 l 116 471 l 116 647 l 844 647 l 844 471 z "},">":{"ha":960,"x_min":157,"x_max":803,"o":"m 157 613 l 157 817 l 803 481 l 803 321 l 157 -15 l 157 189 l 602 395 l 602 408 l 157 613 z "},"?":{"ha":774,"x_min":53,"x_max":705,"o":"m 53 702 q 142 909 56 831 q 382 987 229 987 q 616 914 528 987 q 705 723 705 841 q 669 592 705 648 q 559 494 633 536 q 468 423 492 454 q 444 343 444 392 l 444 307 l 264 307 l 263 345 q 285 476 256 425 q 385 569 314 527 q 475 639 452 608 q 499 717 499 670 q 464 794 499 764 q 370 825 428 825 q 276 791 312 825 q 237 702 240 758 l 53 702 m 451 11 q 435 -5 451 11 q 361 -20 418 -20 q 271 11 304 -20 q 238 95 238 41 q 271 180 238 149 q 361 211 304 211 q 451 180 418 211 q 484 95 484 149 q 451 11 484 41 z "},"@":{"ha":1288,"x_min":86,"x_max":1206,"o":"m 637 568 q 553 527 584 568 q 523 413 523 486 q 553 299 523 340 q 637 258 583 258 q 723 300 691 258 q 755 413 755 341 q 723 526 755 485 q 637 568 692 568 m 659 983 q 944 920 820 983 q 1138 742 1069 857 q 1206 479 1206 627 q 1135 223 1206 317 q 940 129 1063 129 q 833 157 876 129 q 779 235 790 186 l 766 235 q 604 131 723 131 q 433 210 498 131 q 369 417 369 288 q 432 617 369 541 q 597 694 495 694 q 693 669 651 694 q 755 598 735 644 l 768 598 l 768 679 l 905 679 l 905 319 q 922 263 905 283 q 970 243 939 243 q 1052 304 1021 243 q 1082 468 1082 365 q 965 763 1082 652 q 655 873 848 873 q 334 745 458 873 q 210 414 210 617 q 337 87 210 208 q 681 -35 465 -35 q 865 -12 803 -35 l 865 -123 q 671 -147 783 -147 q 363 -77 496 -147 q 158 121 231 -7 q 86 418 86 249 q 158 712 86 583 q 361 912 231 841 q 659 983 492 983 z "},"A":{"ha":1017,"x_min":49,"x_max":969,"o":"m 747 0 l 673 233 l 330 233 l 254 0 l 49 0 l 389 979 l 629 979 l 969 0 l 747 0 m 496 775 l 374 391 l 630 391 l 509 775 l 496 775 z "},"B":{"ha":963,"x_min":119,"x_max":897,"o":"m 558 0 l 119 0 l 119 979 l 547 979 q 769 913 688 979 q 850 734 850 848 q 799 597 850 656 q 673 526 748 537 l 673 513 q 833 440 770 506 q 897 280 897 374 q 806 76 897 151 q 558 0 715 0 m 323 822 l 323 573 l 477 573 q 604 606 560 573 q 648 697 648 638 q 608 789 648 756 q 494 822 568 822 l 323 822 m 323 157 l 506 157 q 641 193 594 157 q 688 298 688 229 q 640 400 688 365 q 501 435 592 435 l 323 435 l 323 157 z "},"C":{"ha":1029,"x_min":75,"x_max":960,"o":"m 534 -25 q 198 113 321 -25 q 75 490 75 251 q 198 866 75 728 q 534 1004 321 1004 q 828 900 708 1004 q 959 637 947 797 l 760 637 q 683 772 745 722 q 534 823 622 823 q 352 734 419 823 q 285 490 285 644 q 352 245 285 335 q 535 155 419 155 q 684 203 623 155 q 760 332 745 252 l 960 332 q 829 74 947 174 q 534 -25 711 -25 z "},"D":{"ha":1038,"x_min":119,"x_max":963,"o":"m 119 979 l 504 979 q 843 853 722 979 q 963 496 963 726 q 843 129 963 258 q 504 0 724 0 l 119 0 l 119 979 m 323 804 l 323 175 l 471 175 q 681 257 608 175 q 754 493 754 338 q 680 723 754 641 q 471 804 605 804 l 323 804 z "},"E":{"ha":864,"x_min":119,"x_max":767,"o":"m 767 175 l 767 0 l 119 0 l 119 979 l 767 979 l 767 804 l 323 804 l 323 575 l 742 575 l 742 413 l 323 413 l 323 175 l 767 175 z "},"F":{"ha":830,"x_min":119,"x_max":760,"o":"m 323 0 l 119 0 l 119 979 l 760 979 l 760 804 l 323 804 l 323 549 l 722 549 l 722 381 l 323 381 l 323 0 z "},"G":{"ha":1056,"x_min":75,"x_max":979,"o":"m 979 399 q 862 89 979 203 q 545 -25 745 -25 q 201 113 326 -25 q 75 490 75 250 q 201 865 75 727 q 540 1004 326 1004 q 831 911 713 1004 q 970 667 948 819 l 766 667 q 684 782 743 741 q 540 823 625 823 q 353 735 421 823 q 285 492 285 646 q 356 245 285 336 q 548 155 427 155 q 712 210 648 155 q 779 353 776 264 l 780 370 l 568 370 l 568 524 l 979 524 l 979 399 z "},"H":{"ha":1088,"x_min":119,"x_max":969,"o":"m 969 0 l 764 0 l 764 409 l 323 409 l 323 0 l 119 0 l 119 979 l 323 979 l 323 584 l 764 584 l 764 979 l 969 979 l 969 0 z "},"I":{"ha":442,"x_min":119,"x_max":323,"o":"m 323 0 l 119 0 l 119 979 l 323 979 l 323 0 z "},"J":{"ha":835,"x_min":52,"x_max":716,"o":"m 52 288 l 250 288 q 287 193 251 229 q 381 158 322 158 q 478 196 444 158 q 511 305 511 233 l 511 979 l 716 979 l 716 304 q 628 61 716 146 q 384 -25 541 -25 q 142 60 233 -25 q 52 288 52 144 z "},"K":{"ha":985,"x_min":119,"x_max":950,"o":"m 323 0 l 119 0 l 119 979 l 323 979 l 323 543 l 336 543 l 697 979 l 925 979 l 568 549 l 950 0 l 705 0 l 420 410 l 323 295 l 323 0 z "},"L":{"ha":826,"x_min":119,"x_max":759,"o":"m 759 178 l 759 0 l 119 0 l 119 979 l 323 979 l 323 178 l 759 178 z "},"M":{"ha":1274,"x_min":119,"x_max":1155,"o":"m 1155 0 l 965 0 l 965 654 l 954 654 l 705 56 l 569 56 l 319 654 l 309 654 l 309 0 l 119 0 l 119 979 l 360 979 l 631 321 l 643 321 l 914 979 l 1155 979 l 1155 0 z "},"N":{"ha":1067,"x_min":119,"x_max":948,"o":"m 315 0 l 119 0 l 119 979 l 290 979 l 740 369 l 752 369 l 752 979 l 948 979 l 948 0 l 779 0 l 327 612 l 315 612 l 315 0 z "},"O":{"ha":1092,"x_min":75,"x_max":1017,"o":"m 547 1004 q 890 865 764 1004 q 1017 490 1017 727 q 890 113 1017 252 q 547 -25 764 -25 q 202 113 329 -25 q 75 490 75 252 q 203 865 75 727 q 547 1004 330 1004 m 737 733 q 701 779 737 733 q 547 824 666 824 q 356 733 427 824 q 285 490 285 643 q 356 245 285 336 q 547 155 427 155 q 737 245 666 155 q 808 490 808 336 q 737 733 808 643 z "},"P":{"ha":936,"x_min":119,"x_max":866,"o":"m 119 979 l 527 979 q 772 885 678 979 q 866 640 866 792 q 769 397 866 490 q 517 304 672 304 l 323 304 l 323 0 l 119 0 l 119 979 m 323 810 l 323 470 l 472 470 q 609 514 561 470 q 658 640 658 557 q 610 766 658 722 q 473 810 562 810 l 323 810 z "},"Q":{"ha":1092,"x_min":75,"x_max":1017,"o":"m 547 -25 q 202 113 329 -25 q 75 490 75 251 q 203 865 75 727 q 547 1004 330 1004 q 890 865 763 1004 q 1017 490 1017 727 q 977 255 1017 358 q 863 89 937 153 l 984 -96 l 786 -96 l 718 1 q 547 -25 640 -25 m 547 155 q 618 163 581 155 l 507 326 l 692 326 l 738 271 q 808 490 808 347 q 736 733 808 643 q 547 824 665 824 q 356 733 427 824 q 285 490 285 643 q 356 245 285 335 q 547 155 427 155 z "},"R":{"ha":964,"x_min":119,"x_max":905,"o":"m 323 813 l 323 512 l 503 512 q 624 552 581 512 q 667 662 667 591 q 622 772 667 732 q 501 813 577 813 l 323 813 m 323 355 l 323 0 l 119 0 l 119 979 l 530 979 q 784 895 691 979 q 877 665 877 810 q 830 495 877 570 q 699 387 783 420 l 905 0 l 673 0 l 491 355 l 323 355 z "},"S":{"ha":938,"x_min":75,"x_max":863,"o":"m 75 272 l 273 272 q 335 177 279 212 q 477 142 391 142 q 608 177 557 142 q 659 267 659 212 q 620 343 659 314 q 490 391 581 372 l 363 418 q 97 698 97 474 q 199 920 97 836 q 471 1004 302 1004 q 737 922 633 1004 q 846 709 841 840 l 653 709 q 596 802 646 767 q 473 838 547 838 q 349 804 395 838 q 302 715 302 771 q 340 642 302 670 q 464 596 378 614 l 582 571 q 796 473 729 540 q 863 293 863 407 q 757 60 863 145 q 467 -25 651 -25 q 186 55 292 -25 q 75 272 80 135 z "},"T":{"ha":917,"x_min":62,"x_max":854,"o":"m 561 0 l 356 0 l 356 804 l 62 804 l 62 979 l 854 979 l 854 804 l 561 804 l 561 0 z "},"U":{"ha":1061,"x_min":121,"x_max":941,"o":"m 326 979 l 326 359 q 379 211 326 265 q 530 157 433 157 q 682 211 628 157 q 736 359 736 265 l 736 979 l 941 979 l 941 338 q 829 75 941 174 q 530 -25 718 -25 q 232 75 344 -25 q 121 338 121 174 l 121 979 l 326 979 z "},"V":{"ha":1002,"x_min":49,"x_max":954,"o":"m 627 0 l 380 0 l 49 979 l 280 979 l 503 231 l 515 231 l 733 979 l 954 979 l 627 0 z "},"W":{"ha":1402,"x_min":60,"x_max":1343,"o":"m 695 648 l 512 0 l 319 0 l 60 979 l 273 979 l 425 289 l 436 289 l 614 979 l 787 979 l 969 289 l 980 289 l 1131 979 l 1343 979 l 1083 0 l 891 0 l 706 648 l 695 648 z "},"X":{"ha":1013,"x_min":60,"x_max":954,"o":"m 60 0 l 372 493 l 62 979 l 302 979 l 507 636 l 519 636 l 725 979 l 954 979 l 632 490 l 949 0 l 716 0 l 506 332 l 494 332 l 281 0 l 60 0 z "},"Y":{"ha":984,"x_min":49,"x_max":935,"o":"m 595 0 l 390 0 l 390 360 l 49 979 l 271 979 l 486 569 l 498 569 l 713 979 l 935 979 l 595 360 l 595 0 z "},"Z":{"ha":939,"x_min":92,"x_max":847,"o":"m 92 0 l 92 138 l 584 791 l 584 804 l 103 804 l 103 979 l 833 979 l 833 841 l 342 187 l 342 175 l 847 175 l 847 0 l 92 0 z "},"[":{"ha":595,"x_min":171,"x_max":547,"o":"m 171 1034 l 547 1034 l 547 882 l 361 882 l 361 -59 l 547 -59 l 547 -210 l 171 -210 l 171 1034 z "},"\\":{"ha":538,"x_min":0,"x_max":538,"o":"m 351 -210 l 0 1034 l 187 1034 l 538 -210 l 351 -210 z "},"]":{"ha":595,"x_min":50,"x_max":425,"o":"m 425 1034 l 425 -210 l 50 -210 l 50 -59 l 235 -59 l 235 882 l 50 882 l 50 1034 l 425 1034 z "},"^":{"ha":723,"x_min":58,"x_max":666,"o":"m 355 802 l 232 524 l 58 524 l 274 955 l 450 955 l 666 524 l 492 524 l 368 802 l 355 802 z "},"_":{"ha":641,"x_min":-1,"x_max":642,"o":"m 642 -227 l -1 -227 l -1 -73 l 642 -73 l 642 -227 z "},"`":{"ha":745,"x_min":183,"x_max":560,"o":"m 560 869 l 378 869 l 183 1108 l 393 1108 l 560 869 z "},"a":{"ha":819,"x_min":59,"x_max":724,"o":"m 369 137 q 484 176 437 137 q 530 271 530 214 l 530 326 l 378 317 q 252 227 252 308 q 284 161 252 185 q 369 137 317 137 m 304 -12 q 127 50 195 -12 q 59 214 59 112 q 134 373 59 315 q 349 439 209 431 l 530 450 l 530 511 q 497 583 530 557 q 404 608 465 608 q 269 539 294 608 l 87 539 q 185 704 96 643 q 414 764 273 764 q 643 698 562 764 q 724 511 724 631 l 724 0 l 533 0 l 533 98 l 521 98 q 434 17 492 46 q 304 -12 376 -12 z "},"b":{"ha":905,"x_min":106,"x_max":843,"o":"m 540 -12 q 400 22 460 -12 q 309 117 339 56 l 297 117 l 297 0 l 106 0 l 106 1034 l 303 1034 l 303 629 l 315 629 q 404 725 344 690 q 540 760 463 760 q 762 658 682 760 q 843 374 843 555 q 762 92 843 195 q 540 -12 681 -12 m 595 536 q 572 565 595 536 q 471 595 549 595 q 348 535 393 595 q 301 374 302 476 q 348 213 302 272 q 471 153 393 153 q 595 212 550 153 q 640 374 640 271 q 595 536 640 477 z "},"c":{"ha":816,"x_min":62,"x_max":761,"o":"m 761 484 l 576 484 q 528 571 566 539 q 428 602 490 602 q 305 544 348 602 q 262 376 262 486 q 305 205 262 264 q 428 146 348 146 q 527 175 489 146 q 576 259 566 204 l 761 259 q 661 58 749 132 q 428 -16 572 -16 q 158 86 253 -16 q 62 376 62 188 q 157 663 62 562 q 428 764 252 764 q 662 689 574 764 q 761 484 749 614 z "},"d":{"ha":905,"x_min":62,"x_max":799,"o":"m 367 -12 q 144 92 226 -12 q 62 375 62 196 q 144 657 62 553 q 367 760 226 760 q 502 725 443 760 q 590 629 561 690 l 602 629 l 602 1034 l 799 1034 l 799 0 l 608 0 l 608 117 l 595 117 q 505 23 566 57 q 367 -12 445 -12 m 558 535 q 535 565 558 535 q 434 595 513 595 q 310 536 355 595 q 265 374 265 477 q 310 212 265 271 q 434 153 355 153 q 558 212 513 153 q 604 374 604 271 q 558 535 604 476 z "},"e":{"ha":835,"x_min":62,"x_max":772,"o":"m 422 613 q 310 569 354 613 q 260 452 265 525 l 578 452 q 533 570 575 527 q 422 613 492 613 m 583 213 l 766 213 q 653 45 744 106 q 425 -16 562 -16 q 158 86 254 -16 q 62 370 62 188 q 159 659 62 553 q 422 764 255 764 q 680 665 587 764 q 772 387 772 565 l 772 326 l 259 326 l 259 316 q 307 184 261 233 q 430 136 353 136 q 528 156 488 136 q 583 213 567 176 z "},"f":{"ha":567,"x_min":36,"x_max":515,"o":"m 157 0 l 157 585 l 36 585 l 36 741 l 157 741 l 157 817 q 218 985 157 930 q 413 1040 279 1040 q 515 1033 470 1040 l 515 893 q 456 897 482 897 q 374 874 399 897 q 350 802 350 851 l 350 741 l 509 741 l 509 585 l 354 585 l 354 0 l 157 0 z "},"g":{"ha":897,"x_min":60,"x_max":798,"o":"m 307 224 q 329 195 307 224 q 431 167 351 167 q 557 224 511 167 q 602 380 602 281 q 556 537 602 479 q 431 595 511 595 q 308 537 352 595 q 263 381 263 480 q 307 224 263 281 m 429 -283 q 188 -223 281 -283 q 86 -64 96 -163 l 281 -64 q 329 -119 289 -99 q 433 -140 369 -140 q 556 -105 512 -140 q 600 -7 600 -70 l 600 132 l 588 132 q 363 11 524 11 q 142 111 223 11 q 60 380 60 211 q 143 657 60 555 q 367 760 225 760 q 504 725 443 760 q 594 628 564 690 l 606 628 l 606 748 l 798 748 l 798 3 q 698 -206 798 -129 q 429 -283 598 -283 z "},"h":{"ha":886,"x_min":106,"x_max":794,"o":"m 106 0 l 106 1034 l 300 1034 l 300 625 l 312 625 q 397 726 338 690 q 538 762 456 762 q 727 689 659 762 q 794 481 794 616 l 794 0 l 597 0 l 597 435 q 562 552 597 512 q 459 592 526 592 q 345 548 386 592 q 303 429 303 503 l 303 0 l 106 0 z "},"i":{"ha":398,"x_min":83,"x_max":316,"o":"m 100 0 l 100 748 l 298 748 l 298 0 l 100 0 m 199 852 q 115 880 146 852 q 83 952 83 908 q 115 1024 83 997 q 199 1052 146 1052 q 284 1024 252 1052 q 316 952 316 997 q 284 880 316 908 q 199 852 252 852 z "},"j":{"ha":398,"x_min":-20,"x_max":316,"o":"m 298 748 l 298 -23 q 231 -196 298 -138 q 33 -255 163 -255 q -20 -252 -3 -255 l -20 -101 q 5 -102 -16 -102 q 79 -82 57 -102 q 100 -18 100 -62 l 100 748 l 298 748 m 199 852 q 115 880 146 852 q 83 952 83 908 q 115 1024 83 997 q 199 1052 146 1052 q 284 1024 252 1052 q 316 952 316 997 q 284 880 316 908 q 199 852 252 852 z "},"k":{"ha":836,"x_min":106,"x_max":810,"o":"m 315 456 l 566 748 l 790 748 l 505 427 l 810 0 l 576 0 l 357 304 l 303 248 l 303 0 l 106 0 l 106 1034 l 303 1034 l 303 456 l 315 456 z "},"l":{"ha":409,"x_min":106,"x_max":303,"o":"m 106 0 l 106 1034 l 303 1034 l 303 0 l 106 0 z "},"m":{"ha":1288,"x_min":99,"x_max":1196,"o":"m 99 0 l 99 748 l 290 748 l 290 626 l 302 626 q 381 727 326 690 q 509 764 436 764 q 641 728 587 764 q 716 626 694 692 l 728 626 q 815 727 755 689 q 954 764 876 764 q 1131 696 1065 764 q 1196 513 1196 629 l 1196 0 l 998 0 l 998 461 q 873 594 998 594 q 778 556 814 594 q 742 458 742 518 l 742 0 l 552 0 l 552 469 q 519 561 552 528 q 429 594 487 594 q 334 553 371 594 q 296 450 296 513 l 296 0 l 99 0 z "},"n":{"ha":871,"x_min":99,"x_max":779,"o":"m 99 0 l 99 748 l 290 748 l 290 628 l 302 628 q 386 728 329 692 q 524 764 442 764 q 713 691 648 764 q 779 484 779 618 l 779 0 l 582 0 l 582 437 q 444 594 582 594 q 336 550 376 594 q 296 431 296 505 l 296 0 l 99 0 z "},"o":{"ha":861,"x_min":62,"x_max":799,"o":"m 701 87 q 652 36 701 87 q 431 -16 603 -16 q 160 87 258 -16 q 62 374 62 191 q 161 660 62 556 q 431 764 260 764 q 700 660 602 764 q 799 374 799 556 q 701 87 799 191 m 431 145 q 553 205 509 145 q 596 374 596 265 q 552 543 596 482 q 431 603 509 603 q 309 543 352 603 q 265 374 265 482 q 308 205 265 265 q 431 145 351 145 z "},"p":{"ha":898,"x_min":99,"x_max":836,"o":"m 531 760 q 755 658 673 760 q 836 374 836 555 q 755 91 836 194 q 534 -12 675 -12 q 395 22 454 -12 q 309 115 336 55 l 296 115 l 296 -248 l 99 -248 l 99 748 l 290 748 l 290 625 l 302 625 q 393 724 333 688 q 531 760 454 760 m 464 153 q 589 212 544 153 q 633 374 633 271 q 588 536 633 477 q 465 595 543 595 q 340 535 386 595 q 294 374 294 476 q 340 212 294 271 q 464 153 385 153 z "},"q":{"ha":898,"x_min":62,"x_max":799,"o":"m 368 760 q 504 724 444 760 q 595 625 565 688 l 607 625 l 607 748 l 799 748 l 799 -248 l 601 -248 l 601 115 l 589 115 q 500 21 558 54 q 364 -12 443 -12 q 143 92 224 -12 q 62 375 62 195 q 145 657 62 553 q 368 760 227 760 m 433 153 q 558 212 512 153 q 604 374 604 271 q 558 535 604 476 q 433 595 512 595 q 310 536 355 595 q 265 374 265 477 q 310 212 265 271 q 433 153 354 153 z "},"r":{"ha":604,"x_min":99,"x_max":572,"o":"m 99 0 l 99 748 l 290 748 l 290 629 l 302 629 q 371 723 317 686 q 494 760 424 760 q 572 751 545 760 l 572 571 q 478 583 541 583 q 346 538 396 583 q 296 414 296 492 l 296 0 l 99 0 z "},"s":{"ha":787,"x_min":64,"x_max":724,"o":"m 82 528 q 168 700 82 635 q 393 764 254 764 q 617 707 536 764 q 706 542 698 649 l 524 542 q 483 599 516 578 q 395 620 449 620 q 307 598 341 620 q 272 541 272 576 q 296 495 272 513 q 373 466 321 477 l 513 435 q 673 363 623 412 q 724 231 724 314 q 633 52 724 119 q 394 -16 542 -16 q 160 42 246 -16 q 64 208 74 100 l 256 208 q 398 128 280 128 q 492 150 456 128 q 528 208 528 172 q 505 253 528 236 q 433 281 483 271 l 298 312 q 135 389 189 336 q 82 528 82 442 z "},"t":{"ha":573,"x_min":39,"x_max":508,"o":"m 155 926 l 353 926 l 353 741 l 508 741 l 508 585 l 353 585 l 353 249 q 376 177 353 200 q 450 154 399 154 q 508 157 483 154 l 508 6 q 409 -3 463 -3 q 214 45 273 -3 q 155 202 155 92 l 155 585 l 39 585 l 39 741 l 155 741 l 155 926 z "},"u":{"ha":875,"x_min":92,"x_max":776,"o":"m 776 748 l 776 0 l 585 0 l 585 120 l 572 120 q 354 -16 517 -16 q 162 57 233 -16 q 92 260 92 131 l 92 748 l 290 748 l 290 311 q 427 155 290 155 q 539 198 500 155 q 578 317 578 241 l 578 748 l 776 748 z "},"v":{"ha":810,"x_min":35,"x_max":775,"o":"m 775 748 l 517 0 l 294 0 l 35 748 l 247 748 l 401 191 l 414 191 l 567 748 l 775 748 z "},"w":{"ha":1177,"x_min":41,"x_max":1135,"o":"m 1135 748 l 937 0 l 726 0 l 593 516 l 581 516 l 448 0 l 241 0 l 41 748 l 241 748 l 353 212 l 365 212 l 496 748 l 684 748 l 816 212 l 828 212 l 939 748 l 1135 748 z "},"x":{"ha":807,"x_min":43,"x_max":764,"o":"m 406 244 l 393 244 l 254 0 l 45 0 l 279 370 l 43 748 l 270 748 l 402 503 l 414 503 l 547 748 l 762 748 l 528 378 l 764 0 l 545 0 l 406 244 z "},"y":{"ha":829,"x_min":38,"x_max":791,"o":"m 192 -272 q 117 -270 129 -272 l 117 -111 q 161 -113 123 -113 q 250 -93 218 -113 q 294 -32 281 -74 l 300 -5 l 38 748 l 256 748 l 413 181 l 425 181 l 583 748 l 791 748 l 534 -12 q 409 -214 486 -155 q 192 -272 332 -272 z "},"z":{"ha":787,"x_min":82,"x_max":705,"o":"m 82 0 l 82 117 l 460 578 l 460 591 l 87 591 l 87 748 l 696 748 l 696 618 l 340 170 l 340 157 l 705 157 l 705 0 l 82 0 z "},"{":{"ha":595,"x_min":50,"x_max":547,"o":"m 221 402 q 353 349 308 393 q 399 232 399 306 l 399 68 q 426 -32 399 -3 q 517 -62 452 -62 l 547 -62 l 547 -210 l 496 -210 q 277 -149 345 -210 q 210 48 210 -87 l 210 178 q 173 283 210 252 q 50 316 137 315 l 50 511 q 173 543 136 511 q 210 648 210 574 l 210 779 q 277 973 210 913 q 496 1034 345 1034 l 547 1034 l 547 884 l 517 884 q 426 855 452 884 q 399 755 399 825 l 399 594 q 353 477 399 521 q 221 425 308 434 l 221 402 z "},"|":{"ha":538,"x_min":176,"x_max":361,"o":"m 361 -210 l 176 -210 l 176 1034 l 361 1034 l 361 -210 z "},"}":{"ha":595,"x_min":50,"x_max":547,"o":"m 375 402 l 375 425 q 243 477 288 434 q 197 594 197 521 l 197 755 q 171 855 197 825 q 79 884 144 884 l 50 884 l 50 1034 l 100 1034 q 318 973 251 1034 q 386 779 386 913 l 386 648 q 422 543 386 574 q 547 511 459 511 l 547 316 q 422 283 459 315 q 386 178 386 252 l 386 48 q 318 -149 386 -87 q 100 -210 250 -210 l 50 -210 l 50 -62 l 79 -62 q 171 -32 144 -62 q 197 68 197 -3 l 197 232 q 243 349 197 306 q 375 402 288 393 z "},"~":{"ha":831,"x_min":54,"x_max":776,"o":"m 384 422 q 332 465 352 453 q 291 477 312 477 q 210 356 213 477 l 56 356 q 273 649 54 649 q 359 629 319 649 q 449 560 399 608 q 499 519 479 531 q 541 507 520 507 q 621 627 617 507 l 775 627 q 723 407 776 479 q 561 334 671 334 q 473 354 513 334 q 384 422 432 374 z "}," ":{"ha":358,"x_min":0,"x_max":0,"o":""},"¡":{"ha":495,"x_min":124,"x_max":371,"o":"m 139 -218 l 157 439 l 338 439 l 356 -218 l 139 -218 m 248 550 q 157 581 191 550 q 124 666 124 612 q 157 750 124 720 q 248 781 191 781 q 338 750 305 781 q 371 666 371 720 q 338 581 371 612 q 248 550 305 550 z "},"¢":{"ha":960,"x_min":107,"x_max":850,"o":"m 850 358 q 763 179 839 250 q 570 90 688 108 l 570 -35 l 406 -35 l 406 92 q 189 220 270 119 q 107 475 107 321 q 189 728 107 627 q 406 854 271 829 l 406 983 l 570 983 l 570 857 q 762 764 686 838 q 850 583 839 691 l 665 583 q 605 669 650 637 q 497 701 559 701 q 360 640 414 701 q 307 475 307 579 q 360 307 307 369 q 496 245 414 245 q 608 275 564 245 q 665 358 652 305 l 850 358 z "},"£":{"ha":960,"x_min":96,"x_max":858,"o":"m 374 174 l 858 174 l 858 0 l 96 0 l 96 163 q 244 237 186 176 q 301 382 301 298 q 297 429 301 406 l 98 429 l 98 573 l 250 573 q 210 738 210 673 q 310 934 210 864 q 589 1004 409 1004 q 713 994 650 1004 q 812 970 777 984 l 812 804 q 724 829 779 819 q 614 839 668 839 q 468 804 520 839 q 416 705 416 768 q 446 573 416 656 l 727 573 l 727 429 l 491 429 q 493 395 493 412 q 459 270 493 328 q 374 187 426 212 l 374 174 z "},"¤":{"ha":960,"x_min":114,"x_max":846,"o":"m 368 551 q 345 527 368 551 q 321 439 321 504 q 368 329 321 375 q 480 282 415 282 q 592 329 545 282 q 640 439 640 375 q 592 551 640 504 q 480 597 545 597 q 368 551 415 597 m 846 692 l 747 591 q 786 439 786 522 q 746 288 786 357 l 846 186 l 734 70 l 633 172 q 480 130 563 130 q 328 172 397 130 l 227 70 l 114 186 l 214 288 q 175 439 175 359 q 214 591 175 522 l 114 692 l 227 809 l 327 707 q 480 749 397 749 q 633 708 563 749 l 734 809 l 846 692 z "},"¥":{"ha":960,"x_min":37,"x_max":923,"o":"m 766 140 l 583 140 l 583 0 l 378 0 l 378 140 l 194 140 l 194 254 l 378 254 l 378 345 l 194 345 l 194 459 l 326 459 l 37 979 l 258 979 l 474 569 l 486 569 l 701 979 l 923 979 l 634 459 l 766 459 l 766 345 l 583 345 l 583 254 l 766 254 l 766 140 z "},"¦":{"ha":538,"x_min":176,"x_max":361,"o":"m 361 536 l 176 536 l 176 1034 l 361 1034 l 361 536 m 361 -210 l 176 -210 l 176 286 l 361 286 l 361 -210 z "},"§":{"ha":700,"x_min":46,"x_max":654,"o":"m 315 308 l 389 282 q 456 315 429 288 q 483 376 483 342 q 458 432 483 408 q 387 470 433 457 l 313 496 q 246 463 273 490 q 218 402 218 435 q 244 346 218 370 q 315 308 269 321 m 349 -194 q 140 -131 222 -194 q 54 33 58 -68 l 225 33 q 266 -28 230 -5 q 352 -52 301 -52 q 437 -27 404 -52 q 470 35 470 -3 q 446 83 470 63 q 369 119 422 103 l 250 159 q 95 242 143 194 q 46 363 46 291 q 85 476 46 427 q 192 545 124 524 l 192 557 q 86 635 119 591 q 53 743 53 680 q 134 909 53 846 q 350 972 216 972 q 554 911 475 972 q 642 749 634 850 l 471 749 q 432 807 466 785 q 349 829 398 829 q 265 806 297 829 q 233 744 233 782 q 256 696 233 715 q 332 660 279 677 l 448 619 q 606 534 557 582 q 654 416 654 486 q 611 299 654 351 q 498 229 568 248 l 498 216 q 613 143 576 186 q 649 35 649 100 q 566 -131 649 -67 q 349 -194 484 -194 z "},"¨":{"ha":798,"x_min":135,"x_max":663,"o":"m 315 888 q 300 874 315 888 q 240 859 286 859 q 165 888 195 859 q 135 962 135 918 q 164 1036 135 1007 q 240 1065 194 1065 q 316 1036 286 1065 q 345 962 345 1007 q 315 888 345 918 m 557 859 q 482 888 512 859 q 452 962 452 918 q 482 1036 452 1007 q 557 1065 512 1065 q 633 1036 604 1065 q 663 962 663 1007 q 633 888 663 918 q 557 859 604 859 z "},"©":{"ha":1181,"x_min":56,"x_max":1126,"o":"m 800 -50 q 750 -71 800 -50 q 591 -92 701 -92 q 382 -50 481 -92 q 212 63 283 -8 q 98 233 140 134 q 56 442 56 332 q 98 651 56 552 q 211 822 140 751 q 382 935 283 893 q 591 977 481 977 q 800 935 701 977 q 971 822 899 893 q 1084 651 1042 751 q 1126 442 1126 552 q 1084 233 1126 332 q 970 63 1042 134 q 800 -50 899 -8 m 425 54 q 464 37 425 54 q 591 20 503 20 q 757 53 678 20 q 892 143 836 86 q 981 277 948 199 q 1015 442 1015 355 q 959 656 1015 559 q 805 809 903 753 q 591 865 707 865 q 425 831 503 865 q 290 742 347 798 q 201 607 234 686 q 168 442 168 529 q 201 277 168 355 q 290 143 234 199 q 425 54 347 87 m 840 515 l 712 515 q 675 577 705 554 q 602 600 645 600 q 512 558 545 600 q 479 444 479 517 q 512 327 479 369 q 602 285 545 285 q 676 306 647 285 q 712 366 705 328 l 840 366 q 766 225 830 277 q 602 174 703 174 q 412 246 481 174 q 342 444 342 319 q 412 639 342 567 q 601 711 482 711 q 765 658 700 711 q 840 515 830 604 z "},"ª":{"ha":699,"x_min":62,"x_max":627,"o":"m 333 470 q 417 500 384 470 q 450 575 450 530 l 450 623 l 337 614 q 240 542 240 608 q 265 489 240 509 q 333 470 290 470 m 266 337 q 117 390 173 337 q 62 531 62 443 q 125 666 62 617 q 309 722 188 715 l 449 730 l 449 781 q 424 834 450 814 q 351 853 397 853 q 286 839 311 853 q 256 798 261 824 l 85 798 q 164 941 92 889 q 358 994 237 994 q 555 936 484 994 q 627 777 627 878 l 627 349 l 454 349 l 454 426 l 441 426 q 373 361 419 385 q 266 337 326 337 z "},"«":{"ha":981,"x_min":107,"x_max":874,"o":"m 292 388 l 292 380 l 528 102 l 340 102 l 107 381 l 107 387 l 344 665 l 528 665 l 292 388 m 639 388 l 639 380 l 874 102 l 687 102 l 454 381 l 454 387 l 690 665 l 874 665 l 639 388 z "},"¬":{"ha":960,"x_min":125,"x_max":834,"o":"m 834 484 l 834 40 l 661 40 l 661 309 l 125 309 l 125 484 l 834 484 z "},"®":{"ha":854,"x_min":68,"x_max":787,"o":"m 427 297 q 247 345 330 297 q 116 476 164 393 q 68 657 68 559 q 116 838 68 755 q 247 969 164 921 q 427 1017 330 1017 q 608 969 526 1017 q 739 838 691 921 q 787 657 787 755 q 739 476 787 559 q 608 345 691 393 q 427 297 526 297 m 427 389 q 618 468 540 389 q 696 657 696 546 q 618 847 696 769 q 427 925 540 925 q 237 847 315 925 q 158 657 158 769 q 237 468 158 546 q 427 389 315 389 m 370 497 l 286 497 l 286 827 l 459 827 q 547 798 513 827 q 581 722 581 769 q 563 657 581 684 q 511 621 545 631 l 597 497 l 496 497 l 421 609 l 370 609 l 370 497 m 370 757 l 370 675 l 437 675 q 490 715 490 675 q 439 757 490 757 l 370 757 z "},"¯":{"ha":711,"x_min":106,"x_max":605,"o":"m 605 1015 l 605 892 l 106 892 l 106 1015 l 605 1015 z "},"°":{"ha":627,"x_min":69,"x_max":557,"o":"m 488 574 q 453 538 488 574 q 313 503 418 503 q 139 574 209 503 q 69 747 69 644 q 139 921 69 850 q 313 991 209 991 q 488 921 418 991 q 557 747 557 850 q 488 574 557 644 m 224 658 q 241 640 224 658 q 313 623 258 623 q 403 658 368 623 q 437 747 437 694 q 403 836 437 801 q 313 871 368 871 q 224 836 258 871 q 190 747 190 801 q 224 658 190 694 z "},"±":{"ha":960,"x_min":141,"x_max":819,"o":"m 817 48 l 141 48 l 141 201 l 817 201 l 817 48 m 564 441 l 564 282 l 395 282 l 395 441 l 141 441 l 141 593 l 395 593 l 395 751 l 564 751 l 564 593 l 819 593 l 819 441 l 564 441 z "},"²":{"ha":620,"x_min":54,"x_max":560,"o":"m 54 1038 q 123 1195 54 1136 q 307 1255 193 1255 q 484 1202 418 1255 q 550 1063 550 1150 q 513 949 550 1002 q 388 830 476 895 l 311 764 l 311 752 l 560 752 l 560 608 l 67 608 l 67 736 l 255 898 q 351 987 328 958 q 374 1046 374 1017 q 353 1094 374 1075 q 299 1112 332 1112 q 242 1092 264 1112 q 220 1038 220 1072 l 220 1034 l 54 1034 l 54 1038 z "},"³":{"ha":644,"x_min":58,"x_max":587,"o":"m 240 867 l 240 987 l 317 987 q 374 1004 353 987 q 395 1050 395 1021 q 373 1095 395 1078 q 315 1112 351 1112 q 254 1093 277 1112 q 229 1042 231 1074 l 64 1042 q 134 1195 64 1138 q 319 1253 203 1253 q 496 1204 429 1253 q 564 1078 564 1156 q 531 986 564 1025 q 444 939 498 948 l 444 926 q 548 882 510 921 q 587 782 587 842 q 512 643 587 696 q 319 589 438 589 q 129 648 200 589 q 58 806 58 707 l 224 806 q 251 754 226 773 q 317 734 277 734 q 382 753 357 734 q 406 802 406 772 q 383 850 406 833 q 318 867 360 867 l 240 867 z "},"´":{"ha":745,"x_min":176,"x_max":553,"o":"m 359 869 l 176 869 l 344 1108 l 553 1108 l 359 869 z "},"µ":{"ha":926,"x_min":99,"x_max":873,"o":"m 99 -248 l 99 748 l 296 748 l 296 311 q 433 155 296 155 q 538 199 498 155 q 578 315 578 243 l 578 748 l 776 748 l 776 233 q 789 167 776 185 q 836 149 803 149 q 873 155 849 149 l 873 5 q 785 -7 831 -7 q 664 22 706 -7 q 604 120 621 52 l 602 130 l 589 130 q 424 -16 559 -16 q 309 37 341 -16 l 296 37 l 296 -248 l 99 -248 z "},"¶":{"ha":1072,"x_min":96,"x_max":960,"o":"m 655 -176 l 465 -176 l 465 300 l 452 300 q 198 397 300 300 q 96 637 96 494 q 196 882 96 785 q 452 979 296 979 l 655 979 l 655 -176 m 770 -176 l 770 979 l 960 979 l 960 -176 l 770 -176 z "},"·":{"ha":490,"x_min":123,"x_max":368,"o":"m 334 411 q 317 394 334 411 q 245 377 300 377 q 157 411 191 377 q 123 497 123 445 q 157 584 123 550 q 245 617 191 617 q 334 584 300 617 q 368 497 368 550 q 334 411 368 445 z "},"¸":{"ha":745,"x_min":249,"x_max":530,"o":"m 275 -161 l 275 -82 l 318 18 l 427 18 l 427 0 l 397 -73 q 495 -107 461 -77 q 530 -193 530 -138 q 482 -296 530 -259 q 349 -332 435 -332 q 249 -320 290 -332 l 249 -229 q 328 -239 277 -239 q 404 -199 404 -239 q 383 -170 404 -178 q 315 -161 362 -161 l 275 -161 z "},"¹":{"ha":516,"x_min":59,"x_max":399,"o":"m 218 608 l 218 1068 l 206 1068 q 131 1019 201 1065 q 59 972 60 973 l 59 1132 q 216 1237 121 1178 l 399 1237 l 399 608 l 218 608 z "},"º":{"ha":751,"x_min":64,"x_max":686,"o":"m 375 337 q 147 424 229 337 q 64 665 64 511 q 148 904 64 816 q 375 991 231 991 q 603 904 520 991 q 686 665 686 817 q 604 424 686 510 q 375 337 522 337 m 282 529 q 298 505 282 529 q 375 481 315 481 q 468 529 435 481 q 501 665 501 577 q 468 799 501 751 q 375 847 435 847 q 282 799 315 847 q 249 665 249 751 q 282 529 249 577 z "},"»":{"ha":981,"x_min":107,"x_max":874,"o":"m 342 388 l 107 665 l 291 665 l 528 387 l 528 381 l 294 102 l 107 102 l 342 380 l 342 388 m 689 388 l 454 665 l 637 665 l 874 387 l 874 381 l 641 102 l 454 102 l 689 380 l 689 388 z "},"¼":{"ha":1520,"x_min":59,"x_max":1461,"o":"m 218 349 l 218 810 l 206 810 q 131 761 201 807 q 59 714 60 715 l 59 873 q 216 979 121 920 l 399 979 l 399 349 l 218 349 m 572 0 l 386 0 l 653 508 l 860 979 l 1046 979 l 775 475 l 572 0 m 1220 0 l 1220 91 l 894 91 l 894 236 q 979 388 927 304 q 1137 629 1031 473 l 1386 629 l 1386 231 l 1461 231 l 1461 98 l 1380 98 l 1380 0 l 1220 0 m 1048 229 l 1048 227 l 1221 227 l 1221 493 l 1211 493 q 1048 229 1082 293 z "},"½":{"ha":1521,"x_min":59,"x_max":1462,"o":"m 218 349 l 218 810 l 206 810 q 131 761 201 807 q 59 714 60 715 l 59 873 q 216 979 121 920 l 399 979 l 399 349 l 218 349 m 572 0 l 386 0 l 653 508 l 860 979 l 1046 979 l 775 475 l 572 0 m 956 430 q 1025 588 956 528 q 1209 647 1095 647 q 1386 595 1320 647 q 1452 455 1452 543 q 1415 341 1452 395 q 1290 222 1378 288 l 1213 157 l 1213 144 l 1462 144 l 1462 0 l 969 0 l 969 128 l 1157 290 q 1253 380 1230 351 q 1276 438 1276 409 q 1255 486 1276 467 q 1201 505 1234 505 q 1144 484 1166 505 q 1122 431 1122 464 l 1122 427 l 956 427 l 956 430 z "},"¾":{"ha":1629,"x_min":58,"x_max":1569,"o":"m 240 608 l 240 728 l 317 728 q 374 746 353 728 q 395 792 395 763 q 373 837 395 819 q 315 854 351 854 q 254 835 277 854 q 229 783 231 816 l 64 783 q 134 937 64 880 q 319 994 203 994 q 496 946 429 994 q 564 820 564 898 q 531 728 564 766 q 444 681 498 690 l 444 668 q 548 623 510 663 q 587 524 587 584 q 512 384 587 437 q 319 331 438 331 q 129 390 200 331 q 58 548 58 449 l 224 548 q 251 495 226 515 q 317 476 277 476 q 382 495 357 476 q 406 543 406 513 q 383 591 406 574 q 318 608 360 608 l 240 608 m 680 0 l 494 0 l 762 508 l 968 979 l 1154 979 l 884 475 l 680 0 m 1329 0 l 1329 91 l 1002 91 l 1002 236 q 1087 388 1036 304 q 1246 629 1139 473 l 1495 629 l 1495 231 l 1569 231 l 1569 98 l 1489 98 l 1489 0 l 1329 0 m 1157 229 l 1157 227 l 1329 227 l 1329 493 l 1320 493 q 1157 229 1190 293 z "},"¿":{"ha":774,"x_min":70,"x_max":722,"o":"m 722 59 q 632 -149 719 -71 q 393 -227 545 -227 q 159 -154 248 -227 q 70 38 70 -81 q 106 168 70 113 q 215 267 142 223 q 307 337 283 307 q 330 417 330 368 l 330 453 l 509 453 l 511 416 q 489 284 517 336 q 389 191 460 233 q 299 121 323 152 q 275 44 275 90 q 311 -34 275 -4 q 404 -64 347 -64 q 498 -31 462 -64 q 537 59 534 3 l 722 59 m 413 550 q 323 581 356 550 q 290 665 290 612 q 323 750 290 719 q 413 781 356 781 q 504 750 471 781 q 536 665 536 719 q 504 581 536 612 q 413 550 471 550 z "},"À":{"ha":1017,"x_min":49,"x_max":969,"o":"m 747 0 l 673 233 l 330 233 l 254 0 l 49 0 l 389 979 l 629 979 l 969 0 l 747 0 m 496 775 l 374 391 l 630 391 l 509 775 l 496 775 m 422 1078 l 210 1294 l 423 1294 l 610 1078 l 422 1078 z "},"Á":{"ha":1017,"x_min":49,"x_max":969,"o":"m 747 0 l 673 233 l 330 233 l 254 0 l 49 0 l 389 979 l 629 979 l 969 0 l 747 0 m 496 775 l 374 391 l 630 391 l 509 775 l 496 775 m 602 1078 l 413 1078 l 601 1294 l 814 1294 l 602 1078 z "},"Â":{"ha":1017,"x_min":49,"x_max":969,"o":"m 747 0 l 673 233 l 330 233 l 254 0 l 49 0 l 389 979 l 629 979 l 969 0 l 747 0 m 496 775 l 374 391 l 630 391 l 509 775 l 496 775 m 416 1305 l 601 1305 l 793 1078 l 614 1078 l 515 1205 l 503 1205 l 404 1078 l 224 1078 l 416 1305 z "},"Ã":{"ha":1017,"x_min":49,"x_max":969,"o":"m 747 0 l 673 233 l 330 233 l 254 0 l 49 0 l 389 979 l 629 979 l 969 0 l 747 0 m 496 775 l 374 391 l 630 391 l 509 775 l 496 775 m 608 1066 q 554 1076 579 1066 q 512 1101 529 1086 q 479 1129 494 1115 q 449 1154 464 1143 q 419 1164 433 1164 q 359 1068 361 1164 l 233 1068 q 281 1226 233 1166 q 410 1286 330 1286 q 463 1276 438 1286 q 506 1251 488 1265 q 538 1223 523 1237 q 569 1198 553 1208 q 598 1188 584 1188 q 658 1282 657 1188 l 785 1282 q 736 1125 785 1184 q 608 1066 688 1066 z "},"Ä":{"ha":1017,"x_min":49,"x_max":969,"o":"m 747 0 l 673 233 l 330 233 l 254 0 l 49 0 l 389 979 l 629 979 l 969 0 l 747 0 m 496 775 l 374 391 l 630 391 l 509 775 l 496 775 m 425 1100 q 410 1085 425 1100 q 350 1071 395 1071 q 275 1100 304 1071 q 245 1174 245 1129 q 274 1247 245 1219 q 350 1276 304 1276 q 426 1247 396 1276 q 455 1174 455 1219 q 425 1100 455 1129 m 667 1071 q 592 1100 622 1071 q 562 1174 562 1129 q 592 1247 562 1219 q 667 1276 622 1276 q 743 1247 713 1276 q 773 1174 773 1219 q 743 1100 773 1129 q 667 1071 713 1071 z "},"Å":{"ha":1017,"x_min":49,"x_max":969,"o":"m 747 0 l 673 233 l 330 233 l 254 0 l 49 0 l 389 979 l 629 979 l 969 0 l 747 0 m 496 775 l 374 391 l 630 391 l 509 775 l 496 775 m 509 1048 q 409 1087 449 1048 q 370 1184 370 1125 q 409 1281 370 1242 q 509 1319 449 1319 q 608 1281 568 1319 q 648 1184 648 1242 q 608 1087 648 1125 q 509 1048 568 1048 m 509 1120 q 555 1138 537 1120 q 573 1183 573 1156 q 555 1229 573 1211 q 509 1247 536 1247 q 463 1229 481 1247 q 444 1183 444 1211 q 463 1138 444 1156 q 509 1120 481 1120 z "},"Æ":{"ha":1396,"x_min":49,"x_max":1300,"o":"m 584 815 l 415 406 l 671 406 l 671 815 l 584 815 m 671 0 l 671 247 l 356 247 l 252 0 l 49 0 l 452 979 l 1300 979 l 1300 804 l 859 804 l 859 572 l 1275 572 l 1275 410 l 859 410 l 859 175 l 1300 175 l 1300 0 l 671 0 z "},"Ç":{"ha":1029,"x_min":75,"x_max":960,"o":"m 760 332 l 960 332 q 847 90 948 186 q 589 -22 745 -7 l 568 -73 q 667 -107 633 -76 q 701 -193 701 -138 q 654 -295 701 -258 q 520 -332 606 -332 q 420 -319 462 -332 l 420 -229 q 499 -238 449 -238 q 575 -198 575 -238 q 554 -169 575 -178 q 487 -160 534 -160 l 446 -160 l 446 -81 l 472 -22 q 181 134 286 -1 q 75 490 75 269 q 198 866 75 728 q 534 1004 321 1004 q 828 900 708 1004 q 959 637 947 797 l 760 637 q 683 772 745 722 q 534 823 622 823 q 352 734 419 823 q 285 490 285 644 q 352 245 285 335 q 535 155 419 155 q 684 203 623 155 q 760 332 745 252 z "},"È":{"ha":864,"x_min":119,"x_max":767,"o":"m 767 175 l 767 0 l 119 0 l 119 979 l 767 979 l 767 804 l 323 804 l 323 575 l 742 575 l 742 413 l 323 413 l 323 175 l 767 175 m 357 1078 l 144 1294 l 357 1294 l 545 1078 l 357 1078 z "},"É":{"ha":864,"x_min":119,"x_max":767,"o":"m 767 175 l 767 0 l 119 0 l 119 979 l 767 979 l 767 804 l 323 804 l 323 575 l 742 575 l 742 413 l 323 413 l 323 175 l 767 175 m 536 1078 l 347 1078 l 535 1294 l 749 1294 l 536 1078 z "},"Ê":{"ha":864,"x_min":119,"x_max":767,"o":"m 767 175 l 767 0 l 119 0 l 119 979 l 767 979 l 767 804 l 323 804 l 323 575 l 742 575 l 742 413 l 323 413 l 323 175 l 767 175 m 351 1305 l 535 1305 l 728 1078 l 548 1078 l 449 1205 l 437 1205 l 338 1078 l 158 1078 l 351 1305 z "},"Ë":{"ha":864,"x_min":119,"x_max":767,"o":"m 767 175 l 767 0 l 119 0 l 119 979 l 767 979 l 767 804 l 323 804 l 323 575 l 742 575 l 742 413 l 323 413 l 323 175 l 767 175 m 359 1100 q 345 1085 359 1100 q 284 1071 330 1071 q 209 1100 239 1071 q 179 1174 179 1129 q 209 1247 179 1219 q 284 1276 238 1276 q 360 1247 330 1276 q 389 1174 389 1219 q 359 1100 389 1129 m 602 1071 q 526 1100 556 1071 q 496 1174 496 1129 q 526 1247 496 1219 q 602 1276 556 1276 q 677 1247 648 1276 q 707 1174 707 1219 q 677 1100 707 1129 q 602 1071 648 1071 z "},"Ì":{"ha":442,"x_min":-78,"x_max":323,"o":"m 323 0 l 119 0 l 119 979 l 323 979 l 323 0 m 135 1078 l -78 1294 l 136 1294 l 323 1078 l 135 1078 z "},"Í":{"ha":442,"x_min":119,"x_max":527,"o":"m 323 0 l 119 0 l 119 979 l 323 979 l 323 0 m 314 1078 l 125 1078 l 313 1294 l 527 1294 l 314 1078 z "},"Î":{"ha":442,"x_min":-64,"x_max":506,"o":"m 323 0 l 119 0 l 119 979 l 323 979 l 323 0 m 129 1305 l 313 1305 l 506 1078 l 326 1078 l 227 1205 l 215 1205 l 116 1078 l -64 1078 l 129 1305 z "},"Ï":{"ha":442,"x_min":-43,"x_max":486,"o":"m 323 0 l 119 0 l 119 979 l 323 979 l 323 0 m 138 1100 q 123 1085 138 1100 q 62 1071 108 1071 q -13 1100 17 1071 q -43 1174 -43 1129 q -13 1247 -43 1219 q 62 1276 16 1276 q 138 1247 109 1276 q 168 1174 168 1219 q 138 1100 168 1129 m 380 1071 q 304 1100 334 1071 q 275 1174 275 1129 q 304 1247 275 1219 q 380 1276 334 1276 q 456 1247 426 1276 q 486 1174 486 1219 q 456 1100 486 1129 q 380 1071 426 1071 z "},"Ð":{"ha":1038,"x_min":34,"x_max":963,"o":"m 323 175 l 471 175 q 681 257 608 175 q 754 493 754 338 q 680 723 754 641 q 471 804 605 804 l 323 804 l 323 573 l 478 573 l 478 419 l 323 419 l 323 175 m 119 979 l 504 979 q 843 853 722 979 q 963 496 963 726 q 843 129 963 258 q 504 0 724 0 l 119 0 l 119 419 l 34 419 l 34 573 l 119 573 l 119 979 z "},"Ñ":{"ha":1067,"x_min":119,"x_max":948,"o":"m 315 0 l 119 0 l 119 979 l 290 979 l 740 369 l 752 369 l 752 979 l 948 979 l 948 0 l 779 0 l 327 612 l 315 612 l 315 0 m 630 1066 q 576 1076 602 1066 q 534 1101 551 1086 q 502 1129 517 1115 q 471 1154 486 1143 q 441 1164 456 1164 q 382 1068 383 1164 l 255 1068 q 303 1226 255 1166 q 432 1286 352 1286 q 486 1276 460 1286 q 528 1251 511 1265 q 561 1223 545 1237 q 591 1198 576 1208 q 621 1188 606 1188 q 680 1282 680 1188 l 807 1282 q 759 1125 807 1184 q 630 1066 710 1066 z "},"Ò":{"ha":1092,"x_min":75,"x_max":1017,"o":"m 547 1004 q 890 865 764 1004 q 1017 490 1017 727 q 890 113 1017 252 q 547 -25 764 -25 q 202 113 329 -25 q 75 490 75 252 q 203 865 75 727 q 547 1004 330 1004 m 737 733 q 701 779 737 733 q 547 824 666 824 q 356 733 427 824 q 285 490 285 643 q 356 245 285 336 q 547 155 427 155 q 737 245 666 155 q 808 490 808 336 q 737 733 808 643 m 460 1078 l 248 1294 l 461 1294 l 648 1078 l 460 1078 z "},"Ó":{"ha":1092,"x_min":75,"x_max":1017,"o":"m 547 1004 q 890 865 764 1004 q 1017 490 1017 727 q 890 113 1017 252 q 547 -25 764 -25 q 202 113 329 -25 q 75 490 75 252 q 203 865 75 727 q 547 1004 330 1004 m 737 733 q 701 779 737 733 q 547 824 666 824 q 356 733 427 824 q 285 490 285 643 q 356 245 285 336 q 547 155 427 155 q 737 245 666 155 q 808 490 808 336 q 737 733 808 643 m 640 1078 l 451 1078 l 639 1294 l 852 1294 l 640 1078 z "},"Ô":{"ha":1092,"x_min":75,"x_max":1017,"o":"m 547 1004 q 890 865 764 1004 q 1017 490 1017 727 q 890 113 1017 252 q 547 -25 764 -25 q 202 113 329 -25 q 75 490 75 252 q 203 865 75 727 q 547 1004 330 1004 m 737 733 q 701 779 737 733 q 547 824 666 824 q 356 733 427 824 q 285 490 285 643 q 356 245 285 336 q 547 155 427 155 q 737 245 666 155 q 808 490 808 336 q 737 733 808 643 m 454 1305 l 639 1305 l 831 1078 l 652 1078 l 553 1205 l 541 1205 l 441 1078 l 262 1078 l 454 1305 z "},"Õ":{"ha":1092,"x_min":75,"x_max":1017,"o":"m 547 1004 q 890 865 764 1004 q 1017 490 1017 727 q 890 113 1017 252 q 547 -25 764 -25 q 202 113 329 -25 q 75 490 75 252 q 203 865 75 727 q 547 1004 330 1004 m 737 733 q 701 779 737 733 q 547 824 666 824 q 356 733 427 824 q 285 490 285 643 q 356 245 285 336 q 547 155 427 155 q 737 245 666 155 q 808 490 808 336 q 737 733 808 643 m 646 1066 q 592 1076 617 1066 q 550 1101 567 1086 q 517 1129 532 1115 q 487 1154 502 1143 q 457 1164 471 1164 q 397 1068 399 1164 l 271 1068 q 319 1226 271 1166 q 448 1286 368 1286 q 501 1276 476 1286 q 544 1251 526 1265 q 576 1223 561 1237 q 607 1198 591 1208 q 636 1188 622 1188 q 696 1282 695 1188 l 823 1282 q 774 1125 823 1184 q 646 1066 726 1066 z "},"Ö":{"ha":1092,"x_min":75,"x_max":1017,"o":"m 547 1004 q 890 865 764 1004 q 1017 490 1017 727 q 890 113 1017 252 q 547 -25 764 -25 q 202 113 329 -25 q 75 490 75 252 q 203 865 75 727 q 547 1004 330 1004 m 737 733 q 701 779 737 733 q 547 824 666 824 q 356 733 427 824 q 285 490 285 643 q 356 245 285 336 q 547 155 427 155 q 737 245 666 155 q 808 490 808 336 q 737 733 808 643 m 463 1100 q 448 1085 463 1100 q 388 1071 433 1071 q 313 1100 342 1071 q 283 1174 283 1129 q 312 1247 283 1219 q 388 1276 342 1276 q 464 1247 434 1276 q 493 1174 493 1219 q 463 1100 493 1129 m 705 1071 q 630 1100 660 1071 q 600 1174 600 1129 q 630 1247 600 1219 q 705 1276 660 1276 q 781 1247 751 1276 q 811 1174 811 1219 q 781 1100 811 1129 q 705 1071 751 1071 z "},"×":{"ha":960,"x_min":155,"x_max":805,"o":"m 480 273 l 273 66 l 155 190 l 361 396 l 155 603 l 273 726 l 480 520 l 686 726 l 805 603 l 599 396 l 805 190 l 686 66 l 480 273 z "},"Ø":{"ha":1080,"x_min":75,"x_max":1017,"o":"m 744 724 l 398 203 q 547 155 461 155 q 737 245 666 155 q 808 490 808 336 q 744 724 808 636 m 341 266 l 684 783 q 547 824 625 824 q 356 733 427 824 q 285 490 285 643 q 341 266 285 353 m 916 982 l 859 896 q 976 726 935 829 q 1017 490 1017 622 q 890 113 1017 252 q 547 -25 764 -25 q 291 41 399 -25 l 233 -46 l 164 -1 l 225 90 q 114 259 153 158 q 75 490 75 361 q 203 865 75 727 q 547 1004 330 1004 q 791 944 687 1004 l 842 1022 l 916 982 z "},"Ù":{"ha":1061,"x_min":121,"x_max":941,"o":"m 326 979 l 326 359 q 379 211 326 265 q 530 157 433 157 q 682 211 628 157 q 736 359 736 265 l 736 979 l 941 979 l 941 338 q 829 75 941 174 q 530 -25 718 -25 q 232 75 344 -25 q 121 338 121 174 l 121 979 l 326 979 m 444 1078 l 231 1294 l 445 1294 l 632 1078 l 444 1078 z "},"Ú":{"ha":1061,"x_min":121,"x_max":941,"o":"m 326 979 l 326 359 q 379 211 326 265 q 530 157 433 157 q 682 211 628 157 q 736 359 736 265 l 736 979 l 941 979 l 941 338 q 829 75 941 174 q 530 -25 718 -25 q 232 75 344 -25 q 121 338 121 174 l 121 979 l 326 979 m 623 1078 l 435 1078 l 623 1294 l 836 1294 l 623 1078 z "},"Û":{"ha":1061,"x_min":121,"x_max":941,"o":"m 326 979 l 326 359 q 379 211 326 265 q 530 157 433 157 q 682 211 628 157 q 736 359 736 265 l 736 979 l 941 979 l 941 338 q 829 75 941 174 q 530 -25 718 -25 q 232 75 344 -25 q 121 338 121 174 l 121 979 l 326 979 m 438 1305 l 623 1305 l 815 1078 l 635 1078 l 536 1205 l 524 1205 l 425 1078 l 245 1078 l 438 1305 z "},"Ü":{"ha":1061,"x_min":121,"x_max":941,"o":"m 326 979 l 326 359 q 379 211 326 265 q 530 157 433 157 q 682 211 628 157 q 736 359 736 265 l 736 979 l 941 979 l 941 338 q 829 75 941 174 q 530 -25 718 -25 q 232 75 344 -25 q 121 338 121 174 l 121 979 l 326 979 m 447 1100 q 432 1085 447 1100 q 372 1071 417 1071 q 296 1100 326 1071 q 267 1174 267 1129 q 296 1247 267 1219 q 372 1276 326 1276 q 447 1247 418 1276 q 477 1174 477 1219 q 447 1100 477 1129 m 689 1071 q 614 1100 644 1071 q 584 1174 584 1129 q 614 1247 584 1219 q 689 1276 644 1276 q 765 1247 735 1276 q 795 1174 795 1219 q 765 1100 795 1129 q 689 1071 735 1071 z "},"Ý":{"ha":985,"x_min":49,"x_max":935,"o":"m 595 0 l 390 0 l 390 360 l 49 979 l 271 979 l 486 569 l 498 569 l 713 979 l 935 979 l 595 360 l 595 0 m 585 1078 l 397 1078 l 585 1294 l 798 1294 l 585 1078 z "},"Þ":{"ha":935,"x_min":119,"x_max":855,"o":"m 119 979 l 325 979 l 325 821 l 533 821 q 765 736 675 821 q 855 508 855 652 q 762 280 855 365 q 523 195 668 195 l 323 195 l 323 0 l 119 0 l 119 979 m 323 653 l 323 361 l 477 361 q 602 399 556 361 q 647 508 647 437 q 602 616 647 578 q 477 653 557 653 l 323 653 z "},"ß":{"ha":951,"x_min":130,"x_max":884,"o":"m 327 0 l 130 0 l 130 732 q 222 931 130 858 q 469 1004 314 1004 q 711 933 618 1004 q 804 749 804 862 q 763 608 804 668 q 656 530 722 549 l 656 517 q 821 445 759 511 q 884 272 884 378 q 794 67 884 145 q 555 -10 705 -10 q 432 1 477 -10 l 432 164 q 519 152 469 152 q 640 188 597 152 q 683 284 683 223 q 634 381 683 346 q 497 417 585 417 l 448 417 l 448 583 l 481 583 q 577 618 541 583 q 612 713 612 652 q 575 804 612 770 q 473 839 537 839 q 365 801 402 839 q 327 690 327 762 l 327 0 z "},"à":{"ha":819,"x_min":59,"x_max":724,"o":"m 369 137 q 484 176 437 137 q 530 271 530 214 l 530 326 l 378 317 q 252 227 252 308 q 284 161 252 185 q 369 137 317 137 m 304 -12 q 127 50 195 -12 q 59 214 59 112 q 134 373 59 315 q 349 439 209 431 l 530 450 l 530 511 q 497 583 530 557 q 404 608 465 608 q 269 539 294 608 l 87 539 q 185 704 96 643 q 414 764 273 764 q 643 698 562 764 q 724 511 724 631 l 724 0 l 533 0 l 533 98 l 521 98 q 434 17 492 46 q 304 -12 376 -12 m 522 869 l 340 869 l 145 1108 l 355 1108 l 522 869 z "},"á":{"ha":819,"x_min":59,"x_max":724,"o":"m 369 137 q 484 176 437 137 q 530 271 530 214 l 530 326 l 378 317 q 252 227 252 308 q 284 161 252 185 q 369 137 317 137 m 304 -12 q 127 50 195 -12 q 59 214 59 112 q 134 373 59 315 q 349 439 209 431 l 530 450 l 530 511 q 497 583 530 557 q 404 608 465 608 q 269 539 294 608 l 87 539 q 185 704 96 643 q 414 764 273 764 q 643 698 562 764 q 724 511 724 631 l 724 0 l 533 0 l 533 98 l 521 98 q 434 17 492 46 q 304 -12 376 -12 m 492 869 l 309 869 l 477 1108 l 686 1108 l 492 869 z "},"â":{"ha":819,"x_min":59,"x_max":724,"o":"m 369 137 q 484 176 437 137 q 530 271 530 214 l 530 326 l 378 317 q 252 227 252 308 q 284 161 252 185 q 369 137 317 137 m 304 -12 q 127 50 195 -12 q 59 214 59 112 q 134 373 59 315 q 349 439 209 431 l 530 450 l 530 511 q 497 583 530 557 q 404 608 465 608 q 269 539 294 608 l 87 539 q 185 704 96 643 q 414 764 273 764 q 643 698 562 764 q 724 511 724 631 l 724 0 l 533 0 l 533 98 l 521 98 q 434 17 492 46 q 304 -12 376 -12 m 513 1088 l 699 848 l 521 848 l 420 990 l 408 990 l 307 848 l 129 848 l 315 1088 l 513 1088 z "},"ã":{"ha":819,"x_min":59,"x_max":724,"o":"m 369 137 q 484 176 437 137 q 530 271 530 214 l 530 326 l 378 317 q 252 227 252 308 q 284 161 252 185 q 369 137 317 137 m 304 -12 q 127 50 195 -12 q 59 214 59 112 q 134 373 59 315 q 349 439 209 431 l 530 450 l 530 511 q 497 583 530 557 q 404 608 465 608 q 269 539 294 608 l 87 539 q 185 704 96 643 q 414 764 273 764 q 643 698 562 764 q 724 511 724 631 l 724 0 l 533 0 l 533 98 l 521 98 q 434 17 492 46 q 304 -12 376 -12 m 517 850 q 463 860 488 850 q 421 884 438 870 q 388 913 404 899 q 358 937 373 927 q 328 947 342 947 q 269 852 270 947 l 142 852 q 190 1010 142 950 q 319 1069 239 1069 q 372 1059 347 1069 q 415 1035 397 1049 q 447 1006 432 1021 q 478 982 463 992 q 507 972 493 972 q 567 1065 566 972 l 694 1065 q 645 909 694 968 q 517 850 597 850 z "},"ä":{"ha":819,"x_min":59,"x_max":724,"o":"m 369 137 q 484 176 437 137 q 530 271 530 214 l 530 326 l 378 317 q 252 227 252 308 q 284 161 252 185 q 369 137 317 137 m 304 -12 q 127 50 195 -12 q 59 214 59 112 q 134 373 59 315 q 349 439 209 431 l 530 450 l 530 511 q 497 583 530 557 q 404 608 465 608 q 269 539 294 608 l 87 539 q 185 704 96 643 q 414 764 273 764 q 643 698 562 764 q 724 511 724 631 l 724 0 l 533 0 l 533 98 l 521 98 q 434 17 492 46 q 304 -12 376 -12 m 331 878 q 316 863 331 878 q 256 848 301 848 q 180 878 210 848 q 151 951 151 907 q 180 1025 151 996 q 256 1054 210 1054 q 331 1025 302 1054 q 361 951 361 996 q 331 878 361 907 m 573 848 q 498 878 528 848 q 468 951 468 907 q 498 1025 468 996 q 573 1054 528 1054 q 649 1025 619 1054 q 679 951 679 996 q 649 878 679 907 q 573 848 619 848 z "},"å":{"ha":819,"x_min":59,"x_max":724,"o":"m 369 137 q 484 176 437 137 q 530 271 530 214 l 530 326 l 378 317 q 252 227 252 308 q 284 161 252 185 q 369 137 317 137 m 304 -12 q 127 50 195 -12 q 59 214 59 112 q 134 373 59 315 q 349 439 209 431 l 530 450 l 530 511 q 497 583 530 557 q 404 608 465 608 q 269 539 294 608 l 87 539 q 185 704 96 643 q 414 764 273 764 q 643 698 562 764 q 724 511 724 631 l 724 0 l 533 0 l 533 98 l 521 98 q 434 17 492 46 q 304 -12 376 -12 m 533 895 q 509 872 533 895 q 414 848 486 848 q 295 895 343 848 q 248 1012 248 941 q 295 1127 248 1081 q 414 1173 343 1173 q 533 1127 486 1173 q 581 1012 581 1082 q 533 895 581 941 m 363 960 q 373 950 363 960 q 414 941 383 941 q 466 961 446 941 q 486 1011 486 981 q 465 1061 486 1041 q 414 1081 445 1081 q 363 1061 383 1081 q 342 1011 342 1041 q 363 960 342 980 z "},"æ":{"ha":1284,"x_min":59,"x_max":1223,"o":"m 892 -16 q 732 20 804 -16 q 627 118 661 56 l 614 118 q 499 19 571 55 q 338 -16 428 -16 q 135 47 212 -16 q 59 214 59 111 q 134 373 59 315 q 349 439 209 431 l 530 450 l 530 499 q 496 581 530 553 q 404 608 463 608 q 269 539 294 608 l 87 539 q 181 701 96 638 q 393 764 267 764 q 635 657 564 764 l 648 657 q 750 735 687 706 q 889 764 814 764 q 1133 664 1044 764 q 1223 392 1223 564 l 1223 328 l 716 328 l 716 311 q 766 183 719 231 q 890 136 814 136 q 1034 213 995 136 l 1216 213 q 1107 45 1194 107 q 892 -16 1020 -16 m 877 613 q 764 569 808 613 q 716 454 720 526 l 1029 454 q 984 569 1027 525 q 877 613 942 613 m 372 135 q 486 174 442 135 q 530 269 530 214 l 530 326 l 378 317 q 252 225 252 308 q 285 159 252 183 q 372 135 318 135 z "},"ç":{"ha":816,"x_min":62,"x_max":761,"o":"m 761 484 l 576 484 q 528 571 566 539 q 428 602 490 602 q 305 544 348 602 q 262 376 262 486 q 305 205 262 264 q 428 146 348 146 q 527 175 489 146 q 576 259 566 204 l 761 259 q 678 74 750 146 q 487 -13 606 2 l 462 -73 q 561 -107 526 -76 q 595 -193 595 -138 q 547 -295 595 -258 q 414 -332 500 -332 q 314 -319 355 -332 l 314 -229 q 393 -238 342 -238 q 469 -198 469 -238 q 448 -169 469 -178 q 380 -160 427 -160 l 340 -160 l 340 -81 l 370 -13 q 142 104 222 3 q 62 376 62 204 q 157 663 62 562 q 428 764 252 764 q 662 689 574 764 q 761 484 749 614 z "},"è":{"ha":835,"x_min":62,"x_max":772,"o":"m 422 613 q 310 569 354 613 q 260 452 265 525 l 578 452 q 533 570 575 527 q 422 613 492 613 m 583 213 l 766 213 q 653 45 744 106 q 425 -16 562 -16 q 158 86 254 -16 q 62 370 62 188 q 159 659 62 553 q 422 764 255 764 q 680 665 587 764 q 772 387 772 565 l 772 326 l 259 326 l 259 316 q 307 184 261 233 q 430 136 353 136 q 528 156 488 136 q 583 213 567 176 m 530 869 l 347 869 l 153 1108 l 362 1108 l 530 869 z "},"é":{"ha":835,"x_min":62,"x_max":772,"o":"m 422 613 q 310 569 354 613 q 260 452 265 525 l 578 452 q 533 570 575 527 q 422 613 492 613 m 583 213 l 766 213 q 653 45 744 106 q 425 -16 562 -16 q 158 86 254 -16 q 62 370 62 188 q 159 659 62 553 q 422 764 255 764 q 680 665 587 764 q 772 387 772 565 l 772 326 l 259 326 l 259 316 q 307 184 261 233 q 430 136 353 136 q 528 156 488 136 q 583 213 567 176 m 499 869 l 317 869 l 484 1108 l 694 1108 l 499 869 z "},"ê":{"ha":835,"x_min":62,"x_max":772,"o":"m 422 613 q 310 569 354 613 q 260 452 265 525 l 578 452 q 533 570 575 527 q 422 613 492 613 m 583 213 l 766 213 q 653 45 744 106 q 425 -16 562 -16 q 158 86 254 -16 q 62 370 62 188 q 159 659 62 553 q 422 764 255 764 q 680 665 587 764 q 772 387 772 565 l 772 326 l 259 326 l 259 316 q 307 184 261 233 q 430 136 353 136 q 528 156 488 136 q 583 213 567 176 m 520 1088 l 707 848 l 528 848 l 428 990 l 416 990 l 315 848 l 136 848 l 323 1088 l 520 1088 z "},"ë":{"ha":835,"x_min":62,"x_max":772,"o":"m 422 613 q 310 569 354 613 q 260 452 265 525 l 578 452 q 533 570 575 527 q 422 613 492 613 m 583 213 l 766 213 q 653 45 744 106 q 425 -16 562 -16 q 158 86 254 -16 q 62 370 62 188 q 159 659 62 553 q 422 764 255 764 q 680 665 587 764 q 772 387 772 565 l 772 326 l 259 326 l 259 316 q 307 184 261 233 q 430 136 353 136 q 528 156 488 136 q 583 213 567 176 m 338 878 q 323 863 338 878 q 263 848 309 848 q 188 878 218 848 q 158 951 158 907 q 188 1025 158 996 q 263 1054 217 1054 q 339 1025 309 1054 q 368 951 368 996 q 338 878 368 907 m 581 848 q 505 878 535 848 q 475 951 475 907 q 505 1025 475 996 q 581 1054 535 1054 q 656 1025 627 1054 q 686 951 686 996 q 656 878 686 907 q 581 848 627 848 z "},"ì":{"ha":398,"x_min":-70,"x_max":307,"o":"m 100 0 l 100 748 l 298 748 l 298 0 l 100 0 m 307 869 l 125 869 l -70 1108 l 140 1108 l 307 869 z "},"í":{"ha":398,"x_min":94,"x_max":471,"o":"m 100 0 l 100 748 l 298 748 l 298 0 l 100 0 m 277 869 l 94 869 l 262 1108 l 471 1108 l 277 869 z "},"î":{"ha":398,"x_min":-86,"x_max":484,"o":"m 100 0 l 100 748 l 298 748 l 298 0 l 100 0 m 298 1088 l 484 848 l 306 848 l 205 990 l 193 990 l 92 848 l -86 848 l 100 1088 l 298 1088 z "},"ï":{"ha":398,"x_min":-64,"x_max":464,"o":"m 100 0 l 100 748 l 298 748 l 298 0 l 100 0 m 116 878 q 101 863 116 878 q 41 848 86 848 q -35 878 -5 848 q -64 951 -64 907 q -35 1025 -64 996 q 41 1054 -5 1054 q 116 1025 87 1054 q 146 951 146 996 q 116 878 146 907 m 358 848 q 283 878 313 848 q 253 951 253 907 q 283 1025 253 996 q 358 1054 313 1054 q 434 1025 404 1054 q 464 951 464 996 q 434 878 464 907 q 358 848 404 848 z "},"ð":{"ha":866,"x_min":66,"x_max":802,"o":"m 433 -12 q 166 91 267 -12 q 66 363 66 193 q 152 617 66 519 q 376 714 238 714 q 489 691 437 714 q 568 629 541 668 l 580 629 q 535 725 566 673 q 464 820 505 776 l 271 755 l 233 852 l 388 904 q 224 1028 335 951 l 470 1028 q 551 960 511 998 l 730 1021 l 769 924 l 630 878 q 758 659 714 779 q 802 410 802 539 q 701 103 802 218 q 433 -12 601 -12 m 437 572 q 314 515 359 572 q 269 362 269 458 q 314 210 269 266 q 437 153 359 153 q 562 210 516 153 q 607 362 607 266 q 561 515 607 458 q 437 572 515 572 z "},"ñ":{"ha":871,"x_min":99,"x_max":779,"o":"m 99 0 l 99 748 l 290 748 l 290 628 l 302 628 q 386 728 329 692 q 524 764 442 764 q 713 691 648 764 q 779 484 779 618 l 779 0 l 582 0 l 582 437 q 444 594 582 594 q 336 550 376 594 q 296 431 296 505 l 296 0 l 99 0 m 547 850 q 493 860 518 850 q 451 884 468 870 q 418 913 433 899 q 388 937 403 927 q 358 947 372 947 q 298 852 300 947 l 172 852 q 220 1010 172 950 q 349 1069 269 1069 q 402 1059 377 1069 q 445 1035 427 1049 q 477 1006 462 1021 q 508 982 492 992 q 537 972 523 972 q 597 1065 596 972 l 724 1065 q 675 909 724 968 q 547 850 627 850 z "},"ò":{"ha":861,"x_min":62,"x_max":799,"o":"m 701 87 q 652 36 701 87 q 431 -16 603 -16 q 160 87 258 -16 q 62 374 62 191 q 161 660 62 556 q 431 764 260 764 q 700 660 602 764 q 799 374 799 556 q 701 87 799 191 m 431 145 q 553 205 509 145 q 596 374 596 265 q 552 543 596 482 q 431 603 509 603 q 309 543 352 603 q 265 374 265 482 q 308 205 265 265 q 431 145 351 145 m 538 869 l 356 869 l 161 1108 l 371 1108 l 538 869 z "},"ó":{"ha":861,"x_min":62,"x_max":799,"o":"m 701 87 q 652 36 701 87 q 431 -16 603 -16 q 160 87 258 -16 q 62 374 62 191 q 161 660 62 556 q 431 764 260 764 q 700 660 602 764 q 799 374 799 556 q 701 87 799 191 m 431 145 q 553 205 509 145 q 596 374 596 265 q 552 543 596 482 q 431 603 509 603 q 309 543 352 603 q 265 374 265 482 q 308 205 265 265 q 431 145 351 145 m 508 869 l 326 869 l 493 1108 l 703 1108 l 508 869 z "},"ô":{"ha":861,"x_min":62,"x_max":799,"o":"m 701 87 q 652 36 701 87 q 431 -16 603 -16 q 160 87 258 -16 q 62 374 62 191 q 161 660 62 556 q 431 764 260 764 q 700 660 602 764 q 799 374 799 556 q 701 87 799 191 m 431 145 q 553 205 509 145 q 596 374 596 265 q 552 543 596 482 q 431 603 509 603 q 309 543 352 603 q 265 374 265 482 q 308 205 265 265 q 431 145 351 145 m 529 1088 l 715 848 l 537 848 l 437 990 l 425 990 l 323 848 l 145 848 l 332 1088 l 529 1088 z "},"õ":{"ha":861,"x_min":62,"x_max":799,"o":"m 701 87 q 652 36 701 87 q 431 -16 603 -16 q 160 87 258 -16 q 62 374 62 191 q 161 660 62 556 q 431 764 260 764 q 700 660 602 764 q 799 374 799 556 q 701 87 799 191 m 431 145 q 553 205 509 145 q 596 374 596 265 q 552 543 596 482 q 431 603 509 603 q 309 543 352 603 q 265 374 265 482 q 308 205 265 265 q 431 145 351 145 m 533 850 q 479 860 505 850 q 437 884 454 870 q 405 913 420 899 q 374 937 389 927 q 345 947 359 947 q 285 852 286 947 l 158 852 q 207 1010 158 950 q 335 1069 255 1069 q 389 1059 363 1069 q 431 1035 414 1049 q 464 1006 448 1021 q 494 982 479 992 q 524 972 509 972 q 583 1065 583 972 l 710 1065 q 662 909 710 968 q 533 850 613 850 z "},"ö":{"ha":861,"x_min":62,"x_max":799,"o":"m 701 87 q 652 36 701 87 q 431 -16 603 -16 q 160 87 258 -16 q 62 374 62 191 q 161 660 62 556 q 431 764 260 764 q 700 660 602 764 q 799 374 799 556 q 701 87 799 191 m 431 145 q 553 205 509 145 q 596 374 596 265 q 552 543 596 482 q 431 603 509 603 q 309 543 352 603 q 265 374 265 482 q 308 205 265 265 q 431 145 351 145 m 347 878 q 332 863 347 878 q 272 848 317 848 q 197 878 227 848 q 167 951 167 907 q 196 1025 167 996 q 272 1054 226 1054 q 348 1025 318 1054 q 377 951 377 996 q 347 878 377 907 m 589 848 q 514 878 544 848 q 484 951 484 907 q 514 1025 484 996 q 589 1054 544 1054 q 665 1025 635 1054 q 695 951 695 996 q 665 878 695 907 q 589 848 635 848 z "},"÷":{"ha":960,"x_min":114,"x_max":846,"o":"m 562 583 q 546 568 562 583 q 480 553 530 553 q 398 583 430 553 q 367 663 367 614 q 398 742 367 711 q 480 772 430 772 q 562 742 530 772 q 593 663 593 711 q 562 583 593 614 m 562 51 q 546 36 562 51 q 480 20 530 20 q 398 51 430 20 q 367 130 367 81 q 398 210 367 179 q 480 240 430 240 q 562 210 530 240 q 593 130 593 179 q 562 51 593 81 m 846 320 l 114 320 l 114 473 l 846 473 l 846 320 z "},"ø":{"ha":861,"x_min":62,"x_max":799,"o":"m 570 512 l 353 164 q 431 145 387 145 q 553 205 509 145 q 596 374 596 265 q 570 512 596 456 m 296 226 l 515 578 q 431 603 480 603 q 309 543 352 603 q 265 374 265 482 q 296 226 265 282 m 722 755 l 677 683 q 799 374 799 578 q 701 87 799 191 q 431 -16 603 -16 q 262 16 336 -16 l 220 -50 l 151 -7 l 191 58 q 62 374 62 162 q 161 660 62 556 q 431 764 260 764 q 608 727 530 764 l 650 795 l 722 755 z "},"ù":{"ha":875,"x_min":92,"x_max":776,"o":"m 776 748 l 776 0 l 585 0 l 585 120 l 572 120 q 354 -16 517 -16 q 162 57 233 -16 q 92 260 92 131 l 92 748 l 290 748 l 290 311 q 427 155 290 155 q 539 198 500 155 q 578 317 578 241 l 578 748 l 776 748 m 542 869 l 359 869 l 165 1108 l 374 1108 l 542 869 z "},"ú":{"ha":875,"x_min":92,"x_max":776,"o":"m 776 748 l 776 0 l 585 0 l 585 120 l 572 120 q 354 -16 517 -16 q 162 57 233 -16 q 92 260 92 131 l 92 748 l 290 748 l 290 311 q 427 155 290 155 q 539 198 500 155 q 578 317 578 241 l 578 748 l 776 748 m 511 869 l 329 869 l 496 1108 l 706 1108 l 511 869 z "},"û":{"ha":875,"x_min":92,"x_max":776,"o":"m 776 748 l 776 0 l 585 0 l 585 120 l 572 120 q 354 -16 517 -16 q 162 57 233 -16 q 92 260 92 131 l 92 748 l 290 748 l 290 311 q 427 155 290 155 q 539 198 500 155 q 578 317 578 241 l 578 748 l 776 748 m 532 1088 l 719 848 l 541 848 l 440 990 l 428 990 l 327 848 l 149 848 l 335 1088 l 532 1088 z "},"ü":{"ha":875,"x_min":92,"x_max":776,"o":"m 776 748 l 776 0 l 585 0 l 585 120 l 572 120 q 354 -16 517 -16 q 162 57 233 -16 q 92 260 92 131 l 92 748 l 290 748 l 290 311 q 427 155 290 155 q 539 198 500 155 q 578 317 578 241 l 578 748 l 776 748 m 351 878 q 336 863 351 878 q 275 848 321 848 q 200 878 230 848 q 170 951 170 907 q 200 1025 170 996 q 275 1054 229 1054 q 351 1025 321 1054 q 380 951 380 996 q 351 878 380 907 m 593 848 q 517 878 547 848 q 488 951 488 907 q 517 1025 488 996 q 593 1054 547 1054 q 669 1025 639 1054 q 699 951 699 996 q 669 878 699 907 q 593 848 639 848 z "},"ý":{"ha":829,"x_min":38,"x_max":791,"o":"m 192 -272 q 117 -270 129 -272 l 117 -111 q 161 -113 123 -113 q 250 -93 218 -113 q 294 -32 281 -74 l 300 -5 l 38 748 l 256 748 l 413 181 l 425 181 l 583 748 l 791 748 l 534 -12 q 409 -214 486 -155 q 192 -272 332 -272 m 495 869 l 313 869 l 480 1108 l 690 1108 l 495 869 z "},"þ":{"ha":908,"x_min":102,"x_max":840,"o":"m 536 760 q 759 658 678 760 q 840 374 840 555 q 759 91 840 194 q 538 -12 678 -12 q 399 22 458 -12 q 312 115 340 55 l 300 115 l 300 -234 l 102 -234 l 102 1022 l 297 1022 l 297 625 l 309 625 q 399 724 340 688 q 536 760 459 760 m 467 153 q 592 212 547 153 q 637 374 637 271 q 592 536 637 477 q 468 595 547 595 q 343 535 389 595 q 298 374 298 476 q 343 212 298 271 q 467 153 389 153 z "},"ÿ":{"ha":829,"x_min":38,"x_max":791,"o":"m 192 -272 q 117 -270 129 -272 l 117 -111 q 161 -113 123 -113 q 250 -93 218 -113 q 294 -32 281 -74 l 300 -5 l 38 748 l 256 748 l 413 181 l 425 181 l 583 748 l 791 748 l 534 -12 q 409 -214 486 -155 q 192 -272 332 -272 m 334 878 q 319 863 334 878 q 259 848 304 848 q 184 878 214 848 q 154 951 154 907 q 183 1025 154 996 q 259 1054 213 1054 q 335 1025 305 1054 q 364 951 364 996 q 334 878 364 907 m 576 848 q 501 878 531 848 q 471 951 471 907 q 501 1025 471 996 q 576 1054 531 1054 q 652 1025 623 1054 q 682 951 682 996 q 652 878 682 907 q 576 848 623 848 z "},"Ā":{"ha":1017,"x_min":49,"x_max":969,"o":"m 747 0 l 673 233 l 330 233 l 254 0 l 49 0 l 389 979 l 629 979 l 969 0 l 747 0 m 496 775 l 374 391 l 630 391 l 509 775 l 496 775 m 762 1230 l 762 1107 l 256 1107 l 256 1230 l 762 1230 z "},"ā":{"ha":819,"x_min":59,"x_max":724,"o":"m 369 137 q 484 176 437 137 q 530 271 530 214 l 530 326 l 378 317 q 252 227 252 308 q 284 161 252 185 q 369 137 317 137 m 304 -12 q 127 50 195 -12 q 59 214 59 112 q 134 373 59 315 q 349 439 209 431 l 530 450 l 530 511 q 497 583 530 557 q 404 608 465 608 q 269 539 294 608 l 87 539 q 185 704 96 643 q 414 764 273 764 q 643 698 562 764 q 724 511 724 631 l 724 0 l 533 0 l 533 98 l 521 98 q 434 17 492 46 q 304 -12 376 -12 m 664 1015 l 664 892 l 165 892 l 165 1015 l 664 1015 z "},"Ă":{"ha":1017,"x_min":49,"x_max":969,"o":"m 747 0 l 673 233 l 330 233 l 254 0 l 49 0 l 389 979 l 629 979 l 969 0 l 747 0 m 496 775 l 374 391 l 630 391 l 509 775 l 496 775 m 237 1299 l 378 1299 q 415 1218 380 1248 q 509 1187 450 1187 q 603 1218 568 1187 q 639 1299 637 1248 l 780 1299 q 706 1134 780 1197 q 509 1071 633 1071 q 311 1134 385 1071 q 237 1299 237 1197 z "},"ă":{"ha":819,"x_min":59,"x_max":724,"o":"m 369 137 q 484 176 437 137 q 530 271 530 214 l 530 326 l 378 317 q 252 227 252 308 q 284 161 252 185 q 369 137 317 137 m 304 -12 q 127 50 195 -12 q 59 214 59 112 q 134 373 59 315 q 349 439 209 431 l 530 450 l 530 511 q 497 583 530 557 q 404 608 465 608 q 269 539 294 608 l 87 539 q 185 704 96 643 q 414 764 273 764 q 643 698 562 764 q 724 511 724 631 l 724 0 l 533 0 l 533 98 l 521 98 q 434 17 492 46 q 304 -12 376 -12 m 143 1086 l 283 1086 q 319 999 285 1031 q 414 966 354 966 q 508 999 473 966 q 544 1086 543 1031 l 685 1086 q 611 915 685 981 q 414 848 538 848 q 216 915 290 848 q 143 1086 143 981 z "},"Ą":{"ha":1017,"x_min":49,"x_max":969,"o":"m 496 775 l 374 391 l 630 391 l 509 775 l 496 775 m 922 -302 q 828 -316 885 -316 q 693 -273 745 -316 q 642 -164 642 -231 q 671 -74 642 -117 q 749 -5 701 -31 l 673 233 l 330 233 l 254 0 l 49 0 l 389 979 l 629 979 l 969 0 l 935 -4 q 838 -51 880 -16 q 795 -129 795 -86 q 817 -177 795 -159 q 875 -194 838 -194 q 922 -189 907 -194 l 922 -302 z "},"ą":{"ha":819,"x_min":59,"x_max":724,"o":"m 369 137 q 484 176 437 137 q 530 271 530 214 l 530 326 l 378 317 q 252 227 252 308 q 284 161 252 186 q 369 137 316 137 m 700 -302 q 606 -316 661 -316 q 472 -274 524 -316 q 420 -164 420 -231 q 452 -71 420 -115 q 533 -4 484 -27 l 533 98 l 521 98 q 434 17 492 46 q 304 -12 376 -12 q 127 51 195 -12 q 59 214 59 113 q 134 373 59 315 q 349 439 208 431 l 530 450 l 530 511 q 497 583 530 557 q 404 608 464 608 q 269 539 294 608 l 87 539 q 185 704 96 643 q 414 764 273 764 q 643 698 562 764 q 724 511 724 631 l 724 0 l 700 -5 q 609 -53 645 -19 q 573 -129 573 -87 q 594 -176 573 -158 q 653 -194 615 -194 q 700 -189 687 -194 l 700 -302 z "},"Ć":{"ha":1029,"x_min":75,"x_max":960,"o":"m 534 -25 q 198 113 321 -25 q 75 490 75 251 q 198 866 75 728 q 534 1004 321 1004 q 828 900 708 1004 q 959 637 947 797 l 760 637 q 683 772 745 722 q 534 823 622 823 q 352 734 419 823 q 285 490 285 644 q 352 245 285 335 q 535 155 419 155 q 684 203 623 155 q 760 332 745 252 l 960 332 q 829 74 947 174 q 534 -25 711 -25 m 627 1079 l 439 1079 l 627 1295 l 840 1295 l 627 1079 z "},"ć":{"ha":816,"x_min":62,"x_max":761,"o":"m 761 484 l 576 484 q 528 571 566 539 q 428 602 490 602 q 305 544 348 602 q 262 376 262 486 q 305 205 262 264 q 428 146 348 146 q 527 175 489 146 q 576 259 566 204 l 761 259 q 661 58 749 132 q 428 -16 572 -16 q 158 86 253 -16 q 62 376 62 188 q 157 663 62 562 q 428 764 252 764 q 662 689 574 764 q 761 484 749 614 m 505 869 l 322 869 l 490 1108 l 699 1108 l 505 869 z "},"Ĉ":{"ha":1029,"x_min":75,"x_max":960,"o":"m 534 -25 q 198 113 321 -25 q 75 490 75 251 q 198 866 75 728 q 534 1004 321 1004 q 828 900 708 1004 q 959 637 947 797 l 760 637 q 683 772 745 722 q 534 823 622 823 q 352 734 419 823 q 285 490 285 644 q 352 245 285 335 q 535 155 419 155 q 684 203 623 155 q 760 332 745 252 l 960 332 q 829 74 947 174 q 534 -25 711 -25 m 442 1306 l 627 1306 l 819 1079 l 640 1079 l 541 1206 l 528 1206 l 429 1079 l 250 1079 l 442 1306 z "},"ĉ":{"ha":816,"x_min":62,"x_max":761,"o":"m 761 484 l 576 484 q 528 571 566 539 q 428 602 490 602 q 305 544 348 602 q 262 376 262 486 q 305 205 262 264 q 428 146 348 146 q 527 175 489 146 q 576 259 566 204 l 761 259 q 661 58 749 132 q 428 -16 572 -16 q 158 86 253 -16 q 62 376 62 188 q 157 663 62 562 q 428 764 252 764 q 662 689 574 764 q 761 484 749 614 m 526 1088 l 712 848 l 534 848 l 433 990 l 421 990 l 320 848 l 142 848 l 328 1088 l 526 1088 z "},"Ċ":{"ha":1029,"x_min":75,"x_max":960,"o":"m 534 -25 q 198 113 321 -25 q 75 490 75 251 q 198 866 75 728 q 534 1004 321 1004 q 828 900 708 1004 q 959 637 947 797 l 760 637 q 683 772 745 722 q 534 823 622 823 q 352 734 419 823 q 285 490 285 644 q 352 245 285 335 q 535 155 419 155 q 684 203 623 155 q 760 332 745 252 l 960 332 q 829 74 947 174 q 534 -25 711 -25 m 611 1102 q 596 1087 611 1102 q 534 1072 581 1072 q 457 1102 488 1072 q 427 1179 427 1133 q 457 1255 427 1225 q 534 1286 488 1286 q 611 1255 581 1286 q 641 1179 641 1225 q 611 1102 641 1133 z "},"ċ":{"ha":816,"x_min":62,"x_max":761,"o":"m 761 484 l 576 484 q 528 571 566 539 q 428 602 490 602 q 305 544 348 602 q 262 376 262 486 q 305 205 262 264 q 428 146 348 146 q 527 175 489 146 q 576 259 566 204 l 761 259 q 661 58 749 132 q 428 -16 572 -16 q 158 86 253 -16 q 62 376 62 188 q 157 663 62 562 q 428 764 252 764 q 662 689 574 764 q 761 484 749 614 m 506 898 q 490 882 506 898 q 427 867 475 867 q 349 898 380 867 q 318 975 318 928 q 349 1053 318 1022 q 427 1084 380 1084 q 506 1053 475 1084 q 536 975 536 1022 q 506 898 536 928 z "},"Č":{"ha":1029,"x_min":75,"x_max":960,"o":"m 534 -25 q 198 113 321 -25 q 75 490 75 251 q 198 866 75 728 q 534 1004 321 1004 q 828 900 708 1004 q 959 637 947 797 l 760 637 q 683 772 745 722 q 534 823 622 823 q 352 734 419 823 q 285 490 285 644 q 352 245 285 335 q 535 155 419 155 q 684 203 623 155 q 760 332 745 252 l 960 332 q 829 74 947 174 q 534 -25 711 -25 m 448 1079 l 258 1295 l 429 1295 l 528 1177 l 541 1177 l 640 1295 l 811 1295 l 621 1079 l 448 1079 z "},"č":{"ha":816,"x_min":62,"x_max":761,"o":"m 761 484 l 576 484 q 528 571 566 539 q 428 602 490 602 q 305 544 348 602 q 262 376 262 486 q 305 205 262 264 q 428 146 348 146 q 527 175 489 146 q 576 259 566 204 l 761 259 q 661 58 749 132 q 428 -16 572 -16 q 158 86 253 -16 q 62 376 62 188 q 157 663 62 562 q 428 764 252 764 q 662 689 574 764 q 761 484 749 614 m 526 848 l 328 848 l 142 1088 l 320 1088 l 421 947 l 433 947 l 534 1088 l 712 1088 l 526 848 z "},"Ď":{"ha":1038,"x_min":119,"x_max":963,"o":"m 119 979 l 504 979 q 843 853 722 979 q 963 496 963 726 q 843 129 963 258 q 504 0 724 0 l 119 0 l 119 979 m 323 804 l 323 175 l 471 175 q 681 257 608 175 q 754 493 754 338 q 680 723 754 641 q 471 804 605 804 l 323 804 m 347 1078 l 157 1294 l 328 1294 l 427 1177 l 440 1177 l 538 1294 l 710 1294 l 519 1078 l 347 1078 z "},"ď":{"ha":1041,"x_min":62,"x_max":1061,"o":"m 891 1034 l 1061 1034 l 1027 691 l 891 691 l 891 1034 m 367 -12 q 144 92 226 -12 q 62 375 62 196 q 144 657 62 553 q 367 760 226 760 q 502 725 443 760 q 590 629 561 690 l 602 629 l 602 1034 l 799 1034 l 799 0 l 608 0 l 608 117 l 595 117 q 505 23 566 57 q 367 -12 445 -12 m 558 535 q 535 565 558 535 q 434 595 513 595 q 310 536 355 595 q 265 374 265 477 q 310 212 265 271 q 434 153 355 153 q 558 212 513 153 q 604 374 604 271 q 558 535 604 476 z "},"Đ":{"ha":1040,"x_min":34,"x_max":965,"o":"m 326 175 l 473 175 q 683 257 610 175 q 756 493 756 338 q 682 723 756 641 q 473 804 607 804 l 326 804 l 326 573 l 478 573 l 478 419 l 326 419 l 326 175 m 121 979 l 506 979 q 845 853 724 979 q 965 496 965 726 q 845 129 965 258 q 506 0 726 0 l 121 0 l 121 419 l 34 419 l 34 573 l 121 573 l 121 979 z "},"đ":{"ha":913,"x_min":71,"x_max":905,"o":"m 318 212 q 340 183 318 212 q 442 153 363 153 q 567 212 522 153 q 612 374 612 271 q 566 535 612 476 q 442 595 521 595 q 318 536 363 595 q 273 374 273 477 q 318 212 273 271 m 905 955 l 905 851 l 807 851 l 807 0 l 616 0 l 616 117 l 604 117 q 513 23 574 57 q 375 -12 453 -12 q 152 92 234 -12 q 71 375 71 196 q 152 657 71 553 q 375 760 234 760 q 510 725 451 760 q 598 629 569 690 l 610 629 l 610 851 l 452 851 l 452 955 l 610 955 l 610 1034 l 807 1034 l 807 955 l 905 955 z "},"Ē":{"ha":864,"x_min":119,"x_max":767,"o":"m 767 175 l 767 0 l 119 0 l 119 979 l 767 979 l 767 804 l 323 804 l 323 575 l 742 575 l 742 413 l 323 413 l 323 175 l 767 175 m 696 1230 l 696 1107 l 190 1107 l 190 1230 l 696 1230 z "},"ē":{"ha":835,"x_min":62,"x_max":772,"o":"m 422 613 q 310 569 354 613 q 260 452 265 525 l 578 452 q 533 570 575 527 q 422 613 492 613 m 583 213 l 766 213 q 653 45 744 106 q 425 -16 562 -16 q 158 86 254 -16 q 62 370 62 188 q 159 659 62 553 q 422 764 255 764 q 680 665 587 764 q 772 387 772 565 l 772 326 l 259 326 l 259 316 q 307 184 261 233 q 430 136 353 136 q 528 156 488 136 q 583 213 567 176 m 671 1015 l 671 892 l 173 892 l 173 1015 l 671 1015 z "},"Ĕ":{"ha":864,"x_min":119,"x_max":767,"o":"m 767 175 l 767 0 l 119 0 l 119 979 l 767 979 l 767 804 l 323 804 l 323 575 l 742 575 l 742 413 l 323 413 l 323 175 l 767 175 m 172 1299 l 313 1299 q 349 1218 314 1248 q 443 1187 384 1187 q 537 1218 502 1187 q 573 1299 572 1248 l 714 1299 q 641 1134 714 1197 q 443 1071 567 1071 q 245 1134 319 1071 q 172 1299 172 1197 z "},"ĕ":{"ha":835,"x_min":62,"x_max":772,"o":"m 422 613 q 310 569 354 613 q 260 452 265 525 l 578 452 q 533 570 575 527 q 422 613 492 613 m 583 213 l 766 213 q 653 45 744 106 q 425 -16 562 -16 q 158 86 254 -16 q 62 370 62 188 q 159 659 62 553 q 422 764 255 764 q 680 665 587 764 q 772 387 772 565 l 772 326 l 259 326 l 259 316 q 307 184 261 233 q 430 136 353 136 q 528 156 488 136 q 583 213 567 176 m 151 1086 l 291 1086 q 327 999 292 1031 q 421 966 361 966 q 515 999 481 966 q 551 1086 550 1031 l 692 1086 q 619 915 692 981 q 421 848 545 848 q 224 915 297 848 q 151 1086 151 981 z "},"Ė":{"ha":864,"x_min":119,"x_max":767,"o":"m 767 175 l 767 0 l 119 0 l 119 979 l 767 979 l 767 804 l 323 804 l 323 575 l 742 575 l 742 413 l 323 413 l 323 175 l 767 175 m 519 1101 q 505 1086 519 1101 q 443 1071 490 1071 q 366 1101 396 1071 q 336 1178 336 1132 q 366 1255 336 1224 q 443 1285 396 1285 q 519 1255 490 1285 q 549 1178 549 1224 q 519 1101 549 1132 z "},"ė":{"ha":835,"x_min":62,"x_max":772,"o":"m 422 613 q 310 569 354 613 q 260 452 265 525 l 578 452 q 533 570 575 527 q 422 613 492 613 m 583 213 l 766 213 q 653 45 744 106 q 425 -16 562 -16 q 158 86 254 -16 q 62 370 62 188 q 159 659 62 553 q 422 764 255 764 q 680 665 587 764 q 772 387 772 565 l 772 326 l 259 326 l 259 316 q 307 184 261 233 q 430 136 353 136 q 528 156 488 136 q 583 213 567 176 m 500 898 q 485 882 500 898 q 422 867 469 867 q 343 898 374 867 q 313 975 313 928 q 343 1053 313 1022 q 422 1084 374 1084 q 500 1053 469 1084 q 531 975 531 1022 q 500 898 531 928 z "},"Ę":{"ha":864,"x_min":119,"x_max":767,"o":"m 119 0 l 119 979 l 767 979 l 767 804 l 323 804 l 323 575 l 742 575 l 742 413 l 323 413 l 323 175 l 767 175 l 767 3 l 736 -4 q 645 -52 685 -18 q 606 -129 606 -87 q 627 -177 606 -159 q 686 -194 649 -194 q 732 -189 719 -194 l 732 -302 q 639 -316 696 -316 q 505 -273 556 -316 q 453 -164 453 -231 q 479 -78 453 -119 q 549 -12 506 -37 l 549 0 l 119 0 z "},"ę":{"ha":835,"x_min":62,"x_max":772,"o":"m 572 -316 q 438 -273 490 -316 q 387 -164 387 -231 q 411 -84 387 -122 q 475 -23 435 -47 l 475 -11 q 425 -16 458 -16 q 158 86 254 -16 q 62 370 62 188 q 159 659 62 553 q 422 764 255 764 q 680 665 587 764 q 772 387 772 565 l 772 326 l 259 326 l 259 316 q 307 184 261 233 q 430 136 353 136 q 528 156 488 136 q 583 213 567 176 l 766 213 q 726 117 760 170 q 647 27 693 64 q 565 -54 591 -18 q 539 -125 539 -90 q 561 -176 539 -158 q 619 -194 583 -194 q 666 -189 652 -194 l 666 -302 q 572 -316 629 -316 m 422 613 q 310 569 354 613 q 260 452 265 525 l 578 452 q 533 570 575 527 q 422 613 492 613 z "},"Ě":{"ha":864,"x_min":119,"x_max":767,"o":"m 767 175 l 767 0 l 119 0 l 119 979 l 767 979 l 767 804 l 323 804 l 323 575 l 742 575 l 742 413 l 323 413 l 323 175 l 767 175 m 357 1078 l 166 1294 l 338 1294 l 436 1177 l 450 1177 l 548 1294 l 720 1294 l 529 1078 l 357 1078 z "},"ě":{"ha":835,"x_min":62,"x_max":772,"o":"m 422 613 q 310 569 354 613 q 260 452 265 525 l 578 452 q 533 570 575 527 q 422 613 492 613 m 583 213 l 766 213 q 653 45 744 106 q 425 -16 562 -16 q 158 86 254 -16 q 62 370 62 188 q 159 659 62 553 q 422 764 255 764 q 680 665 587 764 q 772 387 772 565 l 772 326 l 259 326 l 259 316 q 307 184 261 233 q 430 136 353 136 q 528 156 488 136 q 583 213 567 176 m 520 848 l 323 848 l 136 1088 l 315 1088 l 416 947 l 428 947 l 528 1088 l 707 1088 l 520 848 z "},"Ĝ":{"ha":1056,"x_min":75,"x_max":979,"o":"m 979 399 q 862 89 979 203 q 545 -25 745 -25 q 201 113 326 -25 q 75 490 75 250 q 201 865 75 727 q 540 1004 326 1004 q 831 911 713 1004 q 970 667 948 819 l 766 667 q 684 782 743 741 q 540 823 625 823 q 353 735 421 823 q 285 492 285 646 q 356 245 285 336 q 548 155 427 155 q 712 210 648 155 q 779 353 776 264 l 780 370 l 568 370 l 568 524 l 979 524 l 979 399 m 448 1306 l 632 1306 l 825 1079 l 645 1079 l 546 1206 l 534 1206 l 435 1079 l 255 1079 l 448 1306 z "},"ĝ":{"ha":897,"x_min":60,"x_max":798,"o":"m 307 224 q 329 195 307 224 q 431 167 351 167 q 557 224 511 167 q 602 380 602 281 q 556 537 602 479 q 431 595 511 595 q 308 537 352 595 q 263 381 263 480 q 307 224 263 281 m 429 -283 q 188 -223 281 -283 q 86 -64 96 -163 l 281 -64 q 329 -119 289 -99 q 433 -140 369 -140 q 556 -105 512 -140 q 600 -7 600 -70 l 600 132 l 588 132 q 363 11 524 11 q 142 111 223 11 q 60 380 60 211 q 143 657 60 555 q 367 760 225 760 q 504 725 443 760 q 594 628 564 690 l 606 628 l 606 748 l 798 748 l 798 3 q 698 -206 798 -129 q 429 -283 598 -283 m 535 1088 l 722 848 l 543 848 l 443 990 l 431 990 l 330 848 l 151 848 l 338 1088 l 535 1088 z "},"Ğ":{"ha":1056,"x_min":75,"x_max":979,"o":"m 979 399 q 862 89 979 203 q 545 -25 745 -25 q 201 113 326 -25 q 75 490 75 250 q 201 865 75 727 q 540 1004 326 1004 q 831 911 713 1004 q 970 667 948 819 l 766 667 q 684 782 743 741 q 540 823 625 823 q 353 735 421 823 q 285 492 285 646 q 356 245 285 336 q 548 155 427 155 q 712 210 648 155 q 779 353 776 264 l 780 370 l 568 370 l 568 524 l 979 524 l 979 399 m 269 1299 l 410 1299 q 446 1218 411 1249 q 540 1188 481 1188 q 634 1218 599 1188 q 670 1299 669 1249 l 811 1299 q 738 1135 811 1198 q 540 1072 664 1072 q 342 1135 416 1072 q 269 1299 269 1198 z "},"ğ":{"ha":897,"x_min":60,"x_max":798,"o":"m 307 224 q 329 195 307 224 q 431 167 351 167 q 557 224 511 167 q 602 380 602 281 q 556 537 602 479 q 431 595 511 595 q 308 537 352 595 q 263 381 263 480 q 307 224 263 281 m 429 -283 q 188 -223 281 -283 q 86 -64 96 -163 l 281 -64 q 329 -119 289 -99 q 433 -140 369 -140 q 556 -105 512 -140 q 600 -7 600 -70 l 600 132 l 588 132 q 363 11 524 11 q 142 111 223 11 q 60 380 60 211 q 143 657 60 555 q 367 760 225 760 q 504 725 443 760 q 594 628 564 690 l 606 628 l 606 748 l 798 748 l 798 3 q 698 -206 798 -129 q 429 -283 598 -283 m 165 1086 l 306 1086 q 342 999 307 1031 q 436 966 376 966 q 530 999 496 966 q 566 1086 565 1031 l 707 1086 q 634 915 707 981 q 436 848 560 848 q 239 915 312 848 q 165 1086 165 981 z "},"Ġ":{"ha":1056,"x_min":75,"x_max":979,"o":"m 979 399 q 862 89 979 203 q 545 -25 745 -25 q 201 113 326 -25 q 75 490 75 250 q 201 865 75 727 q 540 1004 326 1004 q 831 911 713 1004 q 970 667 948 819 l 766 667 q 684 782 743 741 q 540 823 625 823 q 353 735 421 823 q 285 492 285 646 q 356 245 285 336 q 548 155 427 155 q 712 210 648 155 q 779 353 776 264 l 780 370 l 568 370 l 568 524 l 979 524 l 979 399 m 616 1102 q 602 1087 616 1102 q 540 1072 587 1072 q 463 1102 493 1072 q 433 1179 433 1133 q 463 1255 433 1225 q 540 1286 493 1286 q 616 1255 587 1286 q 646 1179 646 1225 q 616 1102 646 1133 z "},"ġ":{"ha":897,"x_min":60,"x_max":798,"o":"m 307 224 q 329 195 307 224 q 431 167 351 167 q 557 224 511 167 q 602 380 602 281 q 556 537 602 479 q 431 595 511 595 q 308 537 352 595 q 263 381 263 480 q 307 224 263 281 m 429 -283 q 188 -223 281 -283 q 86 -64 96 -163 l 281 -64 q 329 -119 289 -99 q 433 -140 369 -140 q 556 -105 512 -140 q 600 -7 600 -70 l 600 132 l 588 132 q 363 11 524 11 q 142 111 223 11 q 60 380 60 211 q 143 657 60 555 q 367 760 225 760 q 504 725 443 760 q 594 628 564 690 l 606 628 l 606 748 l 798 748 l 798 3 q 698 -206 798 -129 q 429 -283 598 -283 m 515 898 q 500 882 515 898 q 437 867 484 867 q 358 898 389 867 q 328 975 328 928 q 358 1053 328 1022 q 437 1084 389 1084 q 515 1053 484 1084 q 546 975 546 1022 q 515 898 546 928 z "},"Ģ":{"ha":1056,"x_min":75,"x_max":979,"o":"m 979 399 q 862 89 979 203 q 545 -25 745 -25 q 201 113 326 -25 q 75 490 75 250 q 201 865 75 727 q 540 1004 326 1004 q 831 911 713 1004 q 970 667 948 819 l 766 667 q 684 782 743 741 q 540 823 625 823 q 353 735 421 823 q 285 492 285 646 q 356 245 285 336 q 548 155 427 155 q 712 210 648 155 q 779 353 776 264 l 780 370 l 568 370 l 568 524 l 979 524 l 979 399 m 547 -345 l 372 -345 l 462 -102 l 660 -102 l 547 -345 z "},"ģ":{"ha":897,"x_min":60,"x_max":798,"o":"m 307 224 q 329 195 307 224 q 431 167 351 167 q 557 224 511 167 q 602 380 602 281 q 556 537 602 479 q 431 595 511 595 q 308 537 352 595 q 263 381 263 480 q 307 224 263 281 m 429 -283 q 188 -223 281 -283 q 86 -64 96 -163 l 281 -64 q 329 -119 289 -99 q 433 -140 369 -140 q 556 -105 512 -140 q 600 -7 600 -70 l 600 132 l 588 132 q 363 11 524 11 q 142 111 223 11 q 60 380 60 211 q 143 657 60 555 q 367 760 225 760 q 504 725 443 760 q 594 628 564 690 l 606 628 l 606 748 l 798 748 l 798 3 q 698 -206 798 -129 q 429 -283 598 -283 m 454 1118 l 629 1118 l 539 876 l 341 876 l 454 1118 z "},"Ĥ":{"ha":1088,"x_min":119,"x_max":969,"o":"m 969 0 l 764 0 l 764 409 l 323 409 l 323 0 l 119 0 l 119 979 l 323 979 l 323 584 l 764 584 l 764 979 l 969 979 l 969 0 m 452 1305 l 636 1305 l 829 1078 l 649 1078 l 550 1205 l 538 1205 l 439 1078 l 259 1078 l 452 1305 z "},"ĥ":{"ha":886,"x_min":-82,"x_max":794,"o":"m 106 0 l 106 1034 l 300 1034 l 300 625 l 312 625 q 397 726 338 690 q 538 762 456 762 q 727 689 659 762 q 794 481 794 616 l 794 0 l 597 0 l 597 435 q 562 552 597 512 q 459 592 526 592 q 345 548 386 592 q 303 429 303 503 l 303 0 l 106 0 m 111 1360 l 295 1360 l 488 1133 l 308 1133 l 209 1260 l 197 1260 l 98 1133 l -82 1133 l 111 1360 z "},"Ħ":{"ha":1088,"x_min":32,"x_max":1056,"o":"m 764 584 l 764 715 l 323 715 l 323 584 l 764 584 m 1056 855 l 1056 715 l 969 715 l 969 0 l 764 0 l 764 409 l 323 409 l 323 0 l 119 0 l 119 715 l 32 715 l 32 855 l 119 855 l 119 979 l 323 979 l 323 855 l 764 855 l 764 979 l 969 979 l 969 855 l 1056 855 z "},"ħ":{"ha":886,"x_min":8,"x_max":794,"o":"m 300 625 l 312 625 q 397 726 338 690 q 538 762 456 762 q 727 689 659 762 q 794 481 794 616 l 794 0 l 597 0 l 597 435 q 562 552 597 512 q 459 592 526 592 q 345 548 386 592 q 303 429 303 503 l 303 0 l 106 0 l 106 851 l 8 851 l 8 955 l 106 955 l 106 1034 l 300 1034 l 300 955 l 458 955 l 458 851 l 300 851 l 300 625 z "},"Ĩ":{"ha":442,"x_min":-55,"x_max":497,"o":"m 323 0 l 119 0 l 119 979 l 323 979 l 323 0 m 320 1066 q 267 1076 292 1066 q 224 1101 241 1086 q 192 1129 207 1115 q 161 1154 176 1143 q 132 1164 146 1164 q 72 1068 73 1164 l -55 1068 q -6 1226 -55 1166 q 122 1286 42 1286 q 176 1276 151 1286 q 218 1251 201 1265 q 251 1223 235 1237 q 281 1198 266 1208 q 311 1188 296 1188 q 370 1282 370 1188 l 497 1282 q 449 1125 497 1184 q 320 1066 400 1066 z "},"ĩ":{"ha":398,"x_min":-73,"x_max":479,"o":"m 100 0 l 100 748 l 298 748 l 298 0 l 100 0 m 302 850 q 248 860 273 850 q 206 884 223 870 q 173 913 189 899 q 143 937 158 927 q 113 947 127 947 q 54 852 55 947 l -73 852 q -25 1010 -73 950 q 104 1069 24 1069 q 157 1059 132 1069 q 200 1035 182 1049 q 232 1006 217 1021 q 263 982 248 992 q 292 972 278 972 q 352 1065 351 972 l 479 1065 q 430 909 479 968 q 302 850 382 850 z "},"Ī":{"ha":442,"x_min":-32,"x_max":474,"o":"m 323 0 l 119 0 l 119 979 l 323 979 l 323 0 m 474 1230 l 474 1107 l -32 1107 l -32 1230 l 474 1230 z "},"ī":{"ha":398,"x_min":-12,"x_max":412,"o":"m 100 0 l 100 748 l 298 748 l 298 0 l 100 0 m 412 1015 l 412 892 l -12 892 l -12 1015 l 412 1015 z "},"Ĭ":{"ha":442,"x_min":-50,"x_max":492,"o":"m 323 0 l 119 0 l 119 979 l 323 979 l 323 0 m -50 1299 l 91 1299 q 127 1218 92 1248 q 221 1187 162 1187 q 315 1218 280 1187 q 351 1299 350 1248 l 492 1299 q 419 1134 492 1197 q 221 1071 345 1071 q 23 1134 97 1071 q -50 1299 -50 1197 z "},"ĭ":{"ha":398,"x_min":-72,"x_max":470,"o":"m 100 0 l 100 748 l 298 748 l 298 0 l 100 0 m -72 1086 l 68 1086 q 104 999 70 1031 q 199 966 139 966 q 293 999 258 966 q 329 1086 328 1031 l 470 1086 q 396 915 470 981 q 199 848 323 848 q 1 915 75 848 q -72 1086 -72 981 z "},"Į":{"ha":442,"x_min":40,"x_max":323,"o":"m 119 -22 l 119 979 l 323 979 l 323 0 l 309 -4 q 225 -55 258 -23 q 193 -125 193 -87 q 215 -175 193 -157 q 276 -194 237 -194 q 323 -189 304 -194 l 323 -302 q 226 -316 285 -316 q 92 -274 144 -316 q 40 -164 40 -231 q 61 -83 40 -121 q 119 -22 82 -46 z "},"į":{"ha":398,"x_min":14,"x_max":316,"o":"m 199 852 q 115 880 146 852 q 83 952 83 908 q 115 1024 83 997 q 199 1052 146 1052 q 284 1024 252 1052 q 316 952 316 997 q 284 880 316 908 q 199 852 252 852 m 100 -14 l 100 748 l 298 748 l 298 0 l 276 -4 q 197 -54 227 -21 q 167 -125 167 -86 q 190 -176 167 -157 q 250 -194 212 -194 q 297 -189 273 -194 l 297 -302 q 205 -316 262 -316 q 66 -273 118 -316 q 14 -161 14 -229 q 37 -79 14 -118 q 100 -14 59 -41 z "},"İ":{"ha":442,"x_min":114,"x_max":328,"o":"m 323 0 l 119 0 l 119 979 l 323 979 l 323 0 m 298 1101 q 283 1086 298 1101 q 221 1071 268 1071 q 144 1101 174 1071 q 114 1178 114 1132 q 144 1255 114 1224 q 221 1285 174 1285 q 298 1255 268 1285 q 328 1178 328 1224 q 298 1101 328 1132 z "},"ı":{"ha":398,"x_min":100,"x_max":298,"o":"m 100 0 l 100 748 l 298 748 l 298 0 l 100 0 z "},"Ĳ":{"ha":1277,"x_min":119,"x_max":1158,"o":"m 323 0 l 119 0 l 119 979 l 323 979 l 323 0 m 494 288 l 692 288 q 729 193 693 229 q 823 158 764 158 q 920 196 886 158 q 954 305 954 233 l 954 979 l 1158 979 l 1158 304 q 1070 61 1158 146 q 826 -25 983 -25 q 584 60 675 -25 q 494 288 494 144 z "},"ĳ":{"ha":810,"x_min":83,"x_max":721,"o":"m 100 0 l 100 748 l 298 748 l 298 0 l 100 0 m 199 852 q 115 880 146 852 q 83 952 83 908 q 115 1024 83 997 q 199 1052 146 1052 q 284 1024 252 1052 q 316 952 316 997 q 284 880 316 908 q 199 852 252 852 m 703 748 l 703 -23 q 635 -196 703 -138 q 438 -255 568 -255 q 385 -252 401 -255 l 385 -101 q 410 -102 389 -102 q 484 -82 462 -102 q 505 -18 505 -62 l 505 748 l 703 748 m 604 852 q 519 880 551 852 q 488 952 488 908 q 519 1024 488 997 q 604 1052 551 1052 q 689 1024 657 1052 q 721 952 721 997 q 689 880 721 908 q 604 852 656 852 z "},"Ĵ":{"ha":835,"x_min":52,"x_max":899,"o":"m 52 288 l 250 288 q 287 193 251 229 q 381 158 322 158 q 478 196 444 158 q 511 305 511 233 l 511 979 l 716 979 l 716 304 q 628 61 716 146 q 384 -25 541 -25 q 142 60 233 -25 q 52 288 52 144 m 522 1305 l 706 1305 l 899 1078 l 719 1078 l 620 1205 l 608 1205 l 509 1078 l 329 1078 l 522 1305 z "},"ĵ":{"ha":398,"x_min":-85,"x_max":485,"o":"m 296 748 l 296 -23 q 229 -196 296 -138 q 31 -255 161 -255 q -22 -252 -5 -255 l -22 -101 q 3 -102 -18 -102 q 77 -82 55 -102 q 98 -18 98 -62 l 98 748 l 296 748 m 298 1088 l 485 848 l 307 848 l 206 990 l 194 990 l 93 848 l -85 848 l 101 1088 l 298 1088 z "},"Ķ":{"ha":985,"x_min":119,"x_max":950,"o":"m 323 0 l 119 0 l 119 979 l 323 979 l 323 543 l 336 543 l 697 979 l 925 979 l 568 549 l 950 0 l 705 0 l 420 410 l 323 295 l 323 0 m 472 -345 l 297 -345 l 387 -102 l 585 -102 l 472 -345 z "},"ķ":{"ha":836,"x_min":106,"x_max":810,"o":"m 315 456 l 566 748 l 790 748 l 505 427 l 810 0 l 576 0 l 357 304 l 303 248 l 303 0 l 106 0 l 106 1034 l 303 1034 l 303 456 l 315 456 m 437 -345 l 262 -345 l 352 -102 l 550 -102 l 437 -345 z "},"Ĺ":{"ha":826,"x_min":119,"x_max":759,"o":"m 759 178 l 759 0 l 119 0 l 119 979 l 323 979 l 323 178 l 759 178 m 314 1078 l 125 1078 l 313 1294 l 527 1294 l 314 1078 z "},"ĺ":{"ha":409,"x_min":106,"x_max":511,"o":"m 106 0 l 106 1034 l 303 1034 l 303 0 l 106 0 m 298 1133 l 109 1133 l 297 1349 l 511 1349 l 298 1133 z "},"Ļ":{"ha":826,"x_min":119,"x_max":759,"o":"m 759 178 l 759 0 l 119 0 l 119 979 l 323 979 l 323 178 l 759 178 m 431 -345 l 256 -345 l 346 -102 l 544 -102 l 431 -345 z "},"ļ":{"ha":409,"x_min":26,"x_max":313,"o":"m 106 0 l 106 1034 l 303 1034 l 303 0 l 106 0 m 201 -345 l 26 -345 l 115 -102 l 313 -102 l 201 -345 z "},"Ľ":{"ha":826,"x_min":119,"x_max":759,"o":"m 458 979 l 625 979 l 591 637 l 458 637 l 458 979 m 759 178 l 759 0 l 119 0 l 119 979 l 323 979 l 323 178 l 759 178 z "},"ľ":{"ha":545,"x_min":106,"x_max":566,"o":"m 395 1034 l 566 1034 l 532 691 l 395 691 l 395 1034 m 106 0 l 106 1034 l 303 1034 l 303 0 l 106 0 z "},"Ł":{"ha":826,"x_min":16,"x_max":759,"o":"m 323 178 l 759 178 l 759 0 l 119 0 l 119 448 l 16 395 l 16 534 l 119 587 l 119 979 l 323 979 l 323 692 l 485 774 l 485 635 l 323 553 l 323 178 z "},"ł":{"ha":409,"x_min":22,"x_max":387,"o":"m 387 742 l 387 603 l 303 558 l 303 0 l 106 0 l 106 453 l 22 408 l 22 547 l 106 592 l 106 1034 l 303 1034 l 303 697 l 387 742 z "},"Ń":{"ha":1067,"x_min":119,"x_max":948,"o":"m 315 0 l 119 0 l 119 979 l 290 979 l 740 369 l 752 369 l 752 979 l 948 979 l 948 0 l 779 0 l 327 612 l 315 612 l 315 0 m 624 1078 l 435 1078 l 623 1294 l 837 1294 l 624 1078 z "},"ń":{"ha":871,"x_min":99,"x_max":779,"o":"m 99 0 l 99 748 l 290 748 l 290 628 l 302 628 q 386 728 329 692 q 524 764 442 764 q 713 691 648 764 q 779 484 779 618 l 779 0 l 582 0 l 582 437 q 444 594 582 594 q 336 550 376 594 q 296 431 296 505 l 296 0 l 99 0 m 522 869 l 339 869 l 507 1108 l 716 1108 l 522 869 z "},"Ņ":{"ha":1067,"x_min":119,"x_max":948,"o":"m 315 0 l 119 0 l 119 979 l 290 979 l 740 369 l 752 369 l 752 979 l 948 979 l 948 0 l 779 0 l 327 612 l 315 612 l 315 0 m 527 -345 l 352 -345 l 441 -102 l 640 -102 l 527 -345 z "},"ņ":{"ha":871,"x_min":99,"x_max":779,"o":"m 99 0 l 99 748 l 290 748 l 290 628 l 302 628 q 386 728 329 692 q 524 764 442 764 q 713 691 648 764 q 779 484 779 618 l 779 0 l 582 0 l 582 437 q 444 594 582 594 q 336 550 376 594 q 296 431 296 505 l 296 0 l 99 0 m 440 -345 l 265 -345 l 355 -102 l 553 -102 l 440 -345 z "},"Ň":{"ha":1067,"x_min":119,"x_max":948,"o":"m 315 0 l 119 0 l 119 979 l 290 979 l 740 369 l 752 369 l 752 979 l 948 979 l 948 0 l 779 0 l 327 612 l 315 612 l 315 0 m 445 1078 l 254 1294 l 426 1294 l 524 1177 l 538 1177 l 636 1294 l 808 1294 l 617 1078 l 445 1078 z "},"ň":{"ha":871,"x_min":99,"x_max":779,"o":"m 99 0 l 99 748 l 290 748 l 290 628 l 302 628 q 386 728 329 692 q 524 764 442 764 q 713 691 648 764 q 779 484 779 618 l 779 0 l 582 0 l 582 437 q 444 594 582 594 q 336 550 376 594 q 296 431 296 505 l 296 0 l 99 0 m 543 848 l 345 848 l 159 1088 l 337 1088 l 438 947 l 450 947 l 551 1088 l 729 1088 l 543 848 z "},"Ō":{"ha":1092,"x_min":75,"x_max":1017,"o":"m 547 1004 q 890 865 764 1004 q 1017 490 1017 727 q 890 113 1017 252 q 547 -25 764 -25 q 202 113 329 -25 q 75 490 75 252 q 203 865 75 727 q 547 1004 330 1004 m 737 733 q 701 779 737 733 q 547 824 666 824 q 356 733 427 824 q 285 490 285 643 q 356 245 285 336 q 547 155 427 155 q 737 245 666 155 q 808 490 808 336 q 737 733 808 643 m 800 1230 l 800 1107 l 294 1107 l 294 1230 l 800 1230 z "},"ō":{"ha":861,"x_min":62,"x_max":799,"o":"m 701 87 q 652 36 701 87 q 431 -16 603 -16 q 160 87 258 -16 q 62 374 62 191 q 161 660 62 556 q 431 764 260 764 q 700 660 602 764 q 799 374 799 556 q 701 87 799 191 m 431 145 q 553 205 509 145 q 596 374 596 265 q 552 543 596 482 q 431 603 509 603 q 309 543 352 603 q 265 374 265 482 q 308 205 265 265 q 431 145 351 145 m 680 1015 l 680 892 l 182 892 l 182 1015 l 680 1015 z "},"Ŏ":{"ha":1092,"x_min":75,"x_max":1017,"o":"m 547 1004 q 890 865 764 1004 q 1017 490 1017 727 q 890 113 1017 252 q 547 -25 764 -25 q 202 113 329 -25 q 75 490 75 252 q 203 865 75 727 q 547 1004 330 1004 m 737 733 q 701 779 737 733 q 547 824 666 824 q 356 733 427 824 q 285 490 285 643 q 356 245 285 336 q 547 155 427 155 q 737 245 666 155 q 808 490 808 336 q 737 733 808 643 m 275 1299 l 416 1299 q 453 1218 418 1248 q 547 1187 488 1187 q 641 1218 606 1187 q 677 1299 675 1248 l 818 1299 q 744 1134 818 1197 q 547 1071 671 1071 q 349 1134 422 1071 q 275 1299 275 1197 z "},"ŏ":{"ha":861,"x_min":62,"x_max":799,"o":"m 701 87 q 652 36 701 87 q 431 -16 603 -16 q 160 87 258 -16 q 62 374 62 191 q 161 660 62 556 q 431 764 260 764 q 700 660 602 764 q 799 374 799 556 q 701 87 799 191 m 431 145 q 553 205 509 145 q 596 374 596 265 q 552 543 596 482 q 431 603 509 603 q 309 543 352 603 q 265 374 265 482 q 308 205 265 265 q 431 145 351 145 m 159 1086 l 300 1086 q 336 999 301 1031 q 430 966 370 966 q 524 999 490 966 q 560 1086 559 1031 l 701 1086 q 628 915 701 981 q 430 848 554 848 q 233 915 306 848 q 159 1086 159 981 z "},"Ő":{"ha":1092,"x_min":75,"x_max":1017,"o":"m 547 1004 q 890 865 764 1004 q 1017 490 1017 727 q 890 113 1017 252 q 547 -25 764 -25 q 202 113 329 -25 q 75 490 75 252 q 203 865 75 727 q 547 1004 330 1004 m 737 733 q 701 779 737 733 q 547 824 666 824 q 356 733 427 824 q 285 490 285 643 q 356 245 285 336 q 547 155 427 155 q 737 245 666 155 q 808 490 808 336 q 737 733 808 643 m 759 1078 l 593 1078 l 764 1294 l 947 1294 l 759 1078 m 463 1078 l 297 1078 l 467 1294 l 651 1294 l 463 1078 z "},"ő":{"ha":861,"x_min":62,"x_max":802,"o":"m 701 87 q 652 36 701 87 q 431 -16 603 -16 q 160 87 258 -16 q 62 374 62 191 q 161 660 62 556 q 431 764 260 764 q 700 660 602 764 q 799 374 799 556 q 701 87 799 191 m 431 145 q 553 205 509 145 q 596 374 596 265 q 552 543 596 482 q 431 603 509 603 q 309 543 352 603 q 265 374 265 482 q 308 205 265 265 q 431 145 351 145 m 483 869 l 627 1108 l 802 1108 l 638 869 l 483 869 m 187 869 l 331 1108 l 507 1108 l 342 869 l 187 869 z "},"Œ":{"ha":1540,"x_min":82,"x_max":1472,"o":"m 557 824 q 363 733 435 824 q 292 490 292 643 q 363 245 292 336 q 557 155 435 155 q 745 245 675 155 q 815 490 815 336 q 745 734 815 644 q 557 824 675 824 m 850 0 l 850 157 l 838 157 q 714 25 801 75 q 523 -25 627 -25 q 199 111 316 -25 q 82 490 82 248 q 199 868 82 732 q 523 1004 316 1004 q 714 954 626 1004 q 838 826 803 904 l 850 826 l 850 979 l 1472 979 l 1472 804 l 1022 804 l 1022 575 l 1447 575 l 1447 413 l 1022 413 l 1022 175 l 1472 175 l 1472 0 l 850 0 z "},"œ":{"ha":1368,"x_min":66,"x_max":1307,"o":"m 968 -16 q 810 17 881 -16 q 701 110 739 51 l 689 110 q 582 17 652 51 q 425 -16 513 -16 q 162 88 258 -16 q 66 373 66 193 q 162 660 66 555 q 425 764 258 764 q 581 731 513 764 q 690 635 649 698 l 702 635 q 810 730 741 696 q 967 764 880 764 q 1214 662 1122 764 q 1307 387 1307 559 l 1307 327 l 793 327 l 793 316 q 842 184 795 233 q 964 136 888 136 q 1117 213 1084 136 l 1299 213 q 1187 45 1277 107 q 968 -16 1097 -16 m 1113 452 q 1068 570 1109 527 q 957 613 1026 613 q 844 569 888 613 q 794 452 799 526 l 1113 452 m 269 374 q 312 205 269 264 q 434 145 355 145 q 556 205 513 145 q 600 374 600 264 q 556 543 600 482 q 434 603 512 603 q 312 543 356 603 q 269 374 269 482 z "},"Ŕ":{"ha":964,"x_min":119,"x_max":905,"o":"m 323 813 l 323 512 l 503 512 q 624 552 581 512 q 667 662 667 591 q 622 772 667 732 q 501 813 577 813 l 323 813 m 323 355 l 323 0 l 119 0 l 119 979 l 530 979 q 784 895 691 979 q 877 665 877 810 q 830 495 877 570 q 699 387 783 420 l 905 0 l 673 0 l 491 355 l 323 355 m 535 1078 l 347 1078 l 534 1294 l 748 1294 l 535 1078 z "},"ŕ":{"ha":604,"x_min":99,"x_max":576,"o":"m 99 0 l 99 748 l 290 748 l 290 629 l 302 629 q 371 723 317 686 q 494 760 424 760 q 572 751 545 760 l 572 571 q 478 583 541 583 q 346 538 396 583 q 296 414 296 492 l 296 0 l 99 0 m 381 869 l 199 869 l 366 1108 l 576 1108 l 381 869 z "},"Ŗ":{"ha":964,"x_min":119,"x_max":905,"o":"m 323 813 l 323 512 l 503 512 q 624 552 581 512 q 667 662 667 591 q 622 772 667 732 q 501 813 577 813 l 323 813 m 323 355 l 323 0 l 119 0 l 119 979 l 530 979 q 784 895 691 979 q 877 665 877 810 q 830 495 877 570 q 699 387 783 420 l 905 0 l 673 0 l 491 355 l 323 355 m 438 -345 l 263 -345 l 353 -102 l 551 -102 l 438 -345 z "},"ŗ":{"ha":604,"x_min":17,"x_max":572,"o":"m 99 0 l 99 748 l 290 748 l 290 629 l 302 629 q 371 723 317 686 q 494 760 424 760 q 572 751 545 760 l 572 571 q 478 583 541 583 q 346 538 396 583 q 296 414 296 492 l 296 0 l 99 0 m 192 -345 l 17 -345 l 106 -102 l 304 -102 l 192 -345 z "},"Ř":{"ha":964,"x_min":119,"x_max":905,"o":"m 323 813 l 323 512 l 503 512 q 624 552 581 512 q 667 662 667 591 q 622 772 667 732 q 501 813 577 813 l 323 813 m 323 355 l 323 0 l 119 0 l 119 979 l 530 979 q 784 895 691 979 q 877 665 877 810 q 830 495 877 570 q 699 387 783 420 l 905 0 l 673 0 l 491 355 l 323 355 m 356 1078 l 165 1294 l 337 1294 l 435 1177 l 449 1177 l 547 1294 l 719 1294 l 528 1078 l 356 1078 z "},"ř":{"ha":604,"x_min":18,"x_max":589,"o":"m 99 0 l 99 748 l 290 748 l 290 629 l 302 629 q 371 723 317 686 q 494 760 424 760 q 572 751 545 760 l 572 571 q 478 583 541 583 q 346 538 396 583 q 296 414 296 492 l 296 0 l 99 0 m 402 848 l 205 848 l 18 1088 l 197 1088 l 298 947 l 310 947 l 410 1088 l 589 1088 l 402 848 z "},"Ś":{"ha":938,"x_min":75,"x_max":863,"o":"m 75 272 l 273 272 q 335 177 279 212 q 477 142 391 142 q 608 177 557 142 q 659 267 659 212 q 620 343 659 314 q 490 391 581 372 l 363 418 q 97 698 97 474 q 199 920 97 836 q 471 1004 302 1004 q 737 922 633 1004 q 846 709 841 840 l 653 709 q 596 802 646 767 q 473 838 547 838 q 349 804 395 838 q 302 715 302 771 q 340 642 302 670 q 464 596 378 614 l 582 571 q 796 473 729 540 q 863 293 863 407 q 757 60 863 145 q 467 -25 651 -25 q 186 55 292 -25 q 75 272 80 135 m 565 1078 l 376 1078 l 564 1294 l 778 1294 l 565 1078 z "},"ś":{"ha":787,"x_min":64,"x_max":724,"o":"m 82 528 q 168 700 82 635 q 393 764 254 764 q 617 707 536 764 q 706 542 698 649 l 524 542 q 483 599 516 578 q 395 620 449 620 q 307 598 341 620 q 272 541 272 576 q 296 495 272 513 q 373 466 321 477 l 513 435 q 673 363 623 412 q 724 231 724 314 q 633 52 724 119 q 394 -16 542 -16 q 160 42 246 -16 q 64 208 74 100 l 256 208 q 398 128 280 128 q 492 150 456 128 q 528 208 528 172 q 505 253 528 236 q 433 281 483 271 l 298 312 q 135 389 189 336 q 82 528 82 442 m 471 869 l 288 869 l 456 1108 l 665 1108 l 471 869 z "},"Ŝ":{"ha":938,"x_min":75,"x_max":863,"o":"m 75 272 l 273 272 q 335 177 279 212 q 477 142 391 142 q 608 177 557 142 q 659 267 659 212 q 620 343 659 314 q 490 391 581 372 l 363 418 q 97 698 97 474 q 199 920 97 836 q 471 1004 302 1004 q 737 922 633 1004 q 846 709 841 840 l 653 709 q 596 802 646 767 q 473 838 547 838 q 349 804 395 838 q 302 715 302 771 q 340 642 302 670 q 464 596 378 614 l 582 571 q 796 473 729 540 q 863 293 863 407 q 757 60 863 145 q 467 -25 651 -25 q 186 55 292 -25 q 75 272 80 135 m 380 1305 l 564 1305 l 757 1078 l 577 1078 l 478 1205 l 466 1205 l 367 1078 l 187 1078 l 380 1305 z "},"ŝ":{"ha":787,"x_min":64,"x_max":724,"o":"m 82 528 q 168 700 82 635 q 393 764 254 764 q 617 707 536 764 q 706 542 698 649 l 524 542 q 483 599 516 578 q 395 620 449 620 q 307 598 341 620 q 272 541 272 576 q 296 495 272 513 q 373 466 321 477 l 513 435 q 673 363 623 412 q 724 231 724 314 q 633 52 724 119 q 394 -16 542 -16 q 160 42 246 -16 q 64 208 74 100 l 256 208 q 398 128 280 128 q 492 150 456 128 q 528 208 528 172 q 505 253 528 236 q 433 281 483 271 l 298 312 q 135 389 189 336 q 82 528 82 442 m 492 1088 l 678 848 l 500 848 l 399 990 l 387 990 l 286 848 l 108 848 l 294 1088 l 492 1088 z "},"Ş":{"ha":938,"x_min":75,"x_max":863,"o":"m 464 596 l 582 571 q 796 473 729 540 q 863 293 863 407 q 772 73 863 157 q 522 -23 682 -10 l 500 -73 q 599 -107 565 -77 q 633 -193 633 -138 q 586 -296 633 -259 q 452 -332 538 -332 q 353 -320 394 -332 l 353 -229 q 431 -239 381 -239 q 507 -199 507 -239 q 487 -170 507 -178 q 419 -161 466 -161 l 378 -161 l 378 -82 l 404 -22 q 168 70 256 -8 q 75 272 79 149 l 273 272 q 335 177 279 212 q 477 142 391 142 q 608 177 557 142 q 659 267 659 212 q 620 343 659 314 q 490 391 581 372 l 363 418 q 97 698 97 474 q 199 920 97 836 q 471 1004 302 1004 q 737 922 633 1004 q 846 709 841 840 l 653 709 q 596 802 646 767 q 473 838 547 838 q 349 804 395 838 q 302 715 302 771 q 340 642 302 670 q 464 596 378 614 z "},"ş":{"ha":787,"x_min":64,"x_max":724,"o":"m 373 466 l 513 435 q 673 363 623 412 q 724 231 724 314 q 650 66 724 131 q 452 -13 576 1 l 428 -73 q 527 -107 492 -76 q 561 -193 561 -138 q 513 -295 561 -258 q 380 -332 466 -332 q 280 -319 321 -332 l 280 -229 q 359 -238 309 -238 q 435 -198 435 -238 q 414 -169 435 -178 q 347 -160 393 -160 l 306 -160 l 306 -81 l 335 -14 q 143 55 213 -2 q 64 208 73 112 l 256 208 q 398 128 280 128 q 492 150 456 128 q 528 208 528 172 q 505 253 528 236 q 433 281 483 271 l 298 312 q 135 389 189 336 q 82 528 82 442 q 168 700 82 635 q 393 764 254 764 q 617 707 536 764 q 706 542 698 649 l 524 542 q 483 599 516 578 q 395 620 449 620 q 307 598 341 620 q 272 541 272 576 q 296 495 272 513 q 373 466 321 477 z "},"Š":{"ha":938,"x_min":75,"x_max":863,"o":"m 75 272 l 273 272 q 335 177 279 212 q 477 142 391 142 q 608 177 557 142 q 659 267 659 212 q 620 343 659 314 q 490 391 581 372 l 363 418 q 97 698 97 474 q 199 920 97 836 q 471 1004 302 1004 q 737 922 633 1004 q 846 709 841 840 l 653 709 q 596 802 646 767 q 473 838 547 838 q 349 804 395 838 q 302 715 302 771 q 340 642 302 670 q 464 596 378 614 l 582 571 q 796 473 729 540 q 863 293 863 407 q 757 60 863 145 q 467 -25 651 -25 q 186 55 292 -25 q 75 272 80 135 m 386 1078 l 195 1294 l 367 1294 l 465 1177 l 479 1177 l 577 1294 l 749 1294 l 558 1078 l 386 1078 z "},"š":{"ha":787,"x_min":64,"x_max":724,"o":"m 82 528 q 168 700 82 635 q 393 764 254 764 q 617 707 536 764 q 706 542 698 649 l 524 542 q 483 599 516 578 q 395 620 449 620 q 307 598 341 620 q 272 541 272 576 q 296 495 272 513 q 373 466 321 477 l 513 435 q 673 363 623 412 q 724 231 724 314 q 633 52 724 119 q 394 -16 542 -16 q 160 42 246 -16 q 64 208 74 100 l 256 208 q 398 128 280 128 q 492 150 456 128 q 528 208 528 172 q 505 253 528 236 q 433 281 483 271 l 298 312 q 135 389 189 336 q 82 528 82 442 m 492 848 l 294 848 l 108 1088 l 286 1088 l 387 947 l 399 947 l 500 1088 l 678 1088 l 492 848 z "},"Ţ":{"ha":917,"x_min":62,"x_max":854,"o":"m 561 0 l 530 -73 q 629 -107 595 -76 q 663 -193 663 -138 q 616 -295 663 -258 q 482 -332 568 -332 q 382 -319 424 -332 l 382 -229 q 461 -238 411 -238 q 537 -198 537 -238 q 516 -169 537 -178 q 449 -160 496 -160 l 408 -160 l 408 -81 l 444 0 l 356 0 l 356 804 l 62 804 l 62 979 l 854 979 l 854 804 l 561 804 l 561 19 l 561 1 l 561 0 z "},"ţ":{"ha":573,"x_min":39,"x_max":508,"o":"m 508 585 l 353 585 l 353 249 q 376 177 353 200 q 450 154 399 154 q 508 157 483 154 l 508 6 q 409 -3 463 -3 l 389 -3 l 360 -73 q 459 -107 425 -76 q 493 -193 493 -138 q 446 -295 493 -258 q 312 -332 398 -332 q 212 -319 254 -332 l 212 -229 q 291 -238 241 -238 q 367 -198 367 -238 q 346 -169 367 -178 q 279 -160 326 -160 l 238 -160 l 238 -81 l 279 12 q 185 78 214 32 q 155 202 155 123 l 155 585 l 39 585 l 39 741 l 155 741 l 155 926 l 353 926 l 353 741 l 508 741 l 508 585 z "},"Ť":{"ha":917,"x_min":62,"x_max":854,"o":"m 561 0 l 356 0 l 356 804 l 62 804 l 62 979 l 854 979 l 854 804 l 561 804 l 561 0 m 370 1078 l 180 1294 l 351 1294 l 450 1177 l 463 1177 l 562 1294 l 733 1294 l 543 1078 l 370 1078 z "},"ť":{"ha":573,"x_min":39,"x_max":593,"o":"m 422 1177 l 593 1177 l 559 835 l 422 835 l 422 1177 m 155 926 l 353 926 l 353 741 l 508 741 l 508 585 l 353 585 l 353 249 q 376 177 353 200 q 450 154 399 154 q 508 157 483 154 l 508 6 q 409 -3 463 -3 q 214 45 273 -3 q 155 202 155 92 l 155 585 l 39 585 l 39 741 l 155 741 l 155 926 z "},"Ŧ":{"ha":917,"x_min":62,"x_max":854,"o":"m 854 804 l 561 804 l 561 543 l 751 543 l 751 395 l 561 395 l 561 0 l 356 0 l 356 395 l 162 395 l 162 543 l 356 543 l 356 804 l 62 804 l 62 979 l 854 979 l 854 804 z "},"ŧ":{"ha":572,"x_min":38,"x_max":517,"o":"m 517 334 l 353 334 l 353 249 q 376 177 353 200 q 450 154 399 154 q 508 157 483 154 l 508 6 q 409 -3 463 -3 q 214 45 273 -3 q 155 202 155 92 l 155 334 l 38 334 l 38 444 l 155 444 l 155 585 l 39 585 l 39 741 l 155 741 l 155 926 l 353 926 l 353 741 l 508 741 l 508 585 l 353 585 l 353 444 l 517 444 l 517 334 z "},"Ũ":{"ha":1061,"x_min":121,"x_max":941,"o":"m 326 979 l 326 359 q 379 211 326 265 q 530 157 433 157 q 682 211 628 157 q 736 359 736 265 l 736 979 l 941 979 l 941 338 q 829 75 941 174 q 530 -25 718 -25 q 232 75 344 -25 q 121 338 121 174 l 121 979 l 326 979 m 629 1066 q 576 1076 601 1066 q 533 1101 551 1086 q 501 1129 516 1115 q 470 1154 486 1143 q 441 1164 455 1164 q 381 1068 382 1164 l 254 1068 q 303 1226 254 1166 q 431 1286 351 1286 q 485 1276 460 1286 q 527 1251 510 1265 q 560 1223 545 1237 q 590 1198 575 1208 q 620 1188 606 1188 q 680 1282 679 1188 l 806 1282 q 758 1125 806 1184 q 629 1066 709 1066 z "},"ũ":{"ha":875,"x_min":92,"x_max":776,"o":"m 776 748 l 776 0 l 585 0 l 585 120 l 572 120 q 354 -16 517 -16 q 162 57 233 -16 q 92 260 92 131 l 92 748 l 290 748 l 290 311 q 427 155 290 155 q 539 198 500 155 q 578 317 578 241 l 578 748 l 776 748 m 536 850 q 483 860 508 850 q 440 884 458 870 q 408 913 423 899 q 377 937 393 927 q 348 947 362 947 q 288 852 290 947 l 161 852 q 210 1010 161 950 q 338 1069 258 1069 q 392 1059 367 1069 q 434 1035 417 1049 q 467 1006 452 1021 q 497 982 482 992 q 527 972 513 972 q 587 1065 586 972 l 713 1065 q 665 909 713 968 q 536 850 616 850 z "},"Ū":{"ha":1061,"x_min":121,"x_max":941,"o":"m 326 979 l 326 359 q 379 211 326 265 q 530 157 433 157 q 682 211 628 157 q 736 359 736 265 l 736 979 l 941 979 l 941 338 q 829 75 941 174 q 530 -25 718 -25 q 232 75 344 -25 q 121 338 121 174 l 121 979 l 326 979 m 783 1230 l 783 1107 l 277 1107 l 277 1230 l 783 1230 z "},"ū":{"ha":875,"x_min":92,"x_max":776,"o":"m 776 748 l 776 0 l 585 0 l 585 120 l 572 120 q 354 -16 517 -16 q 162 57 233 -16 q 92 260 92 131 l 92 748 l 290 748 l 290 311 q 427 155 290 155 q 539 198 500 155 q 578 317 578 241 l 578 748 l 776 748 m 684 1015 l 684 892 l 185 892 l 185 1015 l 684 1015 z "},"Ŭ":{"ha":1061,"x_min":121,"x_max":941,"o":"m 326 979 l 326 359 q 379 211 326 265 q 530 157 433 157 q 682 211 628 157 q 736 359 736 265 l 736 979 l 941 979 l 941 338 q 829 75 941 174 q 530 -25 718 -25 q 232 75 344 -25 q 121 338 121 174 l 121 979 l 326 979 m 259 1299 l 400 1299 q 436 1218 401 1248 q 530 1187 471 1187 q 624 1218 589 1187 q 661 1299 659 1248 l 802 1299 q 728 1134 802 1197 q 530 1071 654 1071 q 333 1134 406 1071 q 259 1299 259 1197 z "},"ŭ":{"ha":875,"x_min":92,"x_max":776,"o":"m 776 748 l 776 0 l 585 0 l 585 120 l 572 120 q 354 -16 517 -16 q 162 57 233 -16 q 92 260 92 131 l 92 748 l 290 748 l 290 311 q 427 155 290 155 q 539 198 500 155 q 578 317 578 241 l 578 748 l 776 748 m 163 1086 l 303 1086 q 339 999 304 1031 q 433 966 374 966 q 528 999 493 966 q 564 1086 562 1031 l 705 1086 q 631 915 705 981 q 433 848 557 848 q 236 915 309 848 q 163 1086 163 981 z "},"Ů":{"ha":1061,"x_min":121,"x_max":941,"o":"m 326 979 l 326 359 q 379 211 326 265 q 530 157 433 157 q 682 211 628 157 q 736 359 736 265 l 736 979 l 941 979 l 941 338 q 829 75 941 174 q 530 -25 718 -25 q 232 75 344 -25 q 121 338 121 174 l 121 979 l 326 979 m 531 1048 q 431 1087 471 1048 q 391 1184 391 1125 q 431 1281 391 1242 q 531 1319 471 1319 q 630 1281 590 1319 q 669 1184 669 1242 q 630 1087 669 1125 q 531 1048 590 1048 m 530 1120 q 577 1138 559 1120 q 595 1183 595 1156 q 576 1229 595 1211 q 530 1247 558 1247 q 484 1229 503 1247 q 466 1183 466 1211 q 484 1138 466 1156 q 530 1120 503 1120 z "},"ů":{"ha":875,"x_min":92,"x_max":776,"o":"m 776 748 l 776 0 l 585 0 l 585 120 l 572 120 q 354 -16 517 -16 q 162 57 233 -16 q 92 260 92 131 l 92 748 l 290 748 l 290 311 q 427 155 290 155 q 539 198 500 155 q 578 317 578 241 l 578 748 l 776 748 m 553 895 q 529 872 553 895 q 434 848 505 848 q 315 895 363 848 q 267 1012 267 941 q 315 1127 267 1081 q 434 1173 363 1173 q 553 1127 505 1173 q 600 1012 600 1082 q 553 895 600 941 m 382 960 q 393 950 382 960 q 434 941 403 941 q 485 961 465 941 q 505 1011 505 981 q 485 1061 505 1041 q 434 1081 465 1081 q 382 1061 403 1081 q 362 1011 362 1041 q 382 960 362 980 z "},"Ű":{"ha":1061,"x_min":121,"x_max":941,"o":"m 326 979 l 326 359 q 379 211 326 265 q 530 157 433 157 q 682 211 628 157 q 736 359 736 265 l 736 979 l 941 979 l 941 338 q 829 75 941 174 q 530 -25 718 -25 q 232 75 344 -25 q 121 338 121 174 l 121 979 l 326 979 m 743 1078 l 577 1078 l 748 1294 l 931 1294 l 743 1078 m 446 1078 l 281 1078 l 451 1294 l 635 1294 l 446 1078 z "},"ű":{"ha":875,"x_min":92,"x_max":806,"o":"m 776 748 l 776 0 l 585 0 l 585 120 l 572 120 q 354 -16 517 -16 q 162 57 233 -16 q 92 260 92 131 l 92 748 l 290 748 l 290 311 q 427 155 290 155 q 539 198 500 155 q 578 317 578 241 l 578 748 l 776 748 m 486 869 l 630 1108 l 806 1108 l 642 869 l 486 869 m 191 869 l 334 1108 l 510 1108 l 346 869 l 191 869 z "},"Ų":{"ha":1061,"x_min":121,"x_max":941,"o":"m 716 -316 q 581 -274 633 -316 q 530 -168 530 -233 q 556 -84 530 -122 q 619 -24 582 -45 l 619 -12 q 530 -25 589 -25 q 233 74 346 -25 q 121 338 121 173 l 121 979 l 326 979 l 326 359 q 380 210 326 264 q 530 157 435 157 q 681 210 626 157 q 736 359 736 264 l 736 979 l 941 979 l 941 338 q 777 22 941 160 q 683 -125 683 -59 q 705 -175 683 -157 q 763 -194 726 -194 q 810 -189 795 -194 l 810 -302 q 716 -316 773 -316 z "},"ų":{"ha":875,"x_min":92,"x_max":776,"o":"m 751 -302 q 658 -316 713 -316 q 524 -274 576 -316 q 472 -164 472 -231 q 504 -71 472 -115 q 585 -5 536 -26 l 585 120 l 572 120 q 354 -16 517 -16 q 162 57 233 -16 q 92 260 92 131 l 92 748 l 290 748 l 290 311 q 427 155 290 155 q 539 198 500 155 q 578 317 578 241 l 578 748 l 776 748 l 776 0 l 751 -5 q 661 -53 696 -19 q 625 -129 625 -87 q 646 -176 625 -158 q 705 -194 667 -194 q 751 -189 739 -194 l 751 -302 z "},"Ŵ":{"ha":1402,"x_min":60,"x_max":1343,"o":"m 695 648 l 512 0 l 319 0 l 60 979 l 273 979 l 425 289 l 436 289 l 614 979 l 787 979 l 969 289 l 980 289 l 1131 979 l 1343 979 l 1083 0 l 891 0 l 706 648 l 695 648 m 609 1305 l 793 1305 l 986 1078 l 806 1078 l 707 1205 l 695 1205 l 596 1078 l 416 1078 l 609 1305 z "},"ŵ":{"ha":1177,"x_min":41,"x_max":1135,"o":"m 1135 748 l 937 0 l 726 0 l 593 516 l 581 516 l 448 0 l 241 0 l 41 748 l 241 748 l 353 212 l 365 212 l 496 748 l 684 748 l 816 212 l 828 212 l 939 748 l 1135 748 m 688 1088 l 875 848 l 696 848 l 596 990 l 584 990 l 483 848 l 304 848 l 491 1088 l 688 1088 z "},"Ŷ":{"ha":985,"x_min":49,"x_max":935,"o":"m 595 0 l 390 0 l 390 360 l 49 979 l 271 979 l 486 569 l 498 569 l 713 979 l 935 979 l 595 360 l 595 0 m 400 1305 l 585 1305 l 777 1078 l 597 1078 l 498 1205 l 486 1205 l 387 1078 l 208 1078 l 400 1305 z "},"ŷ":{"ha":829,"x_min":38,"x_max":791,"o":"m 192 -272 q 117 -270 129 -272 l 117 -111 q 161 -113 123 -113 q 250 -93 218 -113 q 294 -32 281 -74 l 300 -5 l 38 748 l 256 748 l 413 181 l 425 181 l 583 748 l 791 748 l 534 -12 q 409 -214 486 -155 q 192 -272 332 -272 m 516 1088 l 703 848 l 524 848 l 424 990 l 412 990 l 311 848 l 132 848 l 319 1088 l 516 1088 z "},"Ÿ":{"ha":985,"x_min":49,"x_max":935,"o":"m 595 0 l 390 0 l 390 360 l 49 979 l 271 979 l 486 569 l 498 569 l 713 979 l 935 979 l 595 360 l 595 0 m 409 1100 q 394 1085 409 1100 q 334 1071 379 1071 q 258 1100 288 1071 q 229 1174 229 1129 q 258 1247 229 1219 q 334 1276 288 1276 q 409 1247 380 1276 q 439 1174 439 1219 q 409 1100 439 1129 m 651 1071 q 576 1100 606 1071 q 546 1174 546 1129 q 576 1247 546 1219 q 651 1276 606 1276 q 727 1247 697 1276 q 757 1174 757 1219 q 727 1100 757 1129 q 651 1071 697 1071 z "},"Ź":{"ha":939,"x_min":92,"x_max":847,"o":"m 92 0 l 92 138 l 584 791 l 584 804 l 103 804 l 103 979 l 833 979 l 833 841 l 342 187 l 342 175 l 847 175 l 847 0 l 92 0 m 562 1078 l 374 1078 l 562 1294 l 775 1294 l 562 1078 z "},"ź":{"ha":787,"x_min":82,"x_max":705,"o":"m 82 0 l 82 117 l 460 578 l 460 591 l 87 591 l 87 748 l 696 748 l 696 618 l 340 170 l 340 157 l 705 157 l 705 0 l 82 0 m 469 869 l 286 869 l 454 1108 l 663 1108 l 469 869 z "},"Ż":{"ha":939,"x_min":92,"x_max":847,"o":"m 92 0 l 92 138 l 584 791 l 584 804 l 103 804 l 103 979 l 833 979 l 833 841 l 342 187 l 342 175 l 847 175 l 847 0 l 92 0 m 546 1101 q 531 1086 546 1101 q 469 1071 516 1071 q 392 1101 422 1071 q 362 1178 362 1132 q 392 1255 362 1224 q 469 1285 422 1285 q 546 1255 516 1285 q 576 1178 576 1224 q 546 1101 576 1132 z "},"ż":{"ha":787,"x_min":82,"x_max":705,"o":"m 82 0 l 82 117 l 460 578 l 460 591 l 87 591 l 87 748 l 696 748 l 696 618 l 340 170 l 340 157 l 705 157 l 705 0 l 82 0 m 470 898 q 454 882 470 898 q 391 867 439 867 q 313 898 344 867 q 282 975 282 928 q 313 1053 282 1022 q 391 1084 344 1084 q 470 1053 439 1084 q 500 975 500 1022 q 470 898 500 928 z "},"Ž":{"ha":939,"x_min":92,"x_max":847,"o":"m 92 0 l 92 138 l 584 791 l 584 804 l 103 804 l 103 979 l 833 979 l 833 841 l 342 187 l 342 175 l 847 175 l 847 0 l 92 0 m 383 1078 l 193 1294 l 364 1294 l 463 1177 l 476 1177 l 574 1294 l 746 1294 l 555 1078 l 383 1078 z "},"ž":{"ha":787,"x_min":82,"x_max":705,"o":"m 82 0 l 82 117 l 460 578 l 460 591 l 87 591 l 87 748 l 696 748 l 696 618 l 340 170 l 340 157 l 705 157 l 705 0 l 82 0 m 490 848 l 292 848 l 106 1088 l 284 1088 l 385 947 l 397 947 l 498 1088 l 676 1088 l 490 848 z "},"Ə":{"ha":1052,"x_min":75,"x_max":970,"o":"m 522 -25 q 195 109 314 -25 q 75 467 77 243 l 77 541 l 755 541 l 755 551 q 687 749 755 671 q 510 827 618 827 q 294 694 349 827 l 86 694 q 237 921 123 839 q 511 1004 351 1004 q 845 863 720 1004 q 970 488 970 723 q 914 219 970 336 q 756 39 858 102 q 522 -25 654 -25 m 524 152 q 679 216 616 152 q 753 387 742 280 l 291 387 q 362 215 300 279 q 524 152 425 152 z "},"ƒ":{"ha":960,"x_min":73,"x_max":882,"o":"m 882 979 l 882 813 q 768 825 838 825 q 660 793 699 825 q 612 696 622 762 l 595 591 l 832 591 l 832 444 l 572 444 l 544 260 q 442 51 522 117 q 219 -16 362 -16 q 73 -1 137 -16 l 73 166 q 194 149 132 149 q 293 179 255 149 q 340 271 330 210 l 367 444 l 153 444 l 153 591 l 390 591 l 410 719 q 745 989 452 989 q 882 979 827 989 z "},"Ơ":{"ha":1129,"x_min":75,"x_max":1069,"o":"m 547 -25 q 202 113 329 -25 q 75 490 75 252 q 203 865 75 727 q 547 1004 330 1004 q 697 986 607 1004 q 840 969 787 969 q 896 984 878 969 q 913 1029 913 999 l 913 1141 l 1069 1141 l 1069 982 q 1032 878 1069 915 q 929 840 995 840 l 888 840 l 888 829 q 981 692 945 786 q 1017 490 1017 599 q 890 113 1017 252 q 547 -25 764 -25 m 547 155 q 737 245 666 155 q 808 490 808 336 q 737 733 808 643 q 547 824 666 824 q 356 733 427 824 q 285 490 285 643 q 356 245 285 336 q 547 155 427 155 z "},"ơ":{"ha":928,"x_min":62,"x_max":861,"o":"m 309 205 q 330 175 309 205 q 431 145 352 145 q 553 205 509 145 q 596 374 596 265 q 552 543 596 482 q 431 603 509 603 q 309 543 353 603 q 265 374 265 482 q 309 205 265 265 m 799 374 q 701 87 799 191 q 431 -16 604 -16 q 160 87 258 -16 q 62 374 62 191 q 161 660 62 555 q 431 764 260 764 q 540 752 482 764 q 629 739 597 739 q 687 752 671 739 q 704 796 704 765 l 704 895 l 861 895 l 861 744 q 828 648 861 682 q 739 614 796 614 l 707 614 l 707 604 q 773 513 747 577 q 799 374 799 449 z "},"Ư":{"ha":1187,"x_min":121,"x_max":1158,"o":"m 530 -25 q 233 74 345 -25 q 121 338 121 173 l 121 979 l 326 979 l 326 359 q 380 211 326 264 q 530 157 435 157 q 681 210 626 157 q 736 359 736 264 l 736 979 l 948 979 q 1002 1030 1002 979 l 1002 1155 l 1158 1155 l 1158 989 q 1117 881 1158 920 q 1004 843 1076 843 l 941 843 l 941 338 q 828 74 941 173 q 530 -25 716 -25 z "},"ư":{"ha":1023,"x_min":92,"x_max":986,"o":"m 572 120 q 354 -16 517 -16 q 162 58 231 -16 q 92 260 92 132 l 92 748 l 290 748 l 290 311 q 427 155 290 155 q 539 198 500 155 q 578 317 578 241 l 578 748 l 776 748 q 829 800 829 748 l 829 907 l 986 907 l 986 759 q 945 651 986 689 q 832 612 903 612 l 776 612 l 776 0 l 585 0 l 585 120 l 572 120 z "},"Ǆ":{"ha":1983,"x_min":119,"x_max":1891,"o":"m 119 979 l 504 979 q 843 853 722 979 q 963 496 963 726 q 843 129 963 258 q 504 0 724 0 l 119 0 l 119 979 m 323 804 l 323 175 l 471 175 q 681 257 608 175 q 754 493 754 338 q 680 723 754 641 q 471 804 605 804 l 323 804 m 1136 0 l 1136 138 l 1628 791 l 1628 804 l 1147 804 l 1147 979 l 1878 979 l 1878 841 l 1387 187 l 1387 175 l 1891 175 l 1891 0 l 1136 0 m 1428 1078 l 1237 1294 l 1409 1294 l 1507 1177 l 1520 1177 l 1619 1294 l 1790 1294 l 1600 1078 l 1428 1078 z "},"ǅ":{"ha":1831,"x_min":119,"x_max":1750,"o":"m 119 979 l 504 979 q 843 853 722 979 q 963 496 963 726 q 843 129 963 258 q 504 0 724 0 l 119 0 l 119 979 m 323 804 l 323 175 l 471 175 q 681 257 608 175 q 754 493 754 338 q 680 723 754 641 q 471 804 605 804 l 323 804 m 1126 0 l 1126 117 l 1505 578 l 1505 591 l 1132 591 l 1132 748 l 1741 748 l 1741 618 l 1384 170 l 1384 157 l 1750 157 l 1750 0 l 1126 0 m 1534 848 l 1337 848 l 1150 1088 l 1329 1088 l 1430 947 l 1442 947 l 1542 1088 l 1721 1088 l 1534 848 z "},"ǆ":{"ha":1697,"x_min":62,"x_max":1616,"o":"m 367 -12 q 144 92 226 -12 q 62 375 62 196 q 144 657 62 553 q 367 760 226 760 q 502 725 443 760 q 590 629 561 690 l 602 629 l 602 1034 l 799 1034 l 799 0 l 608 0 l 608 117 l 595 117 q 505 23 566 57 q 367 -12 445 -12 m 558 535 q 535 565 558 535 q 434 595 513 595 q 310 536 355 595 q 265 374 265 477 q 310 212 265 271 q 434 153 355 153 q 558 212 513 153 q 604 374 604 271 q 558 535 604 476 m 993 0 l 993 117 l 1371 578 l 1371 591 l 998 591 l 998 748 l 1607 748 l 1607 618 l 1251 170 l 1251 157 l 1616 157 l 1616 0 l 993 0 m 1400 848 l 1203 848 l 1017 1088 l 1195 1088 l 1296 947 l 1308 947 l 1409 1088 l 1587 1088 l 1400 848 z "},"Ǉ":{"ha":1657,"x_min":119,"x_max":1539,"o":"m 759 178 l 759 0 l 119 0 l 119 979 l 323 979 l 323 178 l 759 178 m 874 288 l 1072 288 q 1109 193 1074 229 q 1204 158 1145 158 q 1300 196 1267 158 q 1334 305 1334 233 l 1334 979 l 1539 979 l 1539 304 q 1451 61 1539 146 q 1206 -25 1363 -25 q 965 60 1055 -25 q 874 288 874 144 z "},"ǈ":{"ha":1227,"x_min":119,"x_max":1139,"o":"m 759 178 l 759 0 l 119 0 l 119 979 l 323 979 l 323 178 l 759 178 m 1120 748 l 1120 -23 q 1053 -196 1120 -138 q 856 -255 986 -255 q 803 -252 819 -255 l 803 -101 q 828 -102 807 -102 q 901 -82 880 -102 q 923 -18 923 -62 l 923 748 l 1120 748 m 1022 852 q 937 880 969 852 q 905 952 905 908 q 937 1024 905 997 q 1022 1052 969 1052 q 1107 1024 1075 1052 q 1139 952 1139 997 q 1106 880 1139 908 q 1022 852 1074 852 z "},"ǉ":{"ha":810,"x_min":106,"x_max":721,"o":"m 106 0 l 106 1034 l 303 1034 l 303 0 l 106 0 m 703 748 l 703 -23 q 635 -196 703 -138 q 438 -255 568 -255 q 385 -252 401 -255 l 385 -101 q 410 -102 389 -102 q 484 -82 462 -102 q 505 -18 505 -62 l 505 748 l 703 748 m 604 852 q 519 880 551 852 q 488 952 488 908 q 519 1024 488 997 q 604 1052 551 1052 q 689 1024 657 1052 q 721 952 721 997 q 689 880 721 908 q 604 852 656 852 z "},"Ǌ":{"ha":1902,"x_min":119,"x_max":1783,"o":"m 315 0 l 119 0 l 119 979 l 290 979 l 740 369 l 752 369 l 752 979 l 948 979 l 948 0 l 779 0 l 327 612 l 315 612 l 315 0 m 1118 288 l 1316 288 q 1353 193 1318 229 q 1448 158 1389 158 q 1545 196 1511 158 q 1578 305 1578 233 l 1578 979 l 1783 979 l 1783 304 q 1695 61 1783 146 q 1451 -25 1607 -25 q 1209 60 1299 -25 q 1118 288 1118 144 z "},"ǋ":{"ha":1472,"x_min":119,"x_max":1383,"o":"m 315 0 l 119 0 l 119 979 l 290 979 l 740 369 l 752 369 l 752 979 l 948 979 l 948 0 l 779 0 l 327 612 l 315 612 l 315 0 m 1364 748 l 1364 -23 q 1297 -196 1364 -138 q 1100 -255 1230 -255 q 1047 -252 1063 -255 l 1047 -101 q 1072 -102 1051 -102 q 1145 -82 1124 -102 q 1167 -18 1167 -62 l 1167 748 l 1364 748 m 1266 852 q 1181 880 1213 852 q 1149 952 1149 908 q 1181 1024 1149 997 q 1266 1052 1213 1052 q 1351 1024 1319 1052 q 1383 952 1383 997 q 1351 880 1383 908 q 1266 852 1318 852 z "},"ǌ":{"ha":1270,"x_min":99,"x_max":1187,"o":"m 99 0 l 99 748 l 290 748 l 290 628 l 302 628 q 386 728 329 692 q 524 764 442 764 q 713 691 648 764 q 779 484 779 618 l 779 0 l 582 0 l 582 437 q 444 594 582 594 q 336 550 376 594 q 296 431 296 505 l 296 0 l 99 0 m 1169 748 l 1169 -23 q 1102 -196 1169 -138 q 905 -255 1035 -255 q 852 -252 868 -255 l 852 -101 q 877 -102 856 -102 q 950 -82 928 -102 q 972 -18 972 -62 l 972 748 l 1169 748 m 1071 852 q 986 880 1018 852 q 954 952 954 908 q 986 1024 954 997 q 1071 1052 1018 1052 q 1156 1024 1124 1052 q 1187 952 1187 997 q 1155 880 1187 908 q 1071 852 1123 852 z "},"Ǎ":{"ha":1017,"x_min":49,"x_max":969,"o":"m 747 0 l 673 233 l 330 233 l 254 0 l 49 0 l 389 979 l 629 979 l 969 0 l 747 0 m 496 775 l 374 391 l 630 391 l 509 775 l 496 775 m 422 1078 l 232 1294 l 404 1294 l 502 1177 l 515 1177 l 614 1294 l 785 1294 l 595 1078 l 422 1078 z "},"ǎ":{"ha":819,"x_min":59,"x_max":724,"o":"m 369 137 q 484 176 437 137 q 530 271 530 214 l 530 326 l 378 317 q 252 227 252 308 q 284 161 252 185 q 369 137 317 137 m 304 -12 q 127 50 195 -12 q 59 214 59 112 q 134 373 59 315 q 349 439 209 431 l 530 450 l 530 511 q 497 583 530 557 q 404 608 465 608 q 269 539 294 608 l 87 539 q 185 704 96 643 q 414 764 273 764 q 643 698 562 764 q 724 511 724 631 l 724 0 l 533 0 l 533 98 l 521 98 q 434 17 492 46 q 304 -12 376 -12 m 513 848 l 315 848 l 129 1088 l 307 1088 l 408 947 l 420 947 l 521 1088 l 699 1088 l 513 848 z "},"Ǐ":{"ha":442,"x_min":-56,"x_max":498,"o":"m 323 0 l 119 0 l 119 979 l 323 979 l 323 0 m 135 1078 l -56 1294 l 116 1294 l 214 1177 l 228 1177 l 326 1294 l 498 1294 l 307 1078 l 135 1078 z "},"ǐ":{"ha":398,"x_min":-86,"x_max":484,"o":"m 100 0 l 100 748 l 298 748 l 298 0 l 100 0 m 298 848 l 100 848 l -86 1088 l 92 1088 l 193 947 l 205 947 l 306 1088 l 484 1088 l 298 848 z "},"Ǒ":{"ha":1092,"x_min":75,"x_max":1017,"o":"m 547 1004 q 890 865 764 1004 q 1017 490 1017 727 q 890 113 1017 252 q 547 -25 764 -25 q 202 113 329 -25 q 75 490 75 252 q 203 865 75 727 q 547 1004 330 1004 m 737 733 q 701 779 737 733 q 547 824 666 824 q 356 733 427 824 q 285 490 285 643 q 356 245 285 336 q 547 155 427 155 q 737 245 666 155 q 808 490 808 336 q 737 733 808 643 m 460 1078 l 270 1294 l 441 1294 l 540 1177 l 553 1177 l 652 1294 l 823 1294 l 633 1078 l 460 1078 z "},"ǒ":{"ha":861,"x_min":62,"x_max":799,"o":"m 701 87 q 652 36 701 87 q 431 -16 603 -16 q 160 87 258 -16 q 62 374 62 191 q 161 660 62 556 q 431 764 260 764 q 700 660 602 764 q 799 374 799 556 q 701 87 799 191 m 431 145 q 553 205 509 145 q 596 374 596 265 q 552 543 596 482 q 431 603 509 603 q 309 543 352 603 q 265 374 265 482 q 308 205 265 265 q 431 145 351 145 m 529 848 l 332 848 l 145 1088 l 323 1088 l 425 947 l 437 947 l 537 1088 l 715 1088 l 529 848 z "},"Ǔ":{"ha":1061,"x_min":121,"x_max":941,"o":"m 326 979 l 326 359 q 379 211 326 265 q 530 157 433 157 q 682 211 628 157 q 736 359 736 265 l 736 979 l 941 979 l 941 338 q 829 75 941 174 q 530 -25 718 -25 q 232 75 344 -25 q 121 338 121 174 l 121 979 l 326 979 m 444 1078 l 254 1294 l 425 1294 l 524 1177 l 537 1177 l 635 1294 l 807 1294 l 616 1078 l 444 1078 z "},"ǔ":{"ha":875,"x_min":92,"x_max":776,"o":"m 776 748 l 776 0 l 585 0 l 585 120 l 572 120 q 354 -16 517 -16 q 162 57 233 -16 q 92 260 92 131 l 92 748 l 290 748 l 290 311 q 427 155 290 155 q 539 198 500 155 q 578 317 578 241 l 578 748 l 776 748 m 532 848 l 335 848 l 149 1088 l 327 1088 l 428 947 l 440 947 l 541 1088 l 719 1088 l 532 848 z "},"Ǖ":{"ha":1061,"x_min":121,"x_max":941,"o":"m 326 979 l 326 359 q 379 211 326 265 q 530 157 433 157 q 682 211 628 157 q 736 359 736 265 l 736 979 l 941 979 l 941 338 q 829 75 941 174 q 530 -25 718 -25 q 232 75 344 -25 q 121 338 121 174 l 121 979 l 326 979 m 372 1274 q 446 1245 416 1274 q 475 1173 475 1217 q 446 1100 475 1128 q 372 1071 416 1071 q 297 1100 326 1071 q 267 1173 267 1128 q 297 1245 267 1217 q 372 1274 326 1274 m 277 1468 l 783 1468 l 783 1354 l 277 1354 l 277 1468 m 689 1274 q 764 1245 734 1274 q 793 1173 793 1217 q 764 1100 793 1128 q 689 1071 734 1071 q 615 1100 644 1071 q 585 1173 585 1128 q 615 1245 585 1217 q 689 1274 644 1274 z "},"ǖ":{"ha":875,"x_min":92,"x_max":776,"o":"m 776 748 l 776 0 l 585 0 l 585 120 l 572 120 q 354 -16 517 -16 q 162 57 233 -16 q 92 260 92 131 l 92 748 l 290 748 l 290 311 q 427 155 290 155 q 539 198 500 155 q 578 317 578 241 l 578 748 l 776 748 m 284 848 q 213 877 241 848 q 184 947 184 905 q 213 1017 184 989 q 284 1045 241 1045 q 355 1017 327 1045 q 382 947 382 989 q 355 877 382 905 q 284 848 327 848 m 584 848 q 513 877 541 848 q 486 947 486 905 q 513 1017 486 989 q 584 1045 541 1045 q 655 1017 627 1045 q 684 947 684 989 q 655 877 684 905 q 584 848 627 848 m 684 1260 l 684 1138 l 185 1138 l 185 1260 l 684 1260 z "},"Ǘ":{"ha":1061,"x_min":121,"x_max":941,"o":"m 326 979 l 326 359 q 379 211 326 265 q 530 157 433 157 q 682 211 628 157 q 736 359 736 265 l 736 979 l 941 979 l 941 338 q 829 75 941 174 q 530 -25 718 -25 q 232 75 344 -25 q 121 338 121 174 l 121 979 l 326 979 m 449 1314 l 562 1478 l 760 1478 l 612 1314 l 449 1314 m 372 1071 q 296 1100 326 1071 q 266 1174 266 1129 q 296 1248 266 1219 q 372 1277 326 1277 q 447 1248 417 1277 q 477 1174 477 1219 q 447 1100 477 1129 q 372 1071 417 1071 m 689 1071 q 614 1100 644 1071 q 584 1174 584 1129 q 614 1248 584 1219 q 689 1277 644 1277 q 765 1248 735 1277 q 795 1174 795 1219 q 765 1100 795 1129 q 689 1071 735 1071 z "},"ǘ":{"ha":875,"x_min":92,"x_max":776,"o":"m 776 748 l 776 0 l 585 0 l 585 120 l 572 120 q 354 -16 517 -16 q 162 57 233 -16 q 92 260 92 131 l 92 748 l 290 748 l 290 311 q 427 155 290 155 q 539 198 500 155 q 578 317 578 241 l 578 748 l 776 748 m 347 1112 l 488 1329 l 678 1329 l 511 1112 l 347 1112 m 351 880 q 336 865 351 880 q 275 850 321 850 q 200 880 230 850 q 170 954 170 909 q 200 1027 170 998 q 275 1056 229 1056 q 351 1027 321 1056 q 380 954 380 998 q 351 880 380 909 m 593 850 q 517 880 547 850 q 488 954 488 909 q 517 1027 488 998 q 593 1056 547 1056 q 669 1027 639 1056 q 699 954 699 998 q 669 880 699 909 q 593 850 639 850 z "},"Ǚ":{"ha":1061,"x_min":121,"x_max":941,"o":"m 326 979 l 326 359 q 379 211 326 265 q 530 157 433 157 q 682 211 628 157 q 736 359 736 265 l 736 979 l 941 979 l 941 338 q 829 75 941 174 q 530 -25 718 -25 q 232 75 344 -25 q 121 338 121 174 l 121 979 l 326 979 m 439 1295 l 250 1499 l 429 1499 l 524 1386 l 537 1386 l 632 1499 l 810 1499 l 622 1295 l 439 1295 m 298 1229 q 312 1243 298 1229 q 372 1257 327 1257 q 445 1229 416 1257 q 474 1159 474 1201 q 445 1088 474 1116 q 372 1061 416 1061 q 298 1088 327 1061 q 269 1159 269 1116 q 298 1229 269 1201 m 615 1229 q 630 1243 615 1229 q 689 1257 644 1257 q 763 1229 734 1257 q 792 1159 792 1201 q 763 1088 792 1116 q 689 1061 734 1061 q 615 1088 644 1061 q 587 1159 587 1116 q 615 1229 587 1201 z "},"ǚ":{"ha":875,"x_min":92,"x_max":776,"o":"m 776 748 l 776 0 l 585 0 l 585 120 l 572 120 q 354 -16 517 -16 q 162 57 233 -16 q 92 260 92 131 l 92 748 l 290 748 l 290 311 q 427 155 290 155 q 539 198 500 155 q 578 317 578 241 l 578 748 l 776 748 m 284 848 q 213 877 241 848 q 184 947 184 905 q 213 1017 184 989 q 284 1045 241 1045 q 355 1017 327 1045 q 382 947 382 989 q 355 877 382 905 q 284 848 327 848 m 584 848 q 513 877 541 848 q 486 947 486 905 q 513 1017 486 989 q 584 1045 541 1045 q 655 1017 627 1045 q 684 947 684 989 q 655 877 684 905 q 584 848 627 848 m 527 1100 l 341 1100 l 157 1335 l 328 1335 l 428 1194 l 440 1194 l 541 1335 l 711 1335 l 527 1100 z "},"Ǜ":{"ha":1061,"x_min":121,"x_max":941,"o":"m 326 979 l 326 359 q 379 211 326 265 q 530 157 433 157 q 682 211 628 157 q 736 359 736 265 l 736 979 l 941 979 l 941 338 q 829 75 941 174 q 530 -25 718 -25 q 232 75 344 -25 q 121 338 121 174 l 121 979 l 326 979 m 618 1314 l 455 1314 l 307 1478 l 505 1478 l 618 1314 m 372 1071 q 296 1100 326 1071 q 266 1174 266 1129 q 296 1248 266 1219 q 372 1277 326 1277 q 447 1248 417 1277 q 477 1174 477 1219 q 447 1100 477 1129 q 372 1071 417 1071 m 689 1071 q 614 1100 644 1071 q 584 1174 584 1129 q 614 1248 584 1219 q 689 1277 644 1277 q 765 1248 735 1277 q 795 1174 795 1219 q 765 1100 795 1129 q 689 1071 735 1071 z "},"ǜ":{"ha":875,"x_min":92,"x_max":776,"o":"m 776 748 l 776 0 l 585 0 l 585 120 l 572 120 q 354 -16 517 -16 q 162 57 233 -16 q 92 260 92 131 l 92 748 l 290 748 l 290 311 q 427 155 290 155 q 539 198 500 155 q 578 317 578 241 l 578 748 l 776 748 m 521 1112 l 357 1112 l 190 1329 l 380 1329 l 521 1112 m 351 882 q 336 868 351 882 q 275 853 321 853 q 200 882 230 853 q 170 956 170 911 q 200 1030 170 1001 q 275 1059 229 1059 q 351 1030 321 1059 q 380 956 380 1001 q 351 882 380 911 m 593 853 q 517 882 547 853 q 488 956 488 911 q 517 1030 488 1001 q 593 1059 547 1059 q 669 1030 639 1059 q 699 956 699 1001 q 669 882 699 911 q 593 853 639 853 z "},"ǝ":{"ha":848,"x_min":67,"x_max":779,"o":"m 420 136 q 533 180 489 136 q 582 300 578 225 l 262 300 q 306 180 263 224 q 420 136 349 136 m 260 535 l 77 535 q 193 702 102 640 q 416 764 283 764 q 682 661 585 764 q 779 380 779 558 q 684 89 779 195 q 420 -16 589 -16 q 159 87 252 -16 q 67 380 67 191 l 69 426 l 583 426 l 583 433 q 536 564 583 515 q 412 613 490 613 q 260 535 298 613 z "},"Ǟ":{"ha":1017,"x_min":49,"x_max":969,"o":"m 747 0 l 673 233 l 330 233 l 254 0 l 49 0 l 389 979 l 629 979 l 969 0 l 747 0 m 496 775 l 374 391 l 630 391 l 509 775 l 496 775 m 350 1274 q 424 1245 395 1274 q 454 1173 454 1217 q 424 1100 454 1128 q 350 1071 395 1071 q 275 1100 304 1071 q 245 1173 245 1128 q 275 1245 245 1217 q 350 1274 304 1274 m 256 1468 l 762 1468 l 762 1354 l 256 1354 l 256 1468 m 667 1274 q 742 1245 713 1274 q 772 1173 772 1217 q 742 1100 772 1128 q 667 1071 713 1071 q 593 1100 623 1071 q 564 1173 564 1128 q 593 1245 564 1217 q 667 1274 623 1274 z "},"ǟ":{"ha":819,"x_min":59,"x_max":724,"o":"m 369 137 q 484 176 437 137 q 530 271 530 214 l 530 326 l 378 317 q 252 227 252 308 q 284 161 252 185 q 369 137 317 137 m 304 -12 q 127 50 195 -12 q 59 214 59 112 q 134 373 59 315 q 349 439 209 431 l 530 450 l 530 511 q 497 583 530 557 q 404 608 465 608 q 269 539 294 608 l 87 539 q 185 704 96 643 q 414 764 273 764 q 643 698 562 764 q 724 511 724 631 l 724 0 l 533 0 l 533 98 l 521 98 q 434 17 492 46 q 304 -12 376 -12 m 264 848 q 193 877 221 848 q 165 947 165 905 q 193 1017 165 989 q 264 1045 221 1045 q 335 1017 307 1045 q 363 947 363 989 q 335 877 363 905 q 264 848 307 848 m 564 848 q 494 877 522 848 q 466 947 466 905 q 494 1017 466 989 q 564 1045 522 1045 q 636 1017 608 1045 q 664 947 664 989 q 636 877 664 905 q 564 848 608 848 m 664 1260 l 664 1138 l 165 1138 l 165 1260 l 664 1260 z "},"Ǡ":{"ha":1017,"x_min":49,"x_max":969,"o":"m 747 0 l 673 233 l 330 233 l 254 0 l 49 0 l 389 979 l 629 979 l 969 0 l 747 0 m 496 775 l 374 391 l 630 391 l 509 775 l 496 775 m 585 1097 q 570 1083 585 1097 q 509 1068 555 1068 q 433 1097 463 1068 q 403 1170 403 1126 q 433 1242 403 1213 q 509 1270 463 1270 q 585 1242 555 1270 q 614 1170 614 1213 q 585 1097 614 1126 m 762 1468 l 762 1354 l 256 1354 l 256 1468 l 762 1468 z "},"ǡ":{"ha":819,"x_min":59,"x_max":724,"o":"m 369 137 q 484 176 437 137 q 530 271 530 214 l 530 326 l 378 317 q 252 227 252 308 q 284 161 252 185 q 369 137 317 137 m 304 -12 q 127 50 195 -12 q 59 214 59 112 q 134 373 59 315 q 349 439 209 431 l 530 450 l 530 511 q 497 583 530 557 q 404 608 465 608 q 269 539 294 608 l 87 539 q 185 704 96 643 q 414 764 273 764 q 643 698 562 764 q 724 511 724 631 l 724 0 l 533 0 l 533 98 l 521 98 q 434 17 492 46 q 304 -12 376 -12 m 488 877 q 474 863 488 877 q 414 848 459 848 q 341 877 370 848 q 312 949 312 906 q 341 1023 312 994 q 414 1052 370 1052 q 488 1023 459 1052 q 517 949 517 994 q 488 877 517 906 m 664 1260 l 664 1138 l 165 1138 l 165 1260 l 664 1260 z "},"Ǣ":{"ha":1396,"x_min":49,"x_max":1300,"o":"m 584 815 l 415 406 l 671 406 l 671 815 l 584 815 m 671 0 l 671 247 l 356 247 l 252 0 l 49 0 l 452 979 l 1300 979 l 1300 804 l 859 804 l 859 572 l 1275 572 l 1275 410 l 859 410 l 859 175 l 1300 175 l 1300 0 l 671 0 m 1286 1230 l 1286 1107 l 780 1107 l 780 1230 l 1286 1230 z "},"ǣ":{"ha":1290,"x_min":59,"x_max":1223,"o":"m 892 -16 q 732 20 804 -16 q 627 118 661 56 l 614 118 q 499 19 571 55 q 338 -16 428 -16 q 135 47 212 -16 q 59 214 59 111 q 134 373 59 315 q 349 439 209 431 l 530 450 l 530 499 q 496 581 530 553 q 404 608 463 608 q 269 539 294 608 l 87 539 q 181 701 96 638 q 393 764 267 764 q 635 657 564 764 l 648 657 q 750 735 687 706 q 889 764 814 764 q 1133 664 1044 764 q 1223 392 1223 564 l 1223 328 l 716 328 l 716 311 q 766 183 719 231 q 890 136 814 136 q 1034 213 995 136 l 1216 213 q 1107 45 1194 107 q 892 -16 1020 -16 m 877 613 q 764 569 808 613 q 716 454 720 526 l 1029 454 q 984 569 1027 525 q 877 613 942 613 m 372 135 q 486 174 442 135 q 530 269 530 214 l 530 326 l 378 317 q 252 225 252 308 q 285 159 252 183 q 372 135 318 135 m 916 1015 l 916 892 l 418 892 l 418 1015 l 916 1015 z "},"Ǧ":{"ha":1056,"x_min":75,"x_max":979,"o":"m 979 399 q 862 89 979 203 q 545 -25 745 -25 q 201 113 326 -25 q 75 490 75 250 q 201 865 75 727 q 540 1004 326 1004 q 831 911 713 1004 q 970 667 948 819 l 766 667 q 684 782 743 741 q 540 823 625 823 q 353 735 421 823 q 285 492 285 646 q 356 245 285 336 q 548 155 427 155 q 712 210 648 155 q 779 353 776 264 l 780 370 l 568 370 l 568 524 l 979 524 l 979 399 m 454 1079 l 263 1295 l 435 1295 l 533 1177 l 547 1177 l 645 1295 l 817 1295 l 626 1079 l 454 1079 z "},"ǧ":{"ha":897,"x_min":60,"x_max":798,"o":"m 307 224 q 329 195 307 224 q 431 167 351 167 q 557 224 511 167 q 602 380 602 281 q 556 537 602 479 q 431 595 511 595 q 308 537 352 595 q 263 381 263 480 q 307 224 263 281 m 429 -283 q 188 -223 281 -283 q 86 -64 96 -163 l 281 -64 q 329 -119 289 -99 q 433 -140 369 -140 q 556 -105 512 -140 q 600 -7 600 -70 l 600 132 l 588 132 q 363 11 524 11 q 142 111 223 11 q 60 380 60 211 q 143 657 60 555 q 367 760 225 760 q 504 725 443 760 q 594 628 564 690 l 606 628 l 606 748 l 798 748 l 798 3 q 698 -206 798 -129 q 429 -283 598 -283 m 535 848 l 338 848 l 151 1088 l 330 1088 l 431 947 l 443 947 l 543 1088 l 722 1088 l 535 848 z "},"Ǩ":{"ha":985,"x_min":119,"x_max":950,"o":"m 323 0 l 119 0 l 119 979 l 323 979 l 323 543 l 336 543 l 697 979 l 925 979 l 568 549 l 950 0 l 705 0 l 420 410 l 323 295 l 323 0 m 390 1078 l 199 1294 l 371 1294 l 469 1177 l 483 1177 l 581 1294 l 753 1294 l 562 1078 l 390 1078 z "},"ǩ":{"ha":836,"x_min":-72,"x_max":810,"o":"m 315 456 l 566 748 l 790 748 l 505 427 l 810 0 l 576 0 l 357 304 l 303 248 l 303 0 l 106 0 l 106 1034 l 303 1034 l 303 456 l 315 456 m 119 1133 l -72 1349 l 100 1349 l 198 1232 l 212 1232 l 310 1349 l 481 1349 l 291 1133 l 119 1133 z "},"Ǫ":{"ha":1092,"x_min":75,"x_max":1017,"o":"m 721 -316 q 587 -275 639 -316 q 535 -168 535 -233 q 560 -85 535 -124 q 624 -24 585 -47 l 624 -12 q 547 -25 602 -25 q 202 113 329 -25 q 75 490 75 252 q 202 865 75 726 q 547 1004 330 1004 q 890 865 764 1004 q 1017 490 1017 727 q 961 224 1017 339 q 786 18 905 109 q 688 -125 688 -58 q 709 -175 688 -156 q 768 -194 730 -194 q 814 -189 802 -194 l 814 -302 q 721 -316 776 -316 m 737 733 q 701 779 737 733 q 547 824 666 824 q 356 733 427 824 q 285 490 285 642 q 356 245 285 336 q 547 155 427 155 q 737 245 666 155 q 808 490 808 336 q 737 733 808 642 z "},"ǫ":{"ha":861,"x_min":62,"x_max":799,"o":"m 572 -316 q 438 -273 490 -316 q 387 -164 387 -231 q 411 -84 387 -122 q 475 -23 435 -47 l 475 -11 q 431 -16 460 -16 q 160 87 258 -16 q 62 374 62 191 q 161 660 62 555 q 431 764 260 764 q 701 660 602 764 q 799 374 799 556 q 757 176 799 267 q 635 18 715 85 q 539 -125 539 -62 q 561 -176 539 -158 q 619 -194 583 -194 q 666 -189 652 -194 l 666 -302 q 572 -316 629 -316 m 309 205 q 330 175 309 205 q 431 145 352 145 q 553 205 509 145 q 596 374 596 265 q 552 543 596 482 q 431 603 509 603 q 309 543 353 603 q 265 374 265 482 q 309 205 265 265 z "},"Ǭ":{"ha":1092,"x_min":75,"x_max":1017,"o":"m 721 -316 q 587 -275 639 -316 q 535 -168 535 -233 q 560 -85 535 -124 q 624 -24 585 -47 l 624 -12 q 547 -25 602 -25 q 202 113 329 -25 q 75 490 75 252 q 202 865 75 726 q 547 1004 330 1004 q 890 865 764 1004 q 1017 490 1017 727 q 961 224 1017 339 q 786 18 905 109 q 688 -125 688 -58 q 709 -175 688 -156 q 768 -194 730 -194 q 814 -189 802 -194 l 814 -302 q 721 -316 776 -316 m 737 733 q 701 779 737 733 q 547 824 666 824 q 356 733 427 824 q 285 490 285 642 q 356 245 285 336 q 547 155 427 155 q 737 245 666 155 q 808 490 808 336 q 737 733 808 642 m 800 1230 l 800 1107 l 294 1107 l 294 1230 l 800 1230 z "},"ǭ":{"ha":861,"x_min":62,"x_max":799,"o":"m 572 -316 q 438 -273 490 -316 q 387 -164 387 -231 q 411 -84 387 -122 q 475 -23 435 -47 l 475 -11 q 431 -16 460 -16 q 160 87 258 -16 q 62 374 62 191 q 161 660 62 555 q 431 764 260 764 q 701 660 602 764 q 799 374 799 556 q 757 176 799 267 q 635 18 715 85 q 539 -125 539 -62 q 561 -176 539 -158 q 619 -194 583 -194 q 666 -189 652 -194 l 666 -302 q 572 -316 629 -316 m 309 205 q 330 175 309 205 q 431 145 352 145 q 553 205 509 145 q 596 374 596 265 q 552 543 596 482 q 431 603 509 603 q 309 543 353 603 q 265 374 265 482 q 309 205 265 265 m 680 1015 l 680 892 l 182 892 l 182 1015 l 680 1015 z "},"Ǳ":{"ha":1983,"x_min":119,"x_max":1891,"o":"m 119 979 l 504 979 q 843 853 722 979 q 963 496 963 726 q 843 129 963 258 q 504 0 724 0 l 119 0 l 119 979 m 323 804 l 323 175 l 471 175 q 681 257 608 175 q 754 493 754 338 q 680 723 754 641 q 471 804 605 804 l 323 804 m 1136 0 l 1136 138 l 1628 791 l 1628 804 l 1147 804 l 1147 979 l 1878 979 l 1878 841 l 1387 187 l 1387 175 l 1891 175 l 1891 0 l 1136 0 z "},"ǲ":{"ha":1831,"x_min":119,"x_max":1750,"o":"m 119 979 l 504 979 q 843 853 722 979 q 963 496 963 726 q 843 129 963 258 q 504 0 724 0 l 119 0 l 119 979 m 323 804 l 323 175 l 471 175 q 681 257 608 175 q 754 493 754 338 q 680 723 754 641 q 471 804 605 804 l 323 804 m 1126 0 l 1126 117 l 1505 578 l 1505 591 l 1132 591 l 1132 748 l 1741 748 l 1741 618 l 1384 170 l 1384 157 l 1750 157 l 1750 0 l 1126 0 z "},"ǳ":{"ha":1697,"x_min":62,"x_max":1616,"o":"m 367 -12 q 144 92 226 -12 q 62 375 62 196 q 144 657 62 553 q 367 760 226 760 q 502 725 443 760 q 590 629 561 690 l 602 629 l 602 1034 l 799 1034 l 799 0 l 608 0 l 608 117 l 595 117 q 505 23 566 57 q 367 -12 445 -12 m 558 535 q 535 565 558 535 q 434 595 513 595 q 310 536 355 595 q 265 374 265 477 q 310 212 265 271 q 434 153 355 153 q 558 212 513 153 q 604 374 604 271 q 558 535 604 476 m 993 0 l 993 117 l 1371 578 l 1371 591 l 998 591 l 998 748 l 1607 748 l 1607 618 l 1251 170 l 1251 157 l 1616 157 l 1616 0 l 993 0 z "},"Ǵ":{"ha":1056,"x_min":75,"x_max":979,"o":"m 979 399 q 862 89 979 203 q 545 -25 745 -25 q 201 113 326 -25 q 75 490 75 250 q 201 865 75 727 q 540 1004 326 1004 q 831 911 713 1004 q 970 667 948 819 l 766 667 q 684 782 743 741 q 540 823 625 823 q 353 735 421 823 q 285 492 285 646 q 356 245 285 336 q 548 155 427 155 q 712 210 648 155 q 779 353 776 264 l 780 370 l 568 370 l 568 524 l 979 524 l 979 399 m 633 1079 l 444 1079 l 632 1295 l 846 1295 l 633 1079 z "},"ǵ":{"ha":897,"x_min":60,"x_max":798,"o":"m 307 224 q 329 195 307 224 q 431 167 351 167 q 557 224 511 167 q 602 380 602 281 q 556 537 602 479 q 431 595 511 595 q 308 537 352 595 q 263 381 263 480 q 307 224 263 281 m 429 -283 q 188 -223 281 -283 q 86 -64 96 -163 l 281 -64 q 329 -119 289 -99 q 433 -140 369 -140 q 556 -105 512 -140 q 600 -7 600 -70 l 600 132 l 588 132 q 363 11 524 11 q 142 111 223 11 q 60 380 60 211 q 143 657 60 555 q 367 760 225 760 q 504 725 443 760 q 594 628 564 690 l 606 628 l 606 748 l 798 748 l 798 3 q 698 -206 798 -129 q 429 -283 598 -283 m 514 869 l 332 869 l 499 1108 l 709 1108 l 514 869 z "},"Ǹ":{"ha":1067,"x_min":119,"x_max":948,"o":"m 315 0 l 119 0 l 119 979 l 290 979 l 740 369 l 752 369 l 752 979 l 948 979 l 948 0 l 779 0 l 327 612 l 315 612 l 315 0 m 445 1078 l 232 1294 l 446 1294 l 633 1078 l 445 1078 z "},"ǹ":{"ha":871,"x_min":99,"x_max":779,"o":"m 99 0 l 99 748 l 290 748 l 290 628 l 302 628 q 386 728 329 692 q 524 764 442 764 q 713 691 648 764 q 779 484 779 618 l 779 0 l 582 0 l 582 437 q 444 594 582 594 q 336 550 376 594 q 296 431 296 505 l 296 0 l 99 0 m 552 869 l 370 869 l 175 1108 l 385 1108 l 552 869 z "},"Ǻ":{"ha":1017,"x_min":49,"x_max":969,"o":"m 747 0 l 673 233 l 330 233 l 254 0 l 49 0 l 389 979 l 629 979 l 969 0 l 747 0 m 496 775 l 374 391 l 630 391 l 509 775 l 496 775 m 509 1038 q 404 1079 446 1038 q 362 1181 362 1120 q 404 1282 362 1242 q 509 1322 446 1322 q 613 1282 572 1322 q 655 1181 655 1242 q 613 1079 655 1120 q 509 1038 572 1038 m 467 1139 q 475 1131 467 1139 q 509 1122 484 1122 q 550 1139 534 1122 q 567 1180 567 1156 q 550 1221 567 1205 q 509 1238 534 1238 q 467 1221 484 1238 q 450 1180 450 1204 q 467 1139 450 1156 m 503 1501 l 682 1501 l 590 1372 l 429 1372 l 503 1501 z "},"ǻ":{"ha":819,"x_min":59,"x_max":724,"o":"m 369 137 q 484 176 437 137 q 530 271 530 214 l 530 326 l 378 317 q 252 227 252 308 q 284 161 252 185 q 369 137 317 137 m 304 -12 q 127 50 195 -12 q 59 214 59 112 q 134 373 59 315 q 349 439 209 431 l 530 450 l 530 511 q 497 583 530 557 q 404 608 465 608 q 269 539 294 608 l 87 539 q 185 704 96 643 q 414 764 273 764 q 643 698 562 764 q 724 511 724 631 l 724 0 l 533 0 l 533 98 l 521 98 q 434 17 492 46 q 304 -12 376 -12 m 524 867 q 502 846 524 867 q 414 824 480 824 q 304 867 349 824 q 260 975 260 911 q 304 1083 260 1040 q 414 1126 349 1126 q 524 1083 480 1126 q 568 975 568 1040 q 524 867 568 911 m 370 1019 q 361 1010 370 1019 q 352 975 352 1001 q 370 930 352 948 q 414 913 388 913 q 459 930 441 913 q 477 975 477 948 q 459 1019 477 1001 q 414 1036 441 1036 q 370 1019 388 1036 m 342 1179 l 451 1339 l 621 1339 l 487 1179 l 342 1179 z "},"Ǽ":{"ha":1396,"x_min":49,"x_max":1339,"o":"m 584 815 l 415 406 l 671 406 l 671 815 l 584 815 m 671 0 l 671 247 l 356 247 l 252 0 l 49 0 l 452 979 l 1300 979 l 1300 804 l 859 804 l 859 572 l 1275 572 l 1275 410 l 859 410 l 859 175 l 1300 175 l 1300 0 l 671 0 m 1126 1078 l 937 1078 l 1125 1294 l 1339 1294 l 1126 1078 z "},"ǽ":{"ha":1290,"x_min":59,"x_max":1223,"o":"m 892 -16 q 732 20 804 -16 q 627 118 661 56 l 614 118 q 499 19 571 55 q 338 -16 428 -16 q 135 47 212 -16 q 59 214 59 111 q 134 373 59 315 q 349 439 209 431 l 530 450 l 530 499 q 496 581 530 553 q 404 608 463 608 q 269 539 294 608 l 87 539 q 181 701 96 638 q 393 764 267 764 q 635 657 564 764 l 648 657 q 750 735 687 706 q 889 764 814 764 q 1133 664 1044 764 q 1223 392 1223 564 l 1223 328 l 716 328 l 716 311 q 766 183 719 231 q 890 136 814 136 q 1034 213 995 136 l 1216 213 q 1107 45 1194 107 q 892 -16 1020 -16 m 877 613 q 764 569 808 613 q 716 454 720 526 l 1029 454 q 984 569 1027 525 q 877 613 942 613 m 372 135 q 486 174 442 135 q 530 269 530 214 l 530 326 l 378 317 q 252 225 252 308 q 285 159 252 183 q 372 135 318 135 m 744 869 l 562 869 l 729 1108 l 939 1108 l 744 869 z "},"Ǿ":{"ha":1080,"x_min":75,"x_max":1017,"o":"m 861 1294 l 648 1078 l 460 1078 l 648 1294 l 861 1294 m 744 724 l 398 203 q 547 155 461 155 q 737 245 666 155 q 808 490 808 336 q 744 724 808 636 m 341 266 l 684 783 q 547 824 625 824 q 356 733 427 824 q 285 490 285 643 q 341 266 285 353 m 916 982 l 859 896 q 976 726 935 829 q 1017 490 1017 622 q 890 113 1017 252 q 547 -25 764 -25 q 291 41 399 -25 l 233 -46 l 164 -1 l 225 90 q 114 259 153 158 q 75 490 75 361 q 203 865 75 727 q 547 1004 330 1004 q 791 944 687 1004 l 842 1022 l 916 982 z "},"ǿ":{"ha":861,"x_min":62,"x_max":799,"o":"m 694 1108 l 500 869 l 317 869 l 485 1108 l 694 1108 m 570 512 l 353 164 q 431 145 387 145 q 553 205 509 145 q 596 374 596 265 q 570 512 596 456 m 296 226 l 515 578 q 431 603 480 603 q 309 543 352 603 q 265 374 265 482 q 296 226 265 282 m 722 755 l 677 683 q 799 374 799 578 q 701 87 799 191 q 431 -16 603 -16 q 262 16 336 -16 l 220 -50 l 151 -7 l 191 58 q 62 374 62 162 q 161 660 62 556 q 431 764 260 764 q 608 727 530 764 l 650 795 l 722 755 z "},"Ȁ":{"ha":1017,"x_min":49,"x_max":969,"o":"m 747 0 l 673 233 l 330 233 l 254 0 l 49 0 l 389 979 l 629 979 l 969 0 l 747 0 m 496 775 l 374 391 l 630 391 l 509 775 l 496 775 m 579 1078 l 391 1294 l 574 1294 l 745 1078 l 579 1078 m 283 1078 l 94 1294 l 277 1294 l 448 1078 l 283 1078 z "},"ȁ":{"ha":819,"x_min":37,"x_max":724,"o":"m 369 137 q 484 176 437 137 q 530 271 530 214 l 530 326 l 378 317 q 252 227 252 308 q 284 161 252 185 q 369 137 317 137 m 304 -12 q 127 50 195 -12 q 59 214 59 112 q 134 373 59 315 q 349 439 209 431 l 530 450 l 530 511 q 497 583 530 557 q 404 608 465 608 q 269 539 294 608 l 87 539 q 185 704 96 643 q 414 764 273 764 q 643 698 562 764 q 724 511 724 631 l 724 0 l 533 0 l 533 98 l 521 98 q 434 17 492 46 q 304 -12 376 -12 m 357 869 l 201 869 l 37 1108 l 212 1108 l 357 869 m 652 869 l 496 869 l 333 1108 l 508 1108 l 652 869 z "},"Ȃ":{"ha":1017,"x_min":49,"x_max":969,"o":"m 747 0 l 673 233 l 330 233 l 254 0 l 49 0 l 389 979 l 629 979 l 969 0 l 747 0 m 496 775 l 374 391 l 630 391 l 509 775 l 496 775 m 237 1071 q 311 1236 237 1173 q 509 1299 385 1299 q 706 1236 633 1299 q 780 1071 780 1173 l 639 1071 q 603 1153 637 1122 q 509 1183 568 1183 q 415 1153 450 1183 q 378 1071 380 1122 l 237 1071 z "},"ȃ":{"ha":819,"x_min":59,"x_max":724,"o":"m 369 137 q 484 176 437 137 q 530 271 530 214 l 530 326 l 378 317 q 252 227 252 308 q 284 161 252 185 q 369 137 317 137 m 304 -12 q 127 50 195 -12 q 59 214 59 112 q 134 373 59 315 q 349 439 209 431 l 530 450 l 530 511 q 497 583 530 557 q 404 608 465 608 q 269 539 294 608 l 87 539 q 185 704 96 643 q 414 764 273 764 q 643 698 562 764 q 724 511 724 631 l 724 0 l 533 0 l 533 98 l 521 98 q 434 17 492 46 q 304 -12 376 -12 m 143 848 q 217 1020 143 954 q 414 1086 290 1086 q 612 1020 538 1086 q 686 848 686 954 l 545 848 q 509 936 543 903 q 414 969 474 969 q 320 936 355 969 q 284 848 286 903 l 143 848 z "},"Ȅ":{"ha":864,"x_min":28,"x_max":767,"o":"m 767 175 l 767 0 l 119 0 l 119 979 l 767 979 l 767 804 l 323 804 l 323 575 l 742 575 l 742 413 l 323 413 l 323 175 l 767 175 m 513 1078 l 325 1294 l 509 1294 l 679 1078 l 513 1078 m 217 1078 l 28 1294 l 212 1294 l 382 1078 l 217 1078 z "},"ȅ":{"ha":835,"x_min":45,"x_max":772,"o":"m 422 613 q 310 569 354 613 q 260 452 265 525 l 578 452 q 533 570 575 527 q 422 613 492 613 m 583 213 l 766 213 q 653 45 744 106 q 425 -16 562 -16 q 158 86 254 -16 q 62 370 62 188 q 159 659 62 553 q 422 764 255 764 q 680 665 587 764 q 772 387 772 565 l 772 326 l 259 326 l 259 316 q 307 184 261 233 q 430 136 353 136 q 528 156 488 136 q 583 213 567 176 m 364 869 l 208 869 l 45 1108 l 220 1108 l 364 869 m 660 869 l 504 869 l 340 1108 l 515 1108 l 660 869 z "},"Ȇ":{"ha":864,"x_min":119,"x_max":767,"o":"m 767 175 l 767 0 l 119 0 l 119 979 l 767 979 l 767 804 l 323 804 l 323 575 l 742 575 l 742 413 l 323 413 l 323 175 l 767 175 m 172 1071 q 245 1236 172 1173 q 443 1299 319 1299 q 641 1236 567 1299 q 714 1071 714 1173 l 573 1071 q 537 1153 572 1122 q 443 1183 502 1183 q 349 1153 384 1183 q 313 1071 314 1122 l 172 1071 z "},"ȇ":{"ha":835,"x_min":62,"x_max":772,"o":"m 422 613 q 310 569 354 613 q 260 452 265 525 l 578 452 q 533 570 575 527 q 422 613 492 613 m 583 213 l 766 213 q 653 45 744 106 q 425 -16 562 -16 q 158 86 254 -16 q 62 370 62 188 q 159 659 62 553 q 422 764 255 764 q 680 665 587 764 q 772 387 772 565 l 772 326 l 259 326 l 259 316 q 307 184 261 233 q 430 136 353 136 q 528 156 488 136 q 583 213 567 176 m 151 848 q 224 1020 151 954 q 422 1086 298 1086 q 620 1020 546 1086 q 693 848 693 954 l 552 848 q 516 936 551 903 q 422 969 481 969 q 328 936 362 969 q 292 848 293 903 l 151 848 z "},"Ȉ":{"ha":442,"x_min":-193,"x_max":457,"o":"m 323 0 l 119 0 l 119 979 l 323 979 l 323 0 m 292 1078 l 103 1294 l 287 1294 l 457 1078 l 292 1078 m -5 1078 l -193 1294 l -10 1294 l 161 1078 l -5 1078 z "},"ȉ":{"ha":398,"x_min":-178,"x_max":437,"o":"m 100 0 l 100 748 l 298 748 l 298 0 l 100 0 m 142 869 l -14 869 l -178 1108 l -3 1108 l 142 869 m 437 869 l 281 869 l 118 1108 l 293 1108 l 437 869 z "},"Ȋ":{"ha":442,"x_min":-50,"x_max":492,"o":"m 323 0 l 119 0 l 119 979 l 323 979 l 323 0 m -50 1071 q 23 1236 -50 1173 q 221 1299 97 1299 q 419 1236 345 1299 q 492 1071 492 1173 l 351 1071 q 315 1153 350 1122 q 221 1183 280 1183 q 127 1153 162 1183 q 91 1071 92 1122 l -50 1071 z "},"ȋ":{"ha":398,"x_min":-72,"x_max":471,"o":"m 100 0 l 100 748 l 298 748 l 298 0 l 100 0 m -72 848 q 2 1020 -72 954 q 199 1086 75 1086 q 397 1020 323 1086 q 471 848 471 954 l 330 848 q 294 936 328 903 q 199 969 259 969 q 105 936 140 969 q 69 848 71 903 l -72 848 z "},"Ȍ":{"ha":1092,"x_min":75,"x_max":1017,"o":"m 547 1004 q 890 865 764 1004 q 1017 490 1017 727 q 890 113 1017 252 q 547 -25 764 -25 q 202 113 329 -25 q 75 490 75 252 q 203 865 75 727 q 547 1004 330 1004 m 737 733 q 701 779 737 733 q 547 824 666 824 q 356 733 427 824 q 285 490 285 643 q 356 245 285 336 q 547 155 427 155 q 737 245 666 155 q 808 490 808 336 q 737 733 808 643 m 617 1078 l 429 1294 l 612 1294 l 783 1078 l 617 1078 m 321 1078 l 132 1294 l 315 1294 l 486 1078 l 321 1078 z "},"ȍ":{"ha":861,"x_min":54,"x_max":799,"o":"m 701 87 q 652 36 701 87 q 431 -16 603 -16 q 160 87 258 -16 q 62 374 62 191 q 161 660 62 556 q 431 764 260 764 q 700 660 602 764 q 799 374 799 556 q 701 87 799 191 m 431 145 q 553 205 509 145 q 596 374 596 265 q 552 543 596 482 q 431 603 509 603 q 309 543 352 603 q 265 374 265 482 q 308 205 265 265 q 431 145 351 145 m 373 869 l 217 869 l 54 1108 l 229 1108 l 373 869 m 669 869 l 513 869 l 349 1108 l 524 1108 l 669 869 z "},"Ȏ":{"ha":1092,"x_min":75,"x_max":1017,"o":"m 547 1004 q 890 865 764 1004 q 1017 490 1017 727 q 890 113 1017 252 q 547 -25 764 -25 q 202 113 329 -25 q 75 490 75 252 q 203 865 75 727 q 547 1004 330 1004 m 737 733 q 701 779 737 733 q 547 824 666 824 q 356 733 427 824 q 285 490 285 643 q 356 245 285 336 q 547 155 427 155 q 737 245 666 155 q 808 490 808 336 q 737 733 808 643 m 275 1071 q 349 1236 275 1173 q 547 1299 422 1299 q 744 1236 671 1299 q 818 1071 818 1173 l 677 1071 q 641 1153 675 1122 q 547 1183 606 1183 q 453 1153 488 1183 q 416 1071 418 1122 l 275 1071 z "},"ȏ":{"ha":861,"x_min":62,"x_max":799,"o":"m 701 87 q 652 36 701 87 q 431 -16 603 -16 q 160 87 258 -16 q 62 374 62 191 q 161 660 62 556 q 431 764 260 764 q 700 660 602 764 q 799 374 799 556 q 701 87 799 191 m 431 145 q 553 205 509 145 q 596 374 596 265 q 552 543 596 482 q 431 603 509 603 q 309 543 352 603 q 265 374 265 482 q 308 205 265 265 q 431 145 351 145 m 159 848 q 233 1020 159 954 q 431 1086 307 1086 q 628 1020 555 1086 q 702 848 702 954 l 561 848 q 525 936 559 903 q 431 969 490 969 q 336 936 371 969 q 300 848 302 903 l 159 848 z "},"Ȑ":{"ha":964,"x_min":28,"x_max":905,"o":"m 323 813 l 323 512 l 503 512 q 624 552 581 512 q 667 662 667 591 q 622 772 667 732 q 501 813 577 813 l 323 813 m 323 355 l 323 0 l 119 0 l 119 979 l 530 979 q 784 895 691 979 q 877 665 877 810 q 830 495 877 570 q 699 387 783 420 l 905 0 l 673 0 l 491 355 l 323 355 m 513 1078 l 324 1294 l 508 1294 l 678 1078 l 513 1078 m 216 1078 l 28 1294 l 211 1294 l 382 1078 l 216 1078 z "},"ȑ":{"ha":604,"x_min":-73,"x_max":572,"o":"m 99 0 l 99 748 l 290 748 l 290 629 l 302 629 q 371 723 317 686 q 494 760 424 760 q 572 751 545 760 l 572 571 q 478 583 541 583 q 346 538 396 583 q 296 414 296 492 l 296 0 l 99 0 m 246 869 l 90 869 l -73 1108 l 102 1108 l 246 869 m 542 869 l 386 869 l 222 1108 l 397 1108 l 542 869 z "},"Ȓ":{"ha":964,"x_min":119,"x_max":905,"o":"m 323 813 l 323 512 l 503 512 q 624 552 581 512 q 667 662 667 591 q 622 772 667 732 q 501 813 577 813 l 323 813 m 323 355 l 323 0 l 119 0 l 119 979 l 530 979 q 784 895 691 979 q 877 665 877 810 q 830 495 877 570 q 699 387 783 420 l 905 0 l 673 0 l 491 355 l 323 355 m 171 1071 q 244 1236 171 1173 q 442 1299 318 1299 q 640 1236 566 1299 q 713 1071 713 1173 l 572 1071 q 536 1153 571 1122 q 442 1183 501 1183 q 348 1153 383 1183 q 312 1071 313 1122 l 171 1071 z "},"ȓ":{"ha":604,"x_min":33,"x_max":575,"o":"m 99 0 l 99 748 l 290 748 l 290 629 l 302 629 q 371 723 317 686 q 494 760 424 760 q 572 751 545 760 l 572 571 q 478 583 541 583 q 346 538 396 583 q 296 414 296 492 l 296 0 l 99 0 m 33 848 q 106 1020 33 954 q 304 1086 180 1086 q 502 1020 428 1086 q 575 848 575 954 l 434 848 q 398 936 433 903 q 304 969 363 969 q 210 936 244 969 q 174 848 175 903 l 33 848 z "},"Ȕ":{"ha":1061,"x_min":116,"x_max":941,"o":"m 326 979 l 326 359 q 379 211 326 265 q 530 157 433 157 q 682 211 628 157 q 736 359 736 265 l 736 979 l 941 979 l 941 338 q 829 75 941 174 q 530 -25 718 -25 q 232 75 344 -25 q 121 338 121 174 l 121 979 l 326 979 m 601 1078 l 412 1294 l 596 1294 l 766 1078 l 601 1078 m 304 1078 l 116 1294 l 299 1294 l 470 1078 l 304 1078 z "},"ȕ":{"ha":875,"x_min":57,"x_max":776,"o":"m 776 748 l 776 0 l 585 0 l 585 120 l 572 120 q 354 -16 517 -16 q 162 57 233 -16 q 92 260 92 131 l 92 748 l 290 748 l 290 311 q 427 155 290 155 q 539 198 500 155 q 578 317 578 241 l 578 748 l 776 748 m 376 869 l 220 869 l 57 1108 l 232 1108 l 376 869 m 672 869 l 516 869 l 353 1108 l 528 1108 l 672 869 z "},"Ȗ":{"ha":1061,"x_min":121,"x_max":941,"o":"m 326 979 l 326 359 q 379 211 326 265 q 530 157 433 157 q 682 211 628 157 q 736 359 736 265 l 736 979 l 941 979 l 941 338 q 829 75 941 174 q 530 -25 718 -25 q 232 75 344 -25 q 121 338 121 174 l 121 979 l 326 979 m 259 1071 q 333 1236 259 1173 q 530 1299 406 1299 q 728 1236 654 1299 q 802 1071 802 1173 l 661 1071 q 624 1153 659 1122 q 530 1183 589 1183 q 436 1153 471 1183 q 400 1071 401 1122 l 259 1071 z "},"ȗ":{"ha":875,"x_min":92,"x_max":776,"o":"m 776 748 l 776 0 l 585 0 l 585 120 l 572 120 q 354 -16 517 -16 q 162 57 233 -16 q 92 260 92 131 l 92 748 l 290 748 l 290 311 q 427 155 290 155 q 539 198 500 155 q 578 317 578 241 l 578 748 l 776 748 m 163 848 q 236 1020 163 954 q 434 1086 310 1086 q 632 1020 558 1086 q 705 848 705 954 l 564 848 q 528 936 563 903 q 434 969 494 969 q 340 936 374 969 q 304 848 305 903 l 163 848 z "},"Ș":{"ha":938,"x_min":75,"x_max":863,"o":"m 75 272 l 273 272 q 335 177 279 212 q 477 142 391 142 q 608 177 557 142 q 659 267 659 212 q 620 343 659 314 q 490 391 581 372 l 363 418 q 97 698 97 474 q 199 920 97 836 q 471 1004 302 1004 q 737 922 633 1004 q 846 709 841 840 l 653 709 q 596 802 646 767 q 473 838 547 838 q 349 804 395 838 q 302 715 302 771 q 340 642 302 670 q 464 596 378 614 l 582 571 q 796 473 729 540 q 863 293 863 407 q 757 60 863 145 q 467 -25 651 -25 q 186 55 292 -25 q 75 272 80 135 m 463 -345 l 288 -345 l 377 -102 l 575 -102 l 463 -345 z "},"ș":{"ha":787,"x_min":64,"x_max":724,"o":"m 82 528 q 168 700 82 635 q 393 764 254 764 q 617 707 536 764 q 706 542 698 649 l 524 542 q 483 599 516 578 q 395 620 449 620 q 307 598 341 620 q 272 541 272 576 q 296 495 272 513 q 373 466 321 477 l 513 435 q 673 363 623 412 q 724 231 724 314 q 633 52 724 119 q 394 -16 542 -16 q 160 42 246 -16 q 64 208 74 100 l 256 208 q 398 128 280 128 q 492 150 456 128 q 528 208 528 172 q 505 253 528 236 q 433 281 483 271 l 298 312 q 135 389 189 336 q 82 528 82 442 m 390 -345 l 215 -345 l 304 -102 l 503 -102 l 390 -345 z "},"Ț":{"ha":917,"x_min":62,"x_max":854,"o":"m 561 0 l 356 0 l 356 804 l 62 804 l 62 979 l 854 979 l 854 804 l 561 804 l 561 0 m 452 -345 l 277 -345 l 367 -102 l 565 -102 l 452 -345 z "},"ț":{"ha":573,"x_min":39,"x_max":508,"o":"m 155 926 l 353 926 l 353 741 l 508 741 l 508 585 l 353 585 l 353 249 q 376 177 353 200 q 450 154 399 154 q 508 157 483 154 l 508 6 q 409 -3 463 -3 q 214 45 273 -3 q 155 202 155 92 l 155 585 l 39 585 l 39 741 l 155 741 l 155 926 m 324 -345 l 149 -345 l 239 -102 l 437 -102 l 324 -345 z "},"Ȟ":{"ha":1088,"x_min":119,"x_max":969,"o":"m 969 0 l 764 0 l 764 409 l 323 409 l 323 0 l 119 0 l 119 979 l 323 979 l 323 584 l 764 584 l 764 979 l 969 979 l 969 0 m 458 1078 l 267 1294 l 439 1294 l 537 1177 l 551 1177 l 649 1294 l 821 1294 l 630 1078 l 458 1078 z "},"ȟ":{"ha":886,"x_min":-74,"x_max":794,"o":"m 106 0 l 106 1034 l 300 1034 l 300 625 l 312 625 q 397 726 338 690 q 538 762 456 762 q 727 689 659 762 q 794 481 794 616 l 794 0 l 597 0 l 597 435 q 562 552 597 512 q 459 592 526 592 q 345 548 386 592 q 303 429 303 503 l 303 0 l 106 0 m 117 1133 l -74 1349 l 98 1349 l 196 1232 l 210 1232 l 308 1349 l 479 1349 l 289 1133 l 117 1133 z "},"Ȧ":{"ha":1017,"x_min":49,"x_max":969,"o":"m 747 0 l 673 233 l 330 233 l 254 0 l 49 0 l 389 979 l 629 979 l 969 0 l 747 0 m 496 775 l 374 391 l 630 391 l 509 775 l 496 775 m 585 1101 q 570 1086 585 1101 q 509 1071 555 1071 q 432 1101 462 1071 q 401 1178 401 1132 q 432 1255 401 1224 q 509 1285 462 1285 q 585 1255 555 1285 q 615 1178 615 1224 q 585 1101 615 1132 z "},"ȧ":{"ha":819,"x_min":59,"x_max":724,"o":"m 369 137 q 484 176 437 137 q 530 271 530 214 l 530 326 l 378 317 q 252 227 252 308 q 284 161 252 185 q 369 137 317 137 m 304 -12 q 127 50 195 -12 q 59 214 59 112 q 134 373 59 315 q 349 439 209 431 l 530 450 l 530 511 q 497 583 530 557 q 404 608 465 608 q 269 539 294 608 l 87 539 q 185 704 96 643 q 414 764 273 764 q 643 698 562 764 q 724 511 724 631 l 724 0 l 533 0 l 533 98 l 521 98 q 434 17 492 46 q 304 -12 376 -12 m 493 898 q 477 882 493 898 q 414 867 462 867 q 336 898 367 867 q 305 975 305 928 q 336 1053 305 1022 q 414 1084 367 1084 q 493 1053 462 1084 q 524 975 524 1022 q 493 898 524 928 z "},"Ȩ":{"ha":864,"x_min":119,"x_max":767,"o":"m 767 804 l 323 804 l 323 575 l 742 575 l 742 413 l 323 413 l 323 175 l 767 175 l 767 0 l 507 0 l 477 -73 q 575 -107 541 -76 q 610 -193 610 -138 q 562 -295 610 -258 q 429 -332 515 -332 q 329 -319 370 -332 l 329 -229 q 408 -238 357 -238 q 484 -198 484 -238 q 463 -169 484 -178 q 395 -160 442 -160 l 355 -160 l 355 -81 l 390 0 l 119 0 l 119 979 l 767 979 l 767 804 z "},"ȩ":{"ha":835,"x_min":62,"x_max":772,"o":"m 260 452 l 578 452 q 533 570 575 527 q 422 613 492 613 q 310 569 354 613 q 260 452 265 525 m 772 326 l 259 326 l 259 316 q 307 184 261 233 q 430 136 353 136 q 528 156 488 136 q 583 213 567 176 l 766 213 q 672 59 747 119 q 484 -13 597 0 l 458 -73 q 557 -107 523 -76 q 591 -193 591 -138 q 544 -295 591 -258 q 410 -332 496 -332 q 311 -319 352 -332 l 311 -229 q 389 -238 339 -238 q 465 -198 465 -238 q 445 -169 465 -178 q 377 -160 424 -160 l 336 -160 l 336 -81 l 366 -13 q 142 105 222 5 q 62 370 62 205 q 159 659 62 553 q 422 764 255 764 q 680 665 587 764 q 772 387 772 565 l 772 326 z "},"Ȫ":{"ha":1092,"x_min":75,"x_max":1017,"o":"m 547 1004 q 890 865 764 1004 q 1017 490 1017 727 q 890 113 1017 252 q 547 -25 764 -25 q 202 113 329 -25 q 75 490 75 252 q 203 865 75 727 q 547 1004 330 1004 m 737 733 q 701 779 737 733 q 547 824 666 824 q 356 733 427 824 q 285 490 285 643 q 356 245 285 336 q 547 155 427 155 q 737 245 666 155 q 808 490 808 336 q 737 733 808 643 m 388 1274 q 462 1245 433 1274 q 492 1173 492 1217 q 462 1100 492 1128 q 388 1071 433 1071 q 313 1100 342 1071 q 283 1173 283 1128 q 313 1245 283 1217 q 388 1274 342 1274 m 294 1468 l 800 1468 l 800 1354 l 294 1354 l 294 1468 m 705 1274 q 780 1245 751 1274 q 810 1173 810 1217 q 780 1100 810 1128 q 705 1071 751 1071 q 631 1100 661 1071 q 602 1173 602 1128 q 631 1245 602 1217 q 705 1274 661 1274 z "},"ȫ":{"ha":861,"x_min":62,"x_max":799,"o":"m 701 87 q 652 36 701 87 q 431 -16 603 -16 q 160 87 258 -16 q 62 374 62 191 q 161 660 62 556 q 431 764 260 764 q 700 660 602 764 q 799 374 799 556 q 701 87 799 191 m 431 145 q 553 205 509 145 q 596 374 596 265 q 552 543 596 482 q 431 603 509 603 q 309 543 352 603 q 265 374 265 482 q 308 205 265 265 q 431 145 351 145 m 281 848 q 209 877 237 848 q 181 947 181 905 q 209 1017 181 989 q 281 1045 237 1045 q 351 1017 323 1045 q 379 947 379 989 q 351 877 379 905 q 281 848 323 848 m 581 848 q 510 877 538 848 q 482 947 482 905 q 510 1017 482 989 q 581 1045 538 1045 q 652 1017 624 1045 q 680 947 680 989 q 652 877 680 905 q 581 848 624 848 m 680 1260 l 680 1138 l 182 1138 l 182 1260 l 680 1260 z "},"Ȭ":{"ha":1092,"x_min":75,"x_max":1017,"o":"m 547 1004 q 890 865 764 1004 q 1017 490 1017 727 q 890 113 1017 252 q 547 -25 764 -25 q 202 113 329 -25 q 75 490 75 252 q 203 865 75 727 q 547 1004 330 1004 m 737 733 q 701 779 737 733 q 547 824 666 824 q 356 733 427 824 q 285 490 285 643 q 356 245 285 336 q 547 155 427 155 q 737 245 666 155 q 808 490 808 336 q 737 733 808 643 m 651 1071 q 584 1084 614 1071 q 538 1112 554 1097 q 500 1140 522 1127 q 458 1153 479 1153 q 416 1134 431 1153 q 399 1078 401 1116 l 275 1078 q 321 1219 275 1168 q 442 1271 368 1271 q 509 1258 479 1271 q 555 1230 539 1245 q 593 1202 572 1215 q 635 1190 614 1190 q 694 1262 690 1190 l 819 1262 q 772 1122 819 1174 q 651 1071 725 1071 m 800 1468 l 800 1347 l 294 1347 l 294 1468 l 800 1468 z "},"ȭ":{"ha":861,"x_min":62,"x_max":799,"o":"m 701 87 q 652 36 701 87 q 431 -16 603 -16 q 160 87 258 -16 q 62 374 62 191 q 161 660 62 556 q 431 764 260 764 q 700 660 602 764 q 799 374 799 556 q 701 87 799 191 m 431 145 q 553 205 509 145 q 596 374 596 265 q 552 543 596 482 q 431 603 509 603 q 309 543 352 603 q 265 374 265 482 q 308 205 265 265 q 431 145 351 145 m 525 850 q 471 860 496 850 q 429 884 446 870 q 396 913 412 899 q 366 937 381 927 q 336 947 351 947 q 277 852 278 947 l 150 852 q 198 1010 150 950 q 327 1069 247 1069 q 380 1059 355 1069 q 423 1035 406 1049 q 455 1006 440 1021 q 486 982 471 992 q 515 972 501 972 q 575 1065 574 972 l 702 1065 q 653 909 702 968 q 525 850 605 850 m 680 1261 l 680 1139 l 182 1139 l 182 1261 l 680 1261 z "},"Ȯ":{"ha":1092,"x_min":75,"x_max":1017,"o":"m 547 1004 q 890 865 764 1004 q 1017 490 1017 727 q 890 113 1017 252 q 547 -25 764 -25 q 202 113 329 -25 q 75 490 75 252 q 203 865 75 727 q 547 1004 330 1004 m 737 733 q 701 779 737 733 q 547 824 666 824 q 356 733 427 824 q 285 490 285 643 q 356 245 285 336 q 547 155 427 155 q 737 245 666 155 q 808 490 808 336 q 737 733 808 643 m 623 1101 q 608 1086 623 1101 q 547 1071 593 1071 q 470 1101 500 1071 q 439 1178 439 1132 q 470 1255 439 1224 q 547 1285 500 1285 q 623 1255 593 1285 q 653 1178 653 1224 q 623 1101 653 1132 z "},"ȯ":{"ha":861,"x_min":62,"x_max":799,"o":"m 701 87 q 652 36 701 87 q 431 -16 603 -16 q 160 87 258 -16 q 62 374 62 191 q 161 660 62 556 q 431 764 260 764 q 700 660 602 764 q 799 374 799 556 q 701 87 799 191 m 431 145 q 553 205 509 145 q 596 374 596 265 q 552 543 596 482 q 431 603 509 603 q 309 543 352 603 q 265 374 265 482 q 308 205 265 265 q 431 145 351 145 m 509 898 q 494 882 509 898 q 431 867 478 867 q 352 898 383 867 q 321 975 321 928 q 352 1053 321 1022 q 431 1084 383 1084 q 509 1053 478 1084 q 540 975 540 1022 q 509 898 540 928 z "},"Ȱ":{"ha":1092,"x_min":75,"x_max":1017,"o":"m 547 1004 q 890 865 764 1004 q 1017 490 1017 727 q 890 113 1017 252 q 547 -25 764 -25 q 202 113 329 -25 q 75 490 75 252 q 203 865 75 727 q 547 1004 330 1004 m 737 733 q 701 779 737 733 q 547 824 666 824 q 356 733 427 824 q 285 490 285 643 q 356 245 285 336 q 547 155 427 155 q 737 245 666 155 q 808 490 808 336 q 737 733 808 643 m 623 1097 q 608 1083 623 1097 q 547 1068 593 1068 q 471 1097 500 1068 q 441 1170 441 1126 q 471 1242 441 1213 q 547 1270 500 1270 q 623 1242 593 1270 q 652 1170 652 1213 q 623 1097 652 1126 m 800 1468 l 800 1354 l 294 1354 l 294 1468 l 800 1468 z "},"ȱ":{"ha":861,"x_min":62,"x_max":799,"o":"m 701 87 q 652 36 701 87 q 431 -16 603 -16 q 160 87 258 -16 q 62 374 62 191 q 161 660 62 556 q 431 764 260 764 q 700 660 602 764 q 799 374 799 556 q 701 87 799 191 m 431 145 q 553 205 509 145 q 596 374 596 265 q 552 543 596 482 q 431 603 509 603 q 309 543 352 603 q 265 374 265 482 q 308 205 265 265 q 431 145 351 145 m 504 877 q 490 863 504 877 q 431 848 475 848 q 357 877 386 848 q 328 949 328 906 q 357 1023 328 994 q 431 1052 386 1052 q 504 1023 475 1052 q 533 949 533 994 q 504 877 533 906 m 680 1260 l 680 1138 l 182 1138 l 182 1260 l 680 1260 z "},"Ȳ":{"ha":985,"x_min":49,"x_max":935,"o":"m 595 0 l 390 0 l 390 360 l 49 979 l 271 979 l 486 569 l 498 569 l 713 979 l 935 979 l 595 360 l 595 0 m 745 1230 l 745 1107 l 239 1107 l 239 1230 l 745 1230 z "},"ȳ":{"ha":829,"x_min":38,"x_max":791,"o":"m 192 -272 q 117 -270 129 -272 l 117 -111 q 161 -113 123 -113 q 250 -93 218 -113 q 294 -32 281 -74 l 300 -5 l 38 748 l 256 748 l 413 181 l 425 181 l 583 748 l 791 748 l 534 -12 q 409 -214 486 -155 q 192 -272 332 -272 m 667 1015 l 667 892 l 169 892 l 169 1015 l 667 1015 z "},"ȷ":{"ha":398,"x_min":-20,"x_max":298,"o":"m 298 748 l 298 -23 q 231 -196 298 -138 q 33 -255 163 -255 q -20 -252 -3 -255 l -20 -101 q 5 -102 -16 -102 q 79 -82 57 -102 q 100 -18 100 -62 l 100 748 l 298 748 z "},"ʼ":{"ha":441,"x_min":104,"x_max":363,"o":"m 241 564 l 104 564 l 168 979 l 363 979 l 241 564 z "},"ˆ":{"ha":745,"x_min":87,"x_max":658,"o":"m 471 1088 l 658 848 l 479 848 l 379 990 l 367 990 l 266 848 l 87 848 l 274 1088 l 471 1088 z "},"ˇ":{"ha":745,"x_min":87,"x_max":658,"o":"m 471 848 l 274 848 l 87 1088 l 266 1088 l 367 947 l 379 947 l 479 1088 l 658 1088 l 471 848 z "},"˘":{"ha":711,"x_min":85,"x_max":627,"o":"m 85 1086 l 225 1086 q 261 999 227 1031 q 355 966 296 966 q 450 999 415 966 q 486 1086 484 1031 l 627 1086 q 553 915 627 981 q 355 848 479 848 q 158 915 231 848 q 85 1086 85 981 z "},"˙":{"ha":711,"x_min":246,"x_max":465,"o":"m 434 898 q 418 882 434 898 q 355 867 403 867 q 277 898 308 867 q 246 975 246 928 q 277 1053 246 1022 q 355 1084 308 1084 q 434 1053 403 1084 q 465 975 465 1022 q 434 898 465 928 z "},"˚":{"ha":745,"x_min":206,"x_max":539,"o":"m 492 895 q 468 872 492 895 q 373 848 444 848 q 254 895 302 848 q 206 1012 206 941 q 254 1127 206 1081 q 373 1173 302 1173 q 492 1127 444 1173 q 539 1012 539 1082 q 492 895 539 941 m 321 960 q 332 950 321 960 q 373 941 342 941 q 424 961 404 941 q 444 1011 444 981 q 424 1061 444 1041 q 373 1081 404 1081 q 321 1061 342 1081 q 301 1011 301 1041 q 321 960 301 980 z "},"˛":{"ha":711,"x_min":225,"x_max":494,"o":"m 494 -190 l 494 -300 q 397 -316 453 -316 q 272 -278 318 -316 q 225 -176 225 -240 q 256 -80 225 -124 q 355 9 286 -36 l 484 9 q 392 -68 420 -35 q 364 -134 364 -102 q 386 -179 364 -163 q 444 -196 407 -196 q 494 -190 473 -196 z "},"˜":{"ha":745,"x_min":96,"x_max":648,"o":"m 471 859 q 418 869 443 859 q 375 894 393 880 q 343 922 358 908 q 312 947 328 937 q 283 957 297 957 q 223 861 224 957 l 96 861 q 145 1019 96 960 q 273 1079 193 1079 q 327 1069 302 1079 q 369 1044 352 1059 q 402 1016 387 1030 q 432 991 417 1002 q 462 981 448 981 q 522 1075 521 981 l 648 1075 q 600 918 648 977 q 471 859 551 859 z "},"˝":{"ha":711,"x_min":45,"x_max":661,"o":"m 341 869 l 485 1108 l 661 1108 l 496 869 l 341 869 m 45 869 l 189 1108 l 365 1108 l 201 869 l 45 869 z "},"̀":{"ha":0,"x_min":-269,"x_max":108,"o":"m 108 869 l -75 869 l -269 1108 l -60 1108 l 108 869 z "},"́":{"ha":0,"x_min":-105,"x_max":272,"o":"m 77 869 l -105 869 l 62 1108 l 272 1108 l 77 869 z "},"̂":{"ha":0,"x_min":-286,"x_max":285,"o":"m 98 1088 l 285 848 l 106 848 l 6 990 l -6 990 l -107 848 l -286 848 l -99 1088 l 98 1088 z "},"̃":{"ha":0,"x_min":-273,"x_max":279,"o":"m 102 850 q 49 860 74 850 q 6 884 24 870 q -26 913 -11 899 q -57 937 -41 927 q -86 947 -72 947 q -146 852 -144 947 l -273 852 q -224 1010 -273 950 q -96 1069 -176 1069 q -42 1059 -67 1069 q 0 1035 -17 1049 q 33 1006 18 1021 q 63 982 48 992 q 93 972 79 972 q 153 1065 152 972 l 279 1065 q 231 909 279 968 q 102 850 182 850 z "},"̄":{"ha":0,"x_min":-249,"x_max":250,"o":"m 250 1015 l 250 892 l -249 892 l -249 1015 l 250 1015 z "},"̆":{"ha":0,"x_min":-271,"x_max":271,"o":"m -271 1086 l -131 1086 q -95 999 -130 1031 q -1 966 -60 966 q 94 999 59 966 q 130 1086 128 1031 l 271 1086 q 197 915 271 981 q -1 848 123 848 q -198 915 -125 848 q -271 1086 -271 981 z "},"̇":{"ha":0,"x_min":-109,"x_max":109,"o":"m 78 898 q 63 882 78 898 q 0 867 47 867 q -78 898 -47 867 q -109 975 -109 928 q -78 1053 -109 1022 q 0 1084 -47 1084 q 78 1053 47 1084 q 109 975 109 1022 q 78 898 109 928 z "},"̈":{"ha":0,"x_min":-264,"x_max":264,"o":"m -83 878 q -98 863 -83 878 q -159 848 -113 848 q -234 878 -204 848 q -264 951 -264 907 q -234 1025 -264 996 q -159 1054 -205 1054 q -83 1025 -113 1054 q -54 951 -54 996 q -83 878 -54 907 m 159 848 q 83 878 113 848 q 54 951 54 907 q 83 1025 54 996 q 159 1054 113 1054 q 235 1025 205 1054 q 264 951 264 996 q 235 878 264 907 q 159 848 205 848 z "},"̉":{"ha":0,"x_min":-121,"x_max":156,"o":"m -121 1015 l -121 1120 q -15 1137 -76 1137 q 109 1098 62 1137 q 156 994 156 1059 q 120 893 156 938 q 20 825 83 849 l -44 903 q 9 934 -11 915 q 29 975 29 954 q 9 1014 29 999 q -45 1028 -11 1028 q -121 1015 -91 1028 z "},"̊":{"ha":0,"x_min":-167,"x_max":166,"o":"m 119 895 q 95 872 119 895 q 0 848 71 848 q -119 895 -71 848 q -167 1012 -167 941 q -119 1127 -167 1081 q 0 1173 -71 1173 q 119 1127 71 1173 q 166 1012 166 1082 q 119 895 166 941 m -52 960 q -41 950 -52 960 q 0 941 -31 941 q 51 961 31 941 q 71 1011 71 981 q 51 1061 71 1041 q 0 1081 31 1081 q -52 1061 -31 1081 q -72 1011 -72 1041 q -52 960 -72 980 z "},"̋":{"ha":0,"x_min":-243,"x_max":372,"o":"m 52 869 l 196 1108 l 372 1108 l 208 869 l 52 869 m -243 869 l -100 1108 l 76 1108 l -88 869 l -243 869 z "},"̌":{"ha":0,"x_min":-286,"x_max":285,"o":"m 98 848 l -99 848 l -286 1088 l -107 1088 l -6 947 l 6 947 l 106 1088 l 285 1088 l 98 848 z "},"̏":{"ha":0,"x_min":-377,"x_max":238,"o":"m -58 869 l -214 869 l -377 1108 l -202 1108 l -58 869 m 238 869 l 82 869 l -81 1108 l 94 1108 l 238 869 z "},"̑":{"ha":0,"x_min":-271,"x_max":271,"o":"m -271 848 q -198 1020 -271 954 q 0 1086 -124 1086 q 198 1020 124 1086 q 271 848 271 954 l 130 848 q 94 936 129 903 q 0 969 60 969 q -94 936 -60 969 q -130 848 -129 903 l -271 848 z "},"̛":{"ha":0,"x_min":0,"x_max":262,"o":"m 0 617 l 0 758 q 49 745 22 744 q 92 767 79 747 q 105 829 105 787 l 105 937 l 262 937 l 262 791 q 215 651 262 703 q 91 599 169 599 q 0 617 32 599 z "},"̣":{"ha":0,"x_min":-107,"x_max":106,"o":"m 77 -264 q 62 -280 77 -264 q 0 -295 47 -295 q -77 -264 -47 -295 q -107 -188 -107 -234 q -77 -111 -107 -142 q 0 -81 -47 -81 q 77 -111 47 -81 q 106 -188 106 -142 q 77 -264 106 -234 z "},"̤":{"ha":0,"x_min":-264,"x_max":264,"o":"m -83 -273 q -98 -287 -83 -273 q -159 -302 -113 -302 q -234 -273 -204 -302 q -264 -199 -264 -243 q -234 -125 -264 -154 q -159 -96 -205 -96 q -83 -125 -113 -96 q -54 -199 -54 -154 q -83 -273 -54 -243 m 159 -302 q 83 -273 113 -302 q 54 -199 54 -243 q 83 -125 54 -154 q 159 -96 113 -96 q 235 -125 205 -96 q 264 -199 264 -154 q 235 -273 264 -243 q 159 -302 205 -302 z "},"̥":{"ha":0,"x_min":-167,"x_max":166,"o":"m 119 -340 q 95 -363 119 -340 q 0 -387 71 -387 q -119 -340 -71 -387 q -167 -223 -167 -294 q -119 -108 -167 -154 q 0 -62 -71 -62 q 119 -107 71 -62 q 166 -223 166 -153 q 119 -340 166 -294 m -52 -275 q -41 -284 -52 -275 q 0 -294 -31 -294 q 51 -274 31 -294 q 71 -224 71 -254 q 51 -174 71 -194 q 0 -154 31 -154 q -52 -174 -31 -154 q -72 -224 -72 -194 q -52 -275 -72 -255 z "},"̦":{"ha":0,"x_min":-179,"x_max":109,"o":"m -4 -345 l -179 -345 l -90 -102 l 109 -102 l -4 -345 z "},"̧":{"ha":0,"x_min":-114,"x_max":167,"o":"m -88 -160 l -88 -81 l -45 19 l 64 19 l 64 1 l 34 -73 q 133 -107 98 -76 q 167 -193 167 -138 q 119 -295 167 -258 q -14 -332 72 -332 q -114 -319 -73 -332 l -114 -229 q -35 -238 -85 -238 q 41 -198 41 -238 q 20 -169 41 -178 q -47 -160 -1 -160 l -88 -160 z "},"̨":{"ha":0,"x_min":-168,"x_max":102,"o":"m 102 -192 l 102 -302 q 4 -318 60 -318 q -121 -280 -75 -318 q -168 -178 -168 -242 q -137 -82 -168 -126 q -38 7 -106 -38 l 91 7 q -1 -70 27 -37 q -28 -136 -28 -104 q -7 -181 -28 -165 q 52 -198 14 -198 q 102 -192 80 -198 z "},"̭":{"ha":0,"x_min":-285,"x_max":285,"o":"m -92 -91 l 92 -91 l 285 -318 l 105 -318 l 6 -191 l -6 -191 l -105 -318 l -285 -318 l -92 -91 z "},"̮":{"ha":0,"x_min":-271,"x_max":271,"o":"m -271 -71 l -130 -71 q -94 -152 -129 -121 q 0 -182 -59 -182 q 94 -152 59 -182 q 130 -71 129 -121 l 271 -71 q 198 -235 271 -172 q 0 -298 124 -298 q -198 -235 -124 -298 q -271 -71 -271 -172 z "},"̰":{"ha":0,"x_min":-276,"x_max":276,"o":"m 99 -295 q 45 -285 71 -295 q 3 -260 20 -275 q -30 -232 -14 -246 q -60 -208 -45 -218 q -90 -197 -75 -197 q -149 -293 -148 -197 l -276 -293 q -228 -135 -276 -195 q -99 -75 -179 -75 q -45 -85 -71 -75 q -3 -110 -20 -96 q 30 -138 14 -124 q 60 -163 45 -153 q 90 -173 75 -173 q 149 -79 149 -173 l 276 -79 q 228 -236 276 -177 q 99 -295 179 -295 z "},"̱":{"ha":0,"x_min":-253,"x_max":253,"o":"m 253 -149 l 253 -272 l -253 -272 l -253 -149 l 253 -149 z "},";":{"ha":483,"x_min":83,"x_max":361,"o":"m 329 515 q 312 499 329 515 q 241 482 296 482 q 154 515 187 482 q 121 600 121 548 q 154 685 121 652 q 241 718 187 718 q 329 685 296 718 q 361 600 361 652 q 329 515 361 548 m 221 -265 l 83 -265 l 148 159 l 342 159 l 221 -265 z "},"΄":{"ha":627,"x_min":176,"x_max":435,"o":"m 176 859 l 233 1116 l 435 1116 l 337 859 l 176 859 z "},"΅":{"ha":981,"x_min":135,"x_max":846,"o":"m 304 886 q 290 873 304 886 q 233 859 276 859 q 163 886 191 859 q 135 955 135 913 q 163 1024 135 997 q 233 1051 191 1051 q 304 1024 276 1051 q 332 955 332 997 q 304 886 332 913 m 818 886 q 804 873 818 886 q 747 859 790 859 q 677 886 705 859 q 649 955 649 913 q 677 1024 649 997 q 747 1051 705 1051 q 818 1024 790 1051 q 846 955 846 997 q 818 886 846 913 m 399 859 l 416 1116 l 602 1116 l 544 859 l 399 859 z "},"Ά":{"ha":1063,"x_min":47,"x_max":1015,"o":"m 793 0 l 719 233 l 375 233 l 300 0 l 94 0 l 434 979 l 675 979 l 1015 0 l 793 0 m 542 775 l 419 391 l 675 391 l 554 775 l 542 775 m 47 722 l 103 979 l 306 979 l 208 722 l 47 722 z "},"·":{"ha":483,"x_min":121,"x_max":361,"o":"m 329 289 q 312 273 329 289 q 241 256 296 256 q 154 290 187 256 q 121 374 121 323 q 154 459 121 426 q 241 492 187 492 q 329 459 296 492 q 361 374 361 427 q 329 289 361 322 z "},"Έ":{"ha":1162,"x_min":52,"x_max":1065,"o":"m 1065 175 l 1065 0 l 417 0 l 417 979 l 1065 979 l 1065 804 l 622 804 l 622 575 l 1040 575 l 1040 413 l 622 413 l 622 175 l 1065 175 m 52 722 l 109 979 l 311 979 l 213 722 l 52 722 z "},"Ή":{"ha":1386,"x_min":52,"x_max":1267,"o":"m 1267 0 l 1063 0 l 1063 409 l 622 409 l 622 0 l 417 0 l 417 979 l 622 979 l 622 584 l 1063 584 l 1063 979 l 1267 979 l 1267 0 m 52 722 l 109 979 l 311 979 l 213 722 l 52 722 z "},"Ί":{"ha":741,"x_min":52,"x_max":622,"o":"m 622 0 l 417 0 l 417 979 l 622 979 l 622 0 m 52 722 l 109 979 l 311 979 l 213 722 l 52 722 z "},"Ό":{"ha":1305,"x_min":52,"x_max":1230,"o":"m 760 1004 q 1104 865 977 1004 q 1230 490 1230 727 q 1104 113 1230 252 q 760 -25 977 -25 q 416 113 543 -25 q 289 490 289 252 q 416 865 289 727 q 760 1004 544 1004 m 950 733 q 915 779 950 733 q 760 824 880 824 q 570 733 641 824 q 498 490 498 643 q 569 245 498 336 q 760 155 640 155 q 950 245 880 155 q 1021 490 1021 336 q 950 733 1021 643 m 52 722 l 109 979 l 311 979 l 213 722 l 52 722 z "},"Ύ":{"ha":1299,"x_min":52,"x_max":1251,"o":"m 910 0 l 705 0 l 705 360 l 364 979 l 586 979 l 802 569 l 814 569 l 1029 979 l 1251 979 l 910 360 l 910 0 m 52 722 l 109 979 l 311 979 l 213 722 l 52 722 z "},"Ώ":{"ha":1324,"x_min":52,"x_max":1247,"o":"m 1041 534 q 969 746 1041 667 q 773 824 897 824 q 577 746 650 824 q 505 534 505 667 q 551 346 505 425 q 691 213 596 267 l 691 0 l 300 0 l 300 168 l 491 168 l 491 180 q 351 331 401 233 q 300 550 300 430 q 431 878 300 751 q 773 1004 563 1004 q 1115 878 983 1004 q 1247 550 1247 751 q 1196 331 1247 430 q 1056 180 1145 233 l 1056 168 l 1247 168 l 1247 0 l 856 0 l 856 213 q 996 346 950 267 q 1041 534 1041 425 m 52 722 l 109 979 l 311 979 l 213 722 l 52 722 z "},"ΐ":{"ha":477,"x_min":-145,"x_max":566,"o":"m 99 748 l 296 748 l 296 249 q 319 177 296 200 q 391 154 341 154 q 439 157 414 154 l 439 6 q 347 -3 393 -3 q 156 45 213 -3 q 99 203 99 93 l 99 748 m 24 886 q 10 873 24 886 q -47 859 -4 859 q -117 886 -90 859 q -145 955 -145 913 q -117 1024 -145 997 q -47 1051 -90 1051 q 24 1024 -4 1051 q 52 955 52 997 q 24 886 52 913 m 538 886 q 524 873 538 886 q 467 859 510 859 q 397 886 425 859 q 369 955 369 913 q 397 1024 369 997 q 467 1051 425 1051 q 538 1024 510 1051 q 566 955 566 997 q 538 886 566 913 m 119 859 l 136 1116 l 322 1116 l 264 859 l 119 859 z "},"Α":{"ha":1017,"x_min":49,"x_max":969,"o":"m 747 0 l 673 233 l 330 233 l 254 0 l 49 0 l 389 979 l 629 979 l 969 0 l 747 0 m 496 775 l 374 391 l 630 391 l 509 775 l 496 775 z "},"Β":{"ha":963,"x_min":119,"x_max":897,"o":"m 558 0 l 119 0 l 119 979 l 547 979 q 769 913 688 979 q 850 734 850 848 q 799 597 850 656 q 673 526 748 537 l 673 513 q 833 440 770 506 q 897 280 897 374 q 806 76 897 151 q 558 0 715 0 m 323 822 l 323 573 l 477 573 q 604 606 560 573 q 648 697 648 638 q 608 789 648 756 q 494 822 568 822 l 323 822 m 323 157 l 506 157 q 641 193 594 157 q 688 298 688 229 q 640 400 688 365 q 501 435 592 435 l 323 435 l 323 157 z "},"Γ":{"ha":817,"x_min":119,"x_max":746,"o":"m 323 0 l 119 0 l 119 979 l 746 979 l 746 804 l 323 804 l 323 0 z "},"Δ":{"ha":1021,"x_min":77,"x_max":945,"o":"m 945 0 l 77 0 l 77 120 l 391 979 l 631 979 l 945 120 l 945 0 m 292 187 l 292 175 l 715 175 l 715 187 l 511 782 l 498 782 l 292 187 z "},"Ε":{"ha":864,"x_min":119,"x_max":767,"o":"m 767 175 l 767 0 l 119 0 l 119 979 l 767 979 l 767 804 l 323 804 l 323 575 l 742 575 l 742 413 l 323 413 l 323 175 l 767 175 z "},"Ζ":{"ha":939,"x_min":92,"x_max":847,"o":"m 92 0 l 92 138 l 584 791 l 584 804 l 103 804 l 103 979 l 833 979 l 833 841 l 342 187 l 342 175 l 847 175 l 847 0 l 92 0 z "},"Η":{"ha":1088,"x_min":119,"x_max":969,"o":"m 969 0 l 764 0 l 764 409 l 323 409 l 323 0 l 119 0 l 119 979 l 323 979 l 323 584 l 764 584 l 764 979 l 969 979 l 969 0 z "},"Θ":{"ha":1133,"x_min":75,"x_max":1057,"o":"m 739 401 l 393 401 l 393 572 l 739 572 l 739 401 m 567 1004 q 928 869 798 1004 q 1057 490 1057 734 q 927 111 1057 247 q 567 -25 797 -25 q 206 111 336 -25 q 75 490 75 246 q 206 869 75 734 q 567 1004 336 1004 m 772 739 q 735 783 772 739 q 567 827 697 827 q 361 739 437 827 q 286 490 286 650 q 361 240 286 330 q 567 151 435 151 q 772 240 697 151 q 847 490 847 330 q 772 739 847 650 z "},"Ι":{"ha":442,"x_min":119,"x_max":323,"o":"m 323 0 l 119 0 l 119 979 l 323 979 l 323 0 z "},"Κ":{"ha":985,"x_min":119,"x_max":950,"o":"m 323 0 l 119 0 l 119 979 l 323 979 l 323 543 l 336 543 l 697 979 l 925 979 l 568 549 l 950 0 l 705 0 l 420 410 l 323 295 l 323 0 z "},"Λ":{"ha":1000,"x_min":54,"x_max":947,"o":"m 722 0 l 501 765 l 489 765 l 262 0 l 54 0 l 380 979 l 621 979 l 947 0 l 722 0 z "},"Μ":{"ha":1274,"x_min":119,"x_max":1155,"o":"m 1155 0 l 965 0 l 965 654 l 954 654 l 705 56 l 569 56 l 319 654 l 309 654 l 309 0 l 119 0 l 119 979 l 360 979 l 631 321 l 643 321 l 914 979 l 1155 979 l 1155 0 z "},"Ν":{"ha":1067,"x_min":119,"x_max":948,"o":"m 315 0 l 119 0 l 119 979 l 290 979 l 740 369 l 752 369 l 752 979 l 948 979 l 948 0 l 779 0 l 327 612 l 315 612 l 315 0 z "},"Ξ":{"ha":931,"x_min":97,"x_max":834,"o":"m 97 979 l 834 979 l 834 799 l 97 799 l 97 979 m 775 410 l 156 410 l 156 576 l 775 576 l 775 410 m 97 180 l 834 180 l 834 0 l 97 0 l 97 180 z "},"Ο":{"ha":1092,"x_min":75,"x_max":1017,"o":"m 547 1004 q 890 865 764 1004 q 1017 490 1017 727 q 890 113 1017 252 q 547 -25 764 -25 q 202 113 329 -25 q 75 490 75 252 q 203 865 75 727 q 547 1004 330 1004 m 737 733 q 701 779 737 733 q 547 824 666 824 q 356 733 427 824 q 285 490 285 643 q 356 245 285 336 q 547 155 427 155 q 737 245 666 155 q 808 490 808 336 q 737 733 808 643 z "},"Π":{"ha":1074,"x_min":119,"x_max":956,"o":"m 956 0 l 751 0 l 751 804 l 323 804 l 323 0 l 119 0 l 119 979 l 956 979 l 956 0 z "},"Ρ":{"ha":936,"x_min":119,"x_max":866,"o":"m 119 979 l 527 979 q 772 885 678 979 q 866 640 866 792 q 769 397 866 490 q 517 304 672 304 l 323 304 l 323 0 l 119 0 l 119 979 m 323 810 l 323 470 l 472 470 q 609 514 561 470 q 658 640 658 557 q 610 766 658 722 q 473 810 562 810 l 323 810 z "},"Σ":{"ha":925,"x_min":92,"x_max":833,"o":"m 350 187 l 350 175 l 833 175 l 833 0 l 92 0 l 92 130 l 347 490 l 106 826 l 106 979 l 819 979 l 819 804 l 366 804 l 366 791 l 564 510 l 564 486 l 350 187 z "},"Τ":{"ha":917,"x_min":62,"x_max":854,"o":"m 561 0 l 356 0 l 356 804 l 62 804 l 62 979 l 854 979 l 854 804 l 561 804 l 561 0 z "},"Υ":{"ha":985,"x_min":49,"x_max":935,"o":"m 595 0 l 390 0 l 390 360 l 49 979 l 271 979 l 486 569 l 498 569 l 713 979 l 935 979 l 595 360 l 595 0 z "},"Φ":{"ha":1265,"x_min":68,"x_max":1196,"o":"m 996 484 q 923 688 996 612 q 726 772 851 763 l 726 195 q 924 280 852 205 q 996 484 996 355 m 341 688 q 306 651 341 688 q 270 484 270 613 q 341 280 270 355 q 538 195 413 205 l 538 772 q 341 688 413 763 m 726 -75 l 538 -75 l 538 28 q 294 93 400 35 q 128 252 187 151 q 68 484 68 354 q 128 716 68 614 q 294 875 187 817 q 538 940 400 933 l 538 1044 l 726 1044 l 726 940 q 1066 805 937 930 q 1196 484 1196 681 q 1066 163 1196 288 q 726 28 937 38 l 726 -75 z "},"Χ":{"ha":1013,"x_min":60,"x_max":954,"o":"m 60 0 l 372 493 l 62 979 l 302 979 l 507 636 l 519 636 l 725 979 l 954 979 l 632 490 l 949 0 l 716 0 l 506 332 l 494 332 l 281 0 l 60 0 z "},"Ψ":{"ha":1206,"x_min":100,"x_max":1107,"o":"m 701 0 l 506 0 l 506 208 q 210 320 319 211 q 100 613 100 429 l 100 979 l 295 979 l 295 610 q 349 445 295 503 q 506 379 402 387 l 506 979 l 701 979 l 701 379 q 912 610 912 395 l 912 979 l 1107 979 l 1107 613 q 998 320 1107 429 q 701 208 888 211 l 701 0 z "},"Ω":{"ha":1103,"x_min":78,"x_max":1025,"o":"m 819 534 q 747 746 819 667 q 551 824 675 824 q 356 746 428 824 q 283 534 283 667 q 329 346 283 425 q 469 213 374 267 l 469 0 l 78 0 l 78 168 l 269 168 l 269 180 q 129 331 180 233 q 78 550 78 430 q 210 878 78 751 q 551 1004 341 1004 q 893 878 762 1004 q 1025 550 1025 751 q 975 331 1025 430 q 834 180 924 233 l 834 168 l 1025 168 l 1025 0 l 634 0 l 634 213 q 774 346 728 267 q 819 534 819 425 z "},"Ϊ":{"ha":442,"x_min":-43,"x_max":486,"o":"m 323 0 l 119 0 l 119 979 l 323 979 l 323 0 m 138 1100 q 123 1085 138 1100 q 62 1071 108 1071 q -13 1100 17 1071 q -43 1174 -43 1129 q -13 1247 -43 1219 q 62 1276 16 1276 q 138 1247 109 1276 q 168 1174 168 1219 q 138 1100 168 1129 m 380 1071 q 304 1100 334 1071 q 275 1174 275 1129 q 304 1247 275 1219 q 380 1276 334 1276 q 456 1247 426 1276 q 486 1174 486 1219 q 456 1100 486 1129 q 380 1071 426 1071 z "},"Ϋ":{"ha":985,"x_min":49,"x_max":935,"o":"m 595 0 l 390 0 l 390 360 l 49 979 l 271 979 l 486 569 l 498 569 l 713 979 l 935 979 l 595 360 l 595 0 m 409 1100 q 394 1085 409 1100 q 334 1071 379 1071 q 258 1100 288 1071 q 229 1174 229 1129 q 258 1247 229 1219 q 334 1276 288 1276 q 409 1247 380 1276 q 439 1174 439 1219 q 409 1100 439 1129 m 651 1071 q 576 1100 606 1071 q 546 1174 546 1129 q 576 1247 546 1219 q 651 1276 606 1276 q 727 1247 697 1276 q 757 1174 757 1219 q 727 1100 757 1129 q 651 1071 697 1071 z "},"ά":{"ha":926,"x_min":59,"x_max":879,"o":"m 416 153 q 541 213 494 153 q 587 374 587 273 q 542 534 587 473 q 424 595 498 595 q 306 535 350 595 q 262 374 262 476 q 304 213 262 273 q 416 153 346 153 m 367 -12 q 141 91 223 -12 q 59 375 59 194 q 141 657 59 553 q 362 760 222 760 q 495 722 440 760 q 578 612 551 684 l 590 612 l 590 748 l 782 748 l 782 233 q 797 168 782 186 q 844 149 812 149 q 879 155 864 149 l 879 5 q 783 -7 846 -7 q 604 111 635 -7 l 598 129 l 586 129 q 503 26 562 64 q 367 -12 444 -12 m 333 859 l 389 1116 l 592 1116 l 494 859 l 333 859 z "},"έ":{"ha":801,"x_min":66,"x_max":772,"o":"m 398 -17 q 155 42 243 -17 q 66 201 66 102 q 99 308 66 263 q 195 373 132 352 l 195 385 q 109 447 136 409 q 81 543 81 486 q 169 704 81 645 q 404 764 256 764 q 646 701 555 764 q 753 517 737 637 l 559 517 q 406 607 534 607 q 311 585 347 607 q 275 525 275 563 q 401 450 275 450 l 494 450 l 494 303 l 402 303 q 302 282 337 303 q 268 223 268 261 q 303 162 268 184 q 401 140 338 140 q 511 167 467 140 q 570 246 555 194 l 772 246 q 651 56 755 129 q 398 -17 546 -17 m 323 859 l 379 1116 l 582 1116 l 484 859 l 323 859 z "},"ή":{"ha":922,"x_min":60,"x_max":829,"o":"m 829 -248 l 632 -248 l 632 435 q 498 594 632 594 q 395 551 433 594 q 357 429 357 507 l 357 0 l 160 0 l 160 515 q 144 579 160 559 q 97 599 129 599 q 60 593 78 599 l 60 743 q 156 755 99 755 q 344 627 309 755 l 347 616 l 359 616 q 443 725 385 686 q 577 764 500 764 q 764 691 699 764 q 829 481 829 617 l 829 -248 m 339 859 l 395 1116 l 598 1116 l 500 859 l 339 859 z "},"ί":{"ha":477,"x_min":99,"x_max":439,"o":"m 99 748 l 296 748 l 296 249 q 319 177 296 200 q 391 154 341 154 q 439 157 414 154 l 439 6 q 347 -3 393 -3 q 156 45 213 -3 q 99 203 99 93 l 99 748 m 112 859 l 168 1116 l 371 1116 l 273 859 l 112 859 z "},"ΰ":{"ha":821,"x_min":46,"x_max":757,"o":"m 410 -16 q 169 66 252 -16 q 85 308 85 148 l 85 748 l 273 748 l 273 333 q 307 199 273 242 q 412 155 341 155 q 557 386 557 155 q 541 576 557 494 q 488 748 526 658 l 679 748 q 730 587 711 677 q 748 405 748 496 q 660 89 748 193 q 410 -16 571 -16 m 215 886 q 201 873 215 886 q 144 859 187 859 q 74 886 102 859 q 46 955 46 913 q 74 1024 46 997 q 144 1051 102 1051 q 215 1024 187 1051 q 243 955 243 997 q 215 886 243 913 m 729 886 q 715 873 729 886 q 659 859 701 859 q 588 886 616 859 q 560 955 560 913 q 588 1024 560 997 q 659 1051 616 1051 q 729 1024 701 1051 q 757 955 757 997 q 729 886 757 913 m 310 859 l 327 1116 l 513 1116 l 455 859 l 310 859 z "},"α":{"ha":926,"x_min":59,"x_max":879,"o":"m 416 153 q 541 213 494 153 q 587 374 587 273 q 542 534 587 473 q 424 595 498 595 q 306 535 350 595 q 262 374 262 476 q 304 213 262 273 q 416 153 346 153 m 367 -12 q 141 91 223 -12 q 59 375 59 194 q 141 657 59 553 q 362 760 222 760 q 495 722 440 760 q 578 612 551 684 l 590 612 l 590 748 l 782 748 l 782 233 q 797 168 782 186 q 844 149 812 149 q 879 155 864 149 l 879 5 q 783 -7 846 -7 q 604 111 635 -7 l 598 129 l 586 129 q 503 26 562 64 q 367 -12 444 -12 z "},"β":{"ha":891,"x_min":99,"x_max":829,"o":"m 380 473 l 380 623 l 426 623 q 535 658 496 623 q 574 754 574 692 q 537 852 574 817 q 438 888 500 888 q 296 706 296 888 l 296 363 q 343 207 296 261 q 475 153 391 153 q 585 196 543 153 q 627 307 627 239 q 576 430 627 388 q 429 473 525 473 l 380 473 m 99 677 q 185 955 99 860 q 435 1050 272 1050 q 667 978 581 1050 q 754 781 754 905 q 718 655 754 711 q 618 571 681 598 l 618 559 q 829 287 829 507 q 747 70 829 151 q 528 -12 665 -12 q 393 22 452 -12 q 309 115 334 56 l 296 115 l 296 -248 l 99 -248 l 99 677 z "},"γ":{"ha":809,"x_min":31,"x_max":739,"o":"m 476 -245 l 282 -245 l 282 -42 l 31 748 l 237 748 l 393 181 l 406 181 q 512 395 480 295 q 545 610 545 494 q 529 748 545 681 l 722 748 q 739 611 739 682 q 676 313 739 469 q 476 -26 614 157 l 476 -245 z "},"δ":{"ha":838,"x_min":54,"x_max":779,"o":"m 416 -16 q 151 79 248 -16 q 54 336 54 174 q 125 549 54 460 q 310 663 196 637 l 310 676 q 212 754 243 711 q 181 856 181 798 q 256 998 181 946 q 455 1050 331 1050 q 709 994 606 1050 l 709 845 q 480 900 590 900 q 412 884 436 900 q 387 840 387 868 q 409 794 387 814 q 491 745 431 774 q 712 566 646 659 q 779 340 779 474 q 680 83 779 182 q 416 -16 581 -16 m 416 132 q 533 188 489 132 q 576 342 576 245 q 531 496 576 438 q 414 555 486 555 q 297 497 342 555 q 252 342 252 440 q 296 188 252 244 q 416 132 341 132 z "},"ε":{"ha":801,"x_min":66,"x_max":772,"o":"m 398 -16 q 155 43 243 -16 q 66 202 66 102 q 99 308 66 264 q 195 374 132 353 l 195 386 q 109 448 136 410 q 81 544 81 486 q 169 705 81 646 q 404 764 256 764 q 646 701 555 764 q 753 518 737 638 l 559 518 q 406 608 534 608 q 311 586 347 608 q 275 526 275 564 q 401 450 275 450 l 494 450 l 494 304 l 402 304 q 302 283 337 304 q 268 224 268 262 q 303 162 268 184 q 401 140 338 140 q 511 168 467 140 q 570 247 555 195 l 772 247 q 651 57 755 130 q 398 -16 546 -16 z "},"ζ":{"ha":687,"x_min":57,"x_max":677,"o":"m 587 -250 l 439 -191 q 492 -65 492 -114 q 466 -3 492 -25 q 358 47 439 19 q 125 182 194 104 q 57 385 57 260 q 132 620 57 505 q 363 855 208 735 l 363 867 l 115 867 l 115 1034 l 657 1034 l 657 898 q 346 630 436 741 q 256 408 256 519 q 296 295 256 337 q 448 214 336 254 q 630 115 583 164 q 677 -22 677 66 q 587 -250 677 -123 z "},"η":{"ha":922,"x_min":60,"x_max":829,"o":"m 829 -248 l 632 -248 l 632 435 q 498 594 632 594 q 395 551 433 594 q 357 429 357 507 l 357 0 l 160 0 l 160 515 q 144 579 160 559 q 97 599 129 599 q 60 593 78 599 l 60 743 q 156 755 99 755 q 344 627 309 755 l 347 616 l 359 616 q 443 725 385 686 q 577 764 500 764 q 764 691 699 764 q 829 481 829 617 l 829 -248 z "},"θ":{"ha":853,"x_min":59,"x_max":794,"o":"m 427 -16 q 152 119 245 -16 q 59 519 59 255 q 153 915 59 780 q 427 1050 247 1050 q 700 915 606 1050 q 794 519 794 781 q 701 119 794 255 q 427 -16 608 -16 m 301 209 q 322 172 301 209 q 427 136 342 136 q 552 209 511 136 q 596 441 593 281 l 257 441 q 301 209 260 281 m 257 599 l 596 599 q 550 826 592 753 q 427 898 509 898 q 303 825 345 898 q 257 599 261 753 z "},"ι":{"ha":477,"x_min":99,"x_max":439,"o":"m 99 748 l 296 748 l 296 249 q 319 177 296 200 q 391 154 341 154 q 439 157 414 154 l 439 6 q 347 -3 393 -3 q 156 45 213 -3 q 99 203 99 93 l 99 748 z "},"κ":{"ha":861,"x_min":99,"x_max":800,"o":"m 99 0 l 99 748 l 287 748 l 287 430 l 299 430 l 473 629 q 581 728 534 701 q 690 755 628 755 q 774 743 736 755 l 774 593 q 730 599 756 599 q 673 585 697 599 q 611 530 648 570 l 521 427 l 800 0 l 591 0 l 393 302 l 287 190 l 287 0 l 99 0 z "},"λ":{"ha":830,"x_min":17,"x_max":795,"o":"m 17 0 l 315 705 l 294 762 q 233 868 262 843 q 142 893 204 893 q 100 888 129 893 l 100 1038 q 177 1050 146 1050 q 300 1026 252 1050 q 390 942 349 1002 q 471 770 431 882 l 668 228 q 704 165 685 182 q 762 149 724 149 q 795 155 770 149 l 795 5 q 705 -7 759 -7 q 578 25 622 -7 q 507 140 534 58 l 401 452 l 389 452 l 214 0 l 17 0 z "},"ν":{"ha":809,"x_min":31,"x_max":739,"o":"m 270 0 l 31 748 l 237 748 l 393 181 l 406 181 q 512 395 480 296 q 545 611 545 495 q 529 748 545 677 l 722 748 q 739 612 739 681 q 681 325 739 473 q 494 0 623 176 l 270 0 z "},"ξ":{"ha":712,"x_min":56,"x_max":676,"o":"m 585 -249 l 438 -191 q 479 -119 467 -146 q 490 -64 490 -92 q 464 -2 490 -24 q 345 52 437 20 q 120 168 184 108 q 56 317 56 227 q 233 518 56 471 l 233 530 q 130 599 163 559 q 98 701 98 640 q 134 801 98 761 q 237 855 171 840 l 237 867 l 100 867 l 100 1034 l 652 1034 l 652 891 l 568 880 q 351 827 413 861 q 289 734 289 793 q 332 659 289 682 q 477 635 376 635 l 600 635 l 600 477 l 462 477 q 307 446 358 477 q 255 359 255 416 q 268 309 255 329 q 325 265 281 288 q 452 212 368 241 q 630 115 583 164 q 676 -20 676 66 q 655 -129 676 -76 q 585 -249 633 -182 z "},"ο":{"ha":844,"x_min":59,"x_max":785,"o":"m 422 -16 q 156 87 254 -16 q 59 374 59 191 q 157 660 59 555 q 422 764 256 764 q 687 660 589 764 q 785 374 785 556 q 688 87 785 191 q 422 -16 591 -16 m 304 205 q 325 175 304 205 q 422 145 347 145 q 540 205 497 145 q 583 374 583 266 q 539 542 583 481 q 422 603 496 603 q 305 542 348 603 q 262 374 262 481 q 304 205 262 266 z "},"π":{"ha":1023,"x_min":56,"x_max":951,"o":"m 211 0 l 211 583 l 56 583 l 56 748 l 951 748 l 951 583 l 800 583 l 800 232 q 815 167 800 184 q 871 149 831 149 q 911 155 892 149 l 911 5 q 821 -7 871 -7 q 666 43 717 -7 q 614 198 614 94 l 614 583 l 396 583 l 396 0 l 211 0 z "},"ρ":{"ha":878,"x_min":89,"x_max":819,"o":"m 447 153 q 571 213 526 153 q 616 382 616 273 q 571 546 616 490 q 448 603 527 603 q 325 543 370 603 q 281 371 281 482 q 327 212 281 271 q 447 153 372 153 m 89 -248 l 89 364 q 186 658 89 552 q 450 764 283 764 q 723 659 627 764 q 819 378 819 554 q 735 92 819 195 q 510 -12 652 -12 q 381 22 437 -12 q 298 115 326 55 l 286 115 l 286 -248 l 89 -248 z "},"ς":{"ha":795,"x_min":59,"x_max":741,"o":"m 680 -22 q 589 -249 680 -123 l 441 -191 q 494 -65 494 -113 q 468 -4 494 -26 q 359 47 441 18 q 125 184 191 107 q 59 404 59 262 q 155 667 59 569 q 408 764 250 764 q 640 691 553 764 q 741 484 727 618 l 556 484 q 412 602 532 602 q 301 552 344 602 q 258 416 258 503 q 296 296 258 336 q 452 214 334 256 q 632 116 585 164 q 680 -22 680 67 z "},"σ":{"ha":939,"x_min":59,"x_max":881,"o":"m 418 -16 q 156 85 253 -16 q 59 359 59 186 q 166 642 59 535 q 450 748 273 748 l 881 748 l 881 583 l 700 583 l 700 570 q 756 479 736 536 q 777 355 777 422 q 679 85 777 186 q 418 -16 581 -16 m 422 142 q 541 201 497 142 q 585 364 585 260 q 539 520 585 461 q 425 580 494 580 q 307 521 351 580 q 262 364 262 462 q 305 200 262 258 q 422 142 349 142 z "},"τ":{"ha":764,"x_min":36,"x_max":699,"o":"m 513 -3 q 318 45 377 -3 q 259 203 259 93 l 259 583 l 36 583 l 36 748 l 699 748 l 699 583 l 456 583 l 456 249 q 480 177 456 200 q 553 154 504 154 q 612 157 593 154 l 612 6 q 513 -3 567 -3 z "},"υ":{"ha":821,"x_min":85,"x_max":748,"o":"m 410 -16 q 169 66 252 -16 q 85 308 85 148 l 85 748 l 273 748 l 273 333 q 307 199 273 242 q 412 155 341 155 q 557 386 557 155 q 541 576 557 494 q 488 748 526 658 l 679 748 q 730 587 711 677 q 748 405 748 496 q 660 89 748 193 q 410 -16 571 -16 z "},"φ":{"ha":1083,"x_min":56,"x_max":1028,"o":"m 452 -248 l 452 -16 q 163 97 271 -7 q 56 374 56 201 q 86 538 56 465 q 171 659 117 611 q 296 734 224 707 q 452 766 368 762 l 452 926 l 632 926 l 632 766 q 788 734 716 762 q 913 659 859 707 q 998 538 967 611 q 1028 374 1028 465 q 921 97 1028 201 q 632 -16 813 -7 l 632 -248 l 452 -248 m 629 140 q 785 211 732 151 q 838 374 838 271 q 783 539 838 481 q 629 609 728 598 l 629 140 m 455 140 l 455 609 q 300 539 355 598 q 245 374 245 481 q 299 211 245 271 q 455 140 352 151 z "},"χ":{"ha":827,"x_min":38,"x_max":795,"o":"m 44 -248 l 317 248 l 172 519 q 126 582 149 566 q 70 599 104 599 q 38 593 56 599 l 38 743 q 119 755 77 755 q 239 725 194 755 q 323 622 285 695 l 424 432 l 436 432 l 602 748 l 793 748 l 519 247 l 661 -21 q 705 -81 684 -64 q 762 -98 726 -98 q 795 -93 779 -98 l 795 -243 q 705 -255 757 -255 q 593 -228 636 -255 q 517 -136 549 -201 l 412 67 l 400 67 l 235 -248 l 44 -248 z "},"ψ":{"ha":1058,"x_min":85,"x_max":985,"o":"m 433 -248 l 433 -16 q 175 70 264 -14 q 85 305 85 154 l 85 748 l 273 748 l 273 349 q 310 200 273 244 q 433 155 347 157 l 433 926 l 620 926 l 620 157 q 749 217 703 158 q 794 387 794 277 q 726 748 794 585 l 916 748 q 967 591 948 685 q 985 399 985 497 q 890 94 985 201 q 620 -16 795 -14 l 620 -248 l 433 -248 z "},"ω":{"ha":1131,"x_min":73,"x_max":1059,"o":"m 783 -16 q 572 136 635 -16 l 559 136 q 349 -16 496 -16 q 145 78 217 -16 q 73 348 73 172 q 103 569 73 464 q 191 748 134 673 l 389 748 q 295 556 326 652 q 265 349 265 459 q 292 203 265 250 q 374 155 318 155 q 447 193 418 155 q 475 294 475 231 l 475 534 l 656 534 l 656 294 q 685 193 656 231 q 758 155 713 155 q 866 349 866 155 q 742 748 866 562 l 940 748 q 1027 569 996 673 q 1059 348 1059 465 q 987 79 1059 174 q 783 -16 916 -16 z "},"ϊ":{"ha":477,"x_min":-73,"x_max":456,"o":"m 99 748 l 296 748 l 296 249 q 319 177 296 200 q 391 154 341 154 q 439 157 414 154 l 439 6 q 347 -3 393 -3 q 156 45 213 -3 q 99 203 99 93 l 99 748 m 108 878 q 93 863 108 878 q 33 848 78 848 q -43 878 -13 848 q -73 951 -73 907 q -43 1025 -73 996 q 33 1054 -14 1054 q 108 1025 79 1054 q 138 951 138 996 q 108 878 138 907 m 350 848 q 275 878 304 848 q 245 951 245 907 q 275 1025 245 996 q 350 1054 304 1054 q 426 1025 396 1054 q 456 951 456 996 q 426 878 456 907 q 350 848 396 848 z "},"ϋ":{"ha":821,"x_min":85,"x_max":748,"o":"m 410 -16 q 169 66 252 -16 q 85 308 85 148 l 85 748 l 273 748 l 273 333 q 307 199 273 242 q 412 155 341 155 q 557 386 557 155 q 541 576 557 494 q 488 748 526 658 l 679 748 q 730 587 711 677 q 748 405 748 496 q 660 89 748 193 q 410 -16 571 -16 m 310 878 q 295 863 310 878 q 235 848 280 848 q 159 878 189 848 q 130 951 130 907 q 159 1025 130 996 q 235 1054 189 1054 q 310 1025 281 1054 q 340 951 340 996 q 310 878 340 907 m 552 848 q 477 878 507 848 q 447 951 447 907 q 477 1025 447 996 q 552 1054 507 1054 q 628 1025 598 1054 q 658 951 658 996 q 628 878 658 907 q 552 848 598 848 z "},"ό":{"ha":844,"x_min":59,"x_max":785,"o":"m 422 -16 q 156 87 254 -16 q 59 374 59 191 q 157 660 59 555 q 422 764 256 764 q 687 660 589 764 q 785 374 785 556 q 688 87 785 191 q 422 -16 591 -16 m 304 205 q 325 175 304 205 q 422 145 347 145 q 540 205 497 145 q 583 374 583 266 q 539 542 583 481 q 422 603 496 603 q 305 542 348 603 q 262 374 262 481 q 304 205 262 266 m 328 859 l 385 1116 l 587 1116 l 489 859 l 328 859 z "},"ύ":{"ha":821,"x_min":85,"x_max":748,"o":"m 410 -16 q 169 66 252 -16 q 85 308 85 148 l 85 748 l 273 748 l 273 333 q 307 199 273 242 q 412 155 341 155 q 557 386 557 155 q 541 576 557 494 q 488 748 526 658 l 679 748 q 730 587 711 677 q 748 405 748 496 q 660 89 748 193 q 410 -16 571 -16 m 300 859 l 357 1116 l 559 1116 l 461 859 l 300 859 z "},"ώ":{"ha":1131,"x_min":73,"x_max":1059,"o":"m 783 -16 q 572 136 635 -16 l 559 136 q 349 -16 496 -16 q 145 78 217 -16 q 73 348 73 172 q 103 569 73 464 q 191 748 134 673 l 389 748 q 295 556 326 652 q 265 349 265 459 q 292 203 265 250 q 374 155 318 155 q 447 193 418 155 q 475 294 475 231 l 475 534 l 656 534 l 656 294 q 685 193 656 231 q 758 155 713 155 q 866 349 866 155 q 742 748 866 562 l 940 748 q 1027 569 996 673 q 1059 348 1059 465 q 987 79 1059 174 q 783 -16 916 -16 m 479 859 l 536 1116 l 739 1116 l 640 859 l 479 859 z "},"Ѐ":{"ha":878,"x_min":125,"x_max":774,"o":"m 774 175 l 774 0 l 125 0 l 125 979 l 774 979 l 774 804 l 330 804 l 330 575 l 749 575 l 749 413 l 330 413 l 330 175 l 774 175 m 363 1078 l 151 1294 l 364 1294 l 551 1078 l 363 1078 z "},"Ё":{"ha":878,"x_min":125,"x_max":774,"o":"m 774 175 l 774 0 l 125 0 l 125 979 l 774 979 l 774 804 l 330 804 l 330 575 l 749 575 l 749 413 l 330 413 l 330 175 l 774 175 m 366 1100 q 351 1085 366 1100 q 291 1071 336 1071 q 216 1100 245 1071 q 186 1174 186 1129 q 215 1247 186 1219 q 291 1276 245 1276 q 367 1247 337 1276 q 396 1174 396 1219 q 366 1100 396 1129 m 608 1071 q 533 1100 563 1071 q 503 1174 503 1129 q 533 1247 503 1219 q 608 1276 563 1276 q 684 1247 654 1276 q 714 1174 714 1219 q 684 1100 714 1129 q 608 1071 654 1071 z "}}}
